<?xml version="1.0" encoding="UTF-8" standalone="no"?>
<!DOCTYPE svg PUBLIC "-//W3C//DTD SVG 1.1//EN"
 "http://www.w3.org/Graphics/SVG/1.1/DTD/svg11.dtd">
<!-- Generated by graphviz version 2.47.2 (20210527.1257)
 -->
<!-- Title: dss::obj::PVSystemBatch Pages: 1 -->
<svg width="193pt" height="274pt"
 viewBox="0.00 0.00 192.50 274.00" xmlns="http://www.w3.org/2000/svg" xmlns:xlink="http://www.w3.org/1999/xlink">
<g id="graph0" class="graph" transform="scale(1 1) rotate(0) translate(4 270)">
<title>dss::obj::PVSystemBatch</title>
<polygon fill="white" stroke="transparent" points="-4,4 -4,-270 188.5,-270 188.5,4 -4,4"/>
<!-- Node1 -->
<g id="node1" class="node">
<title>Node1</title>
<g id="a_node1"><a xlink:title=" ">
<polygon fill="#bfbfbf" stroke="black" points="0,-0.5 0,-19.5 129,-19.5 129,-0.5 0,-0.5"/>
<text text-anchor="middle" x="64.5" y="-7.5" font-family="Helvetica" font-size="10.00">dss::obj::PVSystemBatch</text>
</a>
</g>
</g>
<!-- Node2 -->
<g id="node2" class="node">
<title>Node2</title>
<g id="a_node2"><a xlink:href="classdss_1_1obj_1_1DSSBatch.html" target="_top" xlink:title=" ">
<polygon fill="white" stroke="#bfbfbf" points="12.5,-57.5 12.5,-76.5 116.5,-76.5 116.5,-57.5 12.5,-57.5"/>
<text text-anchor="middle" x="64.5" y="-64.5" font-family="Helvetica" font-size="10.00">dss::obj::DSSBatch</text>
</a>
</g>
</g>
<!-- Node2&#45;&gt;Node1 -->
<g id="edge1" class="edge">
<title>Node2&#45;&gt;Node1</title>
<path fill="none" stroke="midnightblue" d="M64.5,-47.12C64.5,-37.82 64.5,-27.06 64.5,-19.71"/>
<polygon fill="midnightblue" stroke="midnightblue" points="61,-47.41 64.5,-57.41 68,-47.41 61,-47.41"/>
</g>
<!-- Node3 -->
<g id="node3" class="node">
<title>Node3</title>
<g id="a_node3"><a xlink:href="structdss_1_1APIUtil.html" target="_top" xlink:title=" ">
<polygon fill="white" stroke="#bfbfbf" points="82.5,-124.5 82.5,-143.5 152.5,-143.5 152.5,-124.5 82.5,-124.5"/>
<text text-anchor="middle" x="117.5" y="-131.5" font-family="Helvetica" font-size="10.00">dss::APIUtil</text>
</a>
</g>
</g>
<!-- Node3&#45;&gt;Node2 -->
<g id="edge2" class="edge">
<title>Node3&#45;&gt;Node2</title>
<path fill="none" stroke="#9a32cd" stroke-dasharray="5,2" d="M103.86,-116.27C93.53,-103.6 79.75,-86.7 71.53,-76.63"/>
<polygon fill="#9a32cd" stroke="#9a32cd" points="101.32,-118.7 110.35,-124.23 106.75,-114.27 101.32,-118.7"/>
<text text-anchor="middle" x="110.5" y="-98" font-family="Helvetica" font-size="10.00"> api_util</text>
</g>
<!-- Node4 -->
<g id="node4" class="node">
<title>Node4</title>
<g id="a_node4"><a xlink:title=" ">
<polygon fill="white" stroke="#bfbfbf" points="29.5,-246.5 29.5,-265.5 75.5,-265.5 75.5,-246.5 29.5,-246.5"/>
<text text-anchor="middle" x="52.5" y="-253.5" font-family="Helvetica" font-size="10.00">int32_t</text>
</a>
</g>
</g>
<!-- Node4&#45;&gt;Node2 -->
<g id="edge4" class="edge">
<title>Node4&#45;&gt;Node2</title>
<path fill="none" stroke="#9a32cd" stroke-dasharray="5,2" d="M48.97,-236.22C44.73,-210.66 38.97,-163.56 45.5,-124 48.38,-106.58 55.96,-87.29 60.63,-76.5"/>
<polygon fill="#9a32cd" stroke="#9a32cd" points="45.57,-237.11 50.76,-246.35 52.46,-235.89 45.57,-237.11"/>
<text text-anchor="middle" x="59.5" y="-131.5" font-family="Helvetica" font-size="10.00"> count</text>
</g>
<!-- Node4&#45;&gt;Node3 -->
<g id="edge3" class="edge">
<title>Node4&#45;&gt;Node3</title>
<path fill="none" stroke="#9a32cd" stroke-dasharray="5,2" d="M61.95,-237.55C76.11,-211.42 102.27,-163.11 112.87,-143.55"/>
<polygon fill="#9a32cd" stroke="#9a32cd" points="58.86,-235.91 57.17,-246.37 65.02,-239.24 58.86,-235.91"/>
<text text-anchor="middle" x="143" y="-220" font-family="Helvetica" font-size="10.00"> count_PByte</text>
<text text-anchor="middle" x="143" y="-209" font-family="Helvetica" font-size="10.00">count_PDouble</text>
<text text-anchor="middle" x="143" y="-198" font-family="Helvetica" font-size="10.00">count_PInteger</text>
<text text-anchor="middle" x="143" y="-187" font-family="Helvetica" font-size="10.00">count_PPAnsiChar</text>
<text text-anchor="middle" x="143" y="-176" font-family="Helvetica" font-size="10.00">data_PInteger</text>
<text text-anchor="middle" x="143" y="-165" font-family="Helvetica" font-size="10.00">error_ptr</text>
</g>
</g>
</svg>
