<?xml version="1.0" encoding="UTF-8" standalone="no"?>
<!DOCTYPE svg PUBLIC "-//W3C//DTD SVG 1.1//EN"
 "http://www.w3.org/Graphics/SVG/1.1/DTD/svg11.dtd">
<!-- Generated by graphviz version 2.47.2 (20210527.1257)
 -->
<!-- Title: dss::classic::IDSSElement Pages: 1 -->
<svg width="225pt" height="341pt"
 viewBox="0.00 0.00 225.00 341.00" xmlns="http://www.w3.org/2000/svg" xmlns:xlink="http://www.w3.org/1999/xlink">
<g id="graph0" class="graph" transform="scale(1 1) rotate(0) translate(4 337)">
<title>dss::classic::IDSSElement</title>
<polygon fill="white" stroke="transparent" points="-4,4 -4,-337 221,-337 221,4 -4,4"/>
<!-- Node1 -->
<g id="node1" class="node">
<title>Node1</title>
<g id="a_node1"><a xlink:title=" ">
<polygon fill="#bfbfbf" stroke="black" points="0,-0.5 0,-19.5 135,-19.5 135,-0.5 0,-0.5"/>
<text text-anchor="middle" x="67.5" y="-7.5" font-family="Helvetica" font-size="10.00">dss::classic::IDSSElement</text>
</a>
</g>
</g>
<!-- Node2 -->
<g id="node2" class="node">
<title>Node2</title>
<g id="a_node2"><a xlink:href="classdss_1_1ContextState.html" target="_top" xlink:title="Wraps common DSSContext state data.">
<polygon fill="white" stroke="black" points="15.5,-124.5 15.5,-143.5 111.5,-143.5 111.5,-124.5 15.5,-124.5"/>
<text text-anchor="middle" x="63.5" y="-131.5" font-family="Helvetica" font-size="10.00">dss::ContextState</text>
</a>
</g>
</g>
<!-- Node2&#45;&gt;Node1 -->
<g id="edge1" class="edge">
<title>Node2&#45;&gt;Node1</title>
<path fill="none" stroke="midnightblue" d="M64.12,-114.19C65,-87.4 66.57,-39.31 67.21,-19.69"/>
<polygon fill="midnightblue" stroke="midnightblue" points="60.62,-114.12 63.79,-124.23 67.61,-114.35 60.62,-114.12"/>
</g>
<!-- Node5 -->
<g id="node5" class="node">
<title>Node5</title>
<g id="a_node5"><a xlink:href="classdss_1_1classic_1_1IDSSProperty.html" target="_top" xlink:title=" ">
<polygon fill="white" stroke="#bfbfbf" points="80,-67.5 80,-86.5 217,-86.5 217,-67.5 80,-67.5"/>
<text text-anchor="middle" x="148.5" y="-74.5" font-family="Helvetica" font-size="10.00">dss::classic::IDSSProperty</text>
</a>
</g>
</g>
<!-- Node2&#45;&gt;Node5 -->
<g id="edge5" class="edge">
<title>Node2&#45;&gt;Node5</title>
<path fill="none" stroke="midnightblue" d="M85.41,-118.82C101.2,-108.61 122,-95.15 135.31,-86.53"/>
<polygon fill="midnightblue" stroke="midnightblue" points="83.28,-116.04 76.78,-124.41 87.08,-121.91 83.28,-116.04"/>
</g>
<!-- Node3 -->
<g id="node3" class="node">
<title>Node3</title>
<g id="a_node3"><a xlink:href="structdss_1_1APIUtil.html" target="_top" xlink:title=" ">
<polygon fill="white" stroke="#bfbfbf" points="28.5,-191.5 28.5,-210.5 98.5,-210.5 98.5,-191.5 28.5,-191.5"/>
<text text-anchor="middle" x="63.5" y="-198.5" font-family="Helvetica" font-size="10.00">dss::APIUtil</text>
</a>
</g>
</g>
<!-- Node3&#45;&gt;Node2 -->
<g id="edge2" class="edge">
<title>Node3&#45;&gt;Node2</title>
<path fill="none" stroke="#9a32cd" stroke-dasharray="5,2" d="M63.5,-181.04C63.5,-168.67 63.5,-153.12 63.5,-143.63"/>
<polygon fill="#9a32cd" stroke="#9a32cd" points="60,-181.23 63.5,-191.23 67,-181.23 60,-181.23"/>
<text text-anchor="middle" x="80.5" y="-165" font-family="Helvetica" font-size="10.00"> api_util</text>
</g>
<!-- Node4 -->
<g id="node4" class="node">
<title>Node4</title>
<g id="a_node4"><a xlink:title=" ">
<polygon fill="white" stroke="#bfbfbf" points="40.5,-313.5 40.5,-332.5 86.5,-332.5 86.5,-313.5 40.5,-313.5"/>
<text text-anchor="middle" x="63.5" y="-320.5" font-family="Helvetica" font-size="10.00">int32_t</text>
</a>
</g>
</g>
<!-- Node4&#45;&gt;Node3 -->
<g id="edge3" class="edge">
<title>Node4&#45;&gt;Node3</title>
<path fill="none" stroke="#9a32cd" stroke-dasharray="5,2" d="M63.5,-303.15C63.5,-276.72 63.5,-229.76 63.5,-210.55"/>
<polygon fill="#9a32cd" stroke="#9a32cd" points="60,-303.37 63.5,-313.37 67,-303.37 60,-303.37"/>
<text text-anchor="middle" x="105" y="-287" font-family="Helvetica" font-size="10.00"> count_PByte</text>
<text text-anchor="middle" x="105" y="-276" font-family="Helvetica" font-size="10.00">count_PDouble</text>
<text text-anchor="middle" x="105" y="-265" font-family="Helvetica" font-size="10.00">count_PInteger</text>
<text text-anchor="middle" x="105" y="-254" font-family="Helvetica" font-size="10.00">count_PPAnsiChar</text>
<text text-anchor="middle" x="105" y="-243" font-family="Helvetica" font-size="10.00">data_PInteger</text>
<text text-anchor="middle" x="105" y="-232" font-family="Helvetica" font-size="10.00">error_ptr</text>
</g>
<!-- Node5&#45;&gt;Node1 -->
<g id="edge4" class="edge">
<title>Node5&#45;&gt;Node1</title>
<path fill="none" stroke="#9a32cd" stroke-dasharray="5,2" d="M129.45,-60.71C113.49,-47.91 91.29,-30.09 78.25,-19.63"/>
<polygon fill="#9a32cd" stroke="#9a32cd" points="127.59,-63.7 137.58,-67.23 131.97,-58.25 127.59,-63.7"/>
<text text-anchor="middle" x="137" y="-41" font-family="Helvetica" font-size="10.00"> Properties</text>
</g>
</g>
</svg>
