<?xml version="1.0" encoding="UTF-8" standalone="no"?>
<!DOCTYPE svg PUBLIC "-//W3C//DTD SVG 1.1//EN"
 "http://www.w3.org/Graphics/SVG/1.1/DTD/svg11.dtd">
<!-- Generated by graphviz version 2.47.2 (20210527.1257)
 -->
<!-- Title: dss::obj::GeneratorBatch Pages: 1 -->
<svg width="191pt" height="274pt"
 viewBox="0.00 0.00 190.50 274.00" xmlns="http://www.w3.org/2000/svg" xmlns:xlink="http://www.w3.org/1999/xlink">
<g id="graph0" class="graph" transform="scale(1 1) rotate(0) translate(4 270)">
<title>dss::obj::GeneratorBatch</title>
<polygon fill="white" stroke="transparent" points="-4,4 -4,-270 186.5,-270 186.5,4 -4,4"/>
<!-- Node1 -->
<g id="node1" class="node">
<title>Node1</title>
<g id="a_node1"><a xlink:title=" ">
<polygon fill="#bfbfbf" stroke="black" points="0,-0.5 0,-19.5 125,-19.5 125,-0.5 0,-0.5"/>
<text text-anchor="middle" x="62.5" y="-7.5" font-family="Helvetica" font-size="10.00">dss::obj::GeneratorBatch</text>
</a>
</g>
</g>
<!-- Node2 -->
<g id="node2" class="node">
<title>Node2</title>
<g id="a_node2"><a xlink:href="classdss_1_1obj_1_1DSSBatch.html" target="_top" xlink:title=" ">
<polygon fill="white" stroke="#bfbfbf" points="10.5,-57.5 10.5,-76.5 114.5,-76.5 114.5,-57.5 10.5,-57.5"/>
<text text-anchor="middle" x="62.5" y="-64.5" font-family="Helvetica" font-size="10.00">dss::obj::DSSBatch</text>
</a>
</g>
</g>
<!-- Node2&#45;&gt;Node1 -->
<g id="edge1" class="edge">
<title>Node2&#45;&gt;Node1</title>
<path fill="none" stroke="midnightblue" d="M62.5,-47.12C62.5,-37.82 62.5,-27.06 62.5,-19.71"/>
<polygon fill="midnightblue" stroke="midnightblue" points="59,-47.41 62.5,-57.41 66,-47.41 59,-47.41"/>
</g>
<!-- Node3 -->
<g id="node3" class="node">
<title>Node3</title>
<g id="a_node3"><a xlink:href="structdss_1_1APIUtil.html" target="_top" xlink:title=" ">
<polygon fill="white" stroke="#bfbfbf" points="80.5,-124.5 80.5,-143.5 150.5,-143.5 150.5,-124.5 80.5,-124.5"/>
<text text-anchor="middle" x="115.5" y="-131.5" font-family="Helvetica" font-size="10.00">dss::APIUtil</text>
</a>
</g>
</g>
<!-- Node3&#45;&gt;Node2 -->
<g id="edge2" class="edge">
<title>Node3&#45;&gt;Node2</title>
<path fill="none" stroke="#9a32cd" stroke-dasharray="5,2" d="M101.86,-116.27C91.53,-103.6 77.75,-86.7 69.53,-76.63"/>
<polygon fill="#9a32cd" stroke="#9a32cd" points="99.32,-118.7 108.35,-124.23 104.75,-114.27 99.32,-118.7"/>
<text text-anchor="middle" x="108.5" y="-98" font-family="Helvetica" font-size="10.00"> api_util</text>
</g>
<!-- Node4 -->
<g id="node4" class="node">
<title>Node4</title>
<g id="a_node4"><a xlink:title=" ">
<polygon fill="white" stroke="#bfbfbf" points="27.5,-246.5 27.5,-265.5 73.5,-265.5 73.5,-246.5 27.5,-246.5"/>
<text text-anchor="middle" x="50.5" y="-253.5" font-family="Helvetica" font-size="10.00">int32_t</text>
</a>
</g>
</g>
<!-- Node4&#45;&gt;Node2 -->
<g id="edge4" class="edge">
<title>Node4&#45;&gt;Node2</title>
<path fill="none" stroke="#9a32cd" stroke-dasharray="5,2" d="M46.97,-236.22C42.73,-210.66 36.97,-163.56 43.5,-124 46.38,-106.58 53.96,-87.29 58.63,-76.5"/>
<polygon fill="#9a32cd" stroke="#9a32cd" points="43.57,-237.11 48.76,-246.35 50.46,-235.89 43.57,-237.11"/>
<text text-anchor="middle" x="57.5" y="-131.5" font-family="Helvetica" font-size="10.00"> count</text>
</g>
<!-- Node4&#45;&gt;Node3 -->
<g id="edge3" class="edge">
<title>Node4&#45;&gt;Node3</title>
<path fill="none" stroke="#9a32cd" stroke-dasharray="5,2" d="M59.95,-237.55C74.11,-211.42 100.27,-163.11 110.87,-143.55"/>
<polygon fill="#9a32cd" stroke="#9a32cd" points="56.86,-235.91 55.17,-246.37 63.02,-239.24 56.86,-235.91"/>
<text text-anchor="middle" x="141" y="-220" font-family="Helvetica" font-size="10.00"> count_PByte</text>
<text text-anchor="middle" x="141" y="-209" font-family="Helvetica" font-size="10.00">count_PDouble</text>
<text text-anchor="middle" x="141" y="-198" font-family="Helvetica" font-size="10.00">count_PInteger</text>
<text text-anchor="middle" x="141" y="-187" font-family="Helvetica" font-size="10.00">count_PPAnsiChar</text>
<text text-anchor="middle" x="141" y="-176" font-family="Helvetica" font-size="10.00">data_PInteger</text>
<text text-anchor="middle" x="141" y="-165" font-family="Helvetica" font-size="10.00">error_ptr</text>
</g>
</g>
</svg>
