<?xml version="1.0" encoding="UTF-8" standalone="no"?>
<!DOCTYPE svg PUBLIC "-//W3C//DTD SVG 1.1//EN"
 "http://www.w3.org/Graphics/SVG/1.1/DTD/svg11.dtd">
<!-- Generated by graphviz version 2.47.2 (20210527.1257)
 -->
<!-- Title: dss::obj::LineBatch Pages: 1 -->
<svg width="180pt" height="274pt"
 viewBox="0.00 0.00 180.00 274.00" xmlns="http://www.w3.org/2000/svg" xmlns:xlink="http://www.w3.org/1999/xlink">
<g id="graph0" class="graph" transform="scale(1 1) rotate(0) translate(4 270)">
<title>dss::obj::LineBatch</title>
<polygon fill="white" stroke="transparent" points="-4,4 -4,-270 176,-270 176,4 -4,4"/>
<!-- Node1 -->
<g id="node1" class="node">
<title>Node1</title>
<g id="a_node1"><a xlink:title=" ">
<polygon fill="#bfbfbf" stroke="black" points="1.5,-0.5 1.5,-19.5 102.5,-19.5 102.5,-0.5 1.5,-0.5"/>
<text text-anchor="middle" x="52" y="-7.5" font-family="Helvetica" font-size="10.00">dss::obj::LineBatch</text>
</a>
</g>
</g>
<!-- Node2 -->
<g id="node2" class="node">
<title>Node2</title>
<g id="a_node2"><a xlink:href="classdss_1_1obj_1_1DSSBatch.html" target="_top" xlink:title=" ">
<polygon fill="white" stroke="#bfbfbf" points="0,-57.5 0,-76.5 104,-76.5 104,-57.5 0,-57.5"/>
<text text-anchor="middle" x="52" y="-64.5" font-family="Helvetica" font-size="10.00">dss::obj::DSSBatch</text>
</a>
</g>
</g>
<!-- Node2&#45;&gt;Node1 -->
<g id="edge1" class="edge">
<title>Node2&#45;&gt;Node1</title>
<path fill="none" stroke="midnightblue" d="M52,-47.12C52,-37.82 52,-27.06 52,-19.71"/>
<polygon fill="midnightblue" stroke="midnightblue" points="48.5,-47.41 52,-57.41 55.5,-47.41 48.5,-47.41"/>
</g>
<!-- Node3 -->
<g id="node3" class="node">
<title>Node3</title>
<g id="a_node3"><a xlink:href="structdss_1_1APIUtil.html" target="_top" xlink:title=" ">
<polygon fill="white" stroke="#bfbfbf" points="70,-124.5 70,-143.5 140,-143.5 140,-124.5 70,-124.5"/>
<text text-anchor="middle" x="105" y="-131.5" font-family="Helvetica" font-size="10.00">dss::APIUtil</text>
</a>
</g>
</g>
<!-- Node3&#45;&gt;Node2 -->
<g id="edge2" class="edge">
<title>Node3&#45;&gt;Node2</title>
<path fill="none" stroke="#9a32cd" stroke-dasharray="5,2" d="M91.36,-116.27C81.03,-103.6 67.25,-86.7 59.03,-76.63"/>
<polygon fill="#9a32cd" stroke="#9a32cd" points="88.82,-118.7 97.85,-124.23 94.25,-114.27 88.82,-118.7"/>
<text text-anchor="middle" x="98" y="-98" font-family="Helvetica" font-size="10.00"> api_util</text>
</g>
<!-- Node4 -->
<g id="node4" class="node">
<title>Node4</title>
<g id="a_node4"><a xlink:title=" ">
<polygon fill="white" stroke="#bfbfbf" points="17,-246.5 17,-265.5 63,-265.5 63,-246.5 17,-246.5"/>
<text text-anchor="middle" x="40" y="-253.5" font-family="Helvetica" font-size="10.00">int32_t</text>
</a>
</g>
</g>
<!-- Node4&#45;&gt;Node2 -->
<g id="edge4" class="edge">
<title>Node4&#45;&gt;Node2</title>
<path fill="none" stroke="#9a32cd" stroke-dasharray="5,2" d="M36.47,-236.22C32.23,-210.66 26.47,-163.56 33,-124 35.88,-106.58 43.46,-87.29 48.13,-76.5"/>
<polygon fill="#9a32cd" stroke="#9a32cd" points="33.07,-237.11 38.26,-246.35 39.96,-235.89 33.07,-237.11"/>
<text text-anchor="middle" x="47" y="-131.5" font-family="Helvetica" font-size="10.00"> count</text>
</g>
<!-- Node4&#45;&gt;Node3 -->
<g id="edge3" class="edge">
<title>Node4&#45;&gt;Node3</title>
<path fill="none" stroke="#9a32cd" stroke-dasharray="5,2" d="M49.45,-237.55C63.61,-211.42 89.77,-163.11 100.37,-143.55"/>
<polygon fill="#9a32cd" stroke="#9a32cd" points="46.36,-235.91 44.67,-246.37 52.52,-239.24 46.36,-235.91"/>
<text text-anchor="middle" x="130.5" y="-220" font-family="Helvetica" font-size="10.00"> count_PByte</text>
<text text-anchor="middle" x="130.5" y="-209" font-family="Helvetica" font-size="10.00">count_PDouble</text>
<text text-anchor="middle" x="130.5" y="-198" font-family="Helvetica" font-size="10.00">count_PInteger</text>
<text text-anchor="middle" x="130.5" y="-187" font-family="Helvetica" font-size="10.00">count_PPAnsiChar</text>
<text text-anchor="middle" x="130.5" y="-176" font-family="Helvetica" font-size="10.00">data_PInteger</text>
<text text-anchor="middle" x="130.5" y="-165" font-family="Helvetica" font-size="10.00">error_ptr</text>
</g>
</g>
</svg>
