<?xml version="1.0" encoding="UTF-8" standalone="no"?>
<!DOCTYPE svg PUBLIC "-//W3C//DTD SVG 1.1//EN"
 "http://www.w3.org/Graphics/SVG/1.1/DTD/svg11.dtd">
<!-- Generated by graphviz version 2.47.2 (20210527.1257)
 -->
<!-- Title: dss::ContextState Pages: 1 -->
<svg width="139pt" height="217pt"
 viewBox="0.00 0.00 139.00 217.00" xmlns="http://www.w3.org/2000/svg" xmlns:xlink="http://www.w3.org/1999/xlink">
<g id="graph0" class="graph" transform="scale(1 1) rotate(0) translate(4 213)">
<title>dss::ContextState</title>
<polygon fill="white" stroke="transparent" points="-4,4 -4,-213 135,-213 135,4 -4,4"/>
<!-- Node1 -->
<g id="node1" class="node">
<title>Node1</title>
<g id="a_node1"><a xlink:title="Wraps common DSSContext state data.">
<polygon fill="#bfbfbf" stroke="black" points="0,-0.5 0,-19.5 96,-19.5 96,-0.5 0,-0.5"/>
<text text-anchor="middle" x="48" y="-7.5" font-family="Helvetica" font-size="10.00">dss::ContextState</text>
</a>
</g>
</g>
<!-- Node2 -->
<g id="node2" class="node">
<title>Node2</title>
<g id="a_node2"><a xlink:href="structdss_1_1APIUtil.html" target="_top" xlink:title=" ">
<polygon fill="white" stroke="#bfbfbf" points="13,-67.5 13,-86.5 83,-86.5 83,-67.5 13,-67.5"/>
<text text-anchor="middle" x="48" y="-74.5" font-family="Helvetica" font-size="10.00">dss::APIUtil</text>
</a>
</g>
</g>
<!-- Node2&#45;&gt;Node1 -->
<g id="edge1" class="edge">
<title>Node2&#45;&gt;Node1</title>
<path fill="none" stroke="#9a32cd" stroke-dasharray="5,2" d="M48,-57.04C48,-44.67 48,-29.12 48,-19.63"/>
<polygon fill="#9a32cd" stroke="#9a32cd" points="44.5,-57.23 48,-67.23 51.5,-57.23 44.5,-57.23"/>
<text text-anchor="middle" x="65" y="-41" font-family="Helvetica" font-size="10.00"> api_util</text>
</g>
<!-- Node3 -->
<g id="node3" class="node">
<title>Node3</title>
<g id="a_node3"><a xlink:title=" ">
<polygon fill="white" stroke="#bfbfbf" points="25,-189.5 25,-208.5 71,-208.5 71,-189.5 25,-189.5"/>
<text text-anchor="middle" x="48" y="-196.5" font-family="Helvetica" font-size="10.00">int32_t</text>
</a>
</g>
</g>
<!-- Node3&#45;&gt;Node2 -->
<g id="edge2" class="edge">
<title>Node3&#45;&gt;Node2</title>
<path fill="none" stroke="#9a32cd" stroke-dasharray="5,2" d="M48,-179.15C48,-152.72 48,-105.76 48,-86.55"/>
<polygon fill="#9a32cd" stroke="#9a32cd" points="44.5,-179.37 48,-189.37 51.5,-179.37 44.5,-179.37"/>
<text text-anchor="middle" x="89.5" y="-163" font-family="Helvetica" font-size="10.00"> count_PByte</text>
<text text-anchor="middle" x="89.5" y="-152" font-family="Helvetica" font-size="10.00">count_PDouble</text>
<text text-anchor="middle" x="89.5" y="-141" font-family="Helvetica" font-size="10.00">count_PInteger</text>
<text text-anchor="middle" x="89.5" y="-130" font-family="Helvetica" font-size="10.00">count_PPAnsiChar</text>
<text text-anchor="middle" x="89.5" y="-119" font-family="Helvetica" font-size="10.00">data_PInteger</text>
<text text-anchor="middle" x="89.5" y="-108" font-family="Helvetica" font-size="10.00">error_ptr</text>
</g>
</g>
</svg>
