<?xml version="1.0" encoding="UTF-8" standalone="no"?>
<!DOCTYPE svg PUBLIC "-//W3C//DTD SVG 1.1//EN"
 "http://www.w3.org/Graphics/SVG/1.1/DTD/svg11.dtd">
<!-- Generated by graphviz version 2.47.2 (20210527.1257)
 -->
<!-- Title: dss::obj::TShape Pages: 1 -->
<svg width="168pt" height="274pt"
 viewBox="0.00 0.00 167.50 274.00" xmlns="http://www.w3.org/2000/svg" xmlns:xlink="http://www.w3.org/1999/xlink">
<g id="graph0" class="graph" transform="scale(1 1) rotate(0) translate(4 270)">
<title>dss::obj::TShape</title>
<polygon fill="white" stroke="transparent" points="-4,4 -4,-270 163.5,-270 163.5,4 -4,4"/>
<!-- Node1 -->
<g id="node1" class="node">
<title>Node1</title>
<g id="a_node1"><a xlink:title=" ">
<polygon fill="#bfbfbf" stroke="black" points="0,-0.5 0,-19.5 91,-19.5 91,-0.5 0,-0.5"/>
<text text-anchor="middle" x="45.5" y="-7.5" font-family="Helvetica" font-size="10.00">dss::obj::TShape</text>
</a>
</g>
</g>
<!-- Node2 -->
<g id="node2" class="node">
<title>Node2</title>
<g id="a_node2"><a xlink:href="classdss_1_1obj_1_1DSSObj.html" target="_top" xlink:title=" ">
<polygon fill="white" stroke="#bfbfbf" points="50,-57.5 50,-76.5 143,-76.5 143,-57.5 50,-57.5"/>
<text text-anchor="middle" x="96.5" y="-64.5" font-family="Helvetica" font-size="10.00">dss::obj::DSSObj</text>
</a>
</g>
</g>
<!-- Node2&#45;&gt;Node1 -->
<g id="edge1" class="edge">
<title>Node2&#45;&gt;Node1</title>
<path fill="none" stroke="midnightblue" d="M81.5,-49.83C72.37,-39.98 61.06,-27.78 53.58,-19.71"/>
<polygon fill="midnightblue" stroke="midnightblue" points="79.17,-52.45 88.53,-57.41 84.3,-47.69 79.17,-52.45"/>
</g>
<!-- Node3 -->
<g id="node3" class="node">
<title>Node3</title>
<g id="a_node3"><a xlink:href="structdss_1_1APIUtil.html" target="_top" xlink:title=" ">
<polygon fill="white" stroke="#bfbfbf" points="55.5,-124.5 55.5,-143.5 125.5,-143.5 125.5,-124.5 55.5,-124.5"/>
<text text-anchor="middle" x="90.5" y="-131.5" font-family="Helvetica" font-size="10.00">dss::APIUtil</text>
</a>
</g>
</g>
<!-- Node3&#45;&gt;Node2 -->
<g id="edge2" class="edge">
<title>Node3&#45;&gt;Node2</title>
<path fill="none" stroke="#9a32cd" stroke-dasharray="5,2" d="M92.25,-114.04C93.39,-101.67 94.83,-86.12 95.7,-76.63"/>
<polygon fill="#9a32cd" stroke="#9a32cd" points="88.74,-113.95 91.31,-124.23 95.71,-114.6 88.74,-113.95"/>
<text text-anchor="middle" x="110.5" y="-98" font-family="Helvetica" font-size="10.00"> api_util</text>
</g>
<!-- Node4 -->
<g id="node4" class="node">
<title>Node4</title>
<g id="a_node4"><a xlink:title=" ">
<polygon fill="white" stroke="#bfbfbf" points="13.5,-246.5 13.5,-265.5 59.5,-265.5 59.5,-246.5 13.5,-246.5"/>
<text text-anchor="middle" x="36.5" y="-253.5" font-family="Helvetica" font-size="10.00">int32_t</text>
</a>
</g>
</g>
<!-- Node4&#45;&gt;Node1 -->
<g id="edge4" class="edge">
<title>Node4&#45;&gt;Node1</title>
<path fill="none" stroke="#9a32cd" stroke-dasharray="5,2" d="M35.05,-236.07C33,-206.09 29.88,-145.89 33.5,-95 35.46,-67.37 41.01,-35.02 43.83,-19.78"/>
<polygon fill="#9a32cd" stroke="#9a32cd" points="31.58,-236.59 35.79,-246.31 38.56,-236.09 31.58,-236.59"/>
<text text-anchor="middle" x="61" y="-98" font-family="Helvetica" font-size="10.00"> dss_cls_idx</text>
</g>
<!-- Node4&#45;&gt;Node3 -->
<g id="edge3" class="edge">
<title>Node4&#45;&gt;Node3</title>
<path fill="none" stroke="#9a32cd" stroke-dasharray="5,2" d="M44.51,-237.2C56.3,-210.99 77.89,-163.02 86.65,-143.55"/>
<polygon fill="#9a32cd" stroke="#9a32cd" points="41.3,-235.81 40.38,-246.37 47.68,-238.69 41.3,-235.81"/>
<text text-anchor="middle" x="118" y="-220" font-family="Helvetica" font-size="10.00"> count_PByte</text>
<text text-anchor="middle" x="118" y="-209" font-family="Helvetica" font-size="10.00">count_PDouble</text>
<text text-anchor="middle" x="118" y="-198" font-family="Helvetica" font-size="10.00">count_PInteger</text>
<text text-anchor="middle" x="118" y="-187" font-family="Helvetica" font-size="10.00">count_PPAnsiChar</text>
<text text-anchor="middle" x="118" y="-176" font-family="Helvetica" font-size="10.00">data_PInteger</text>
<text text-anchor="middle" x="118" y="-165" font-family="Helvetica" font-size="10.00">error_ptr</text>
</g>
</g>
</svg>
