<?xml version="1.0" encoding="UTF-8" standalone="no"?>
<!DOCTYPE svg PUBLIC "-//W3C//DTD SVG 1.1//EN"
 "http://www.w3.org/Graphics/SVG/1.1/DTD/svg11.dtd">
<!-- Generated by graphviz version 2.47.2 (20210527.1257)
 -->
<!-- Title: dss::classic::IDSSProperty Pages: 1 -->
<svg width="160pt" height="274pt"
 viewBox="0.00 0.00 159.50 274.00" xmlns="http://www.w3.org/2000/svg" xmlns:xlink="http://www.w3.org/1999/xlink">
<g id="graph0" class="graph" transform="scale(1 1) rotate(0) translate(4 270)">
<title>dss::classic::IDSSProperty</title>
<polygon fill="white" stroke="transparent" points="-4,4 -4,-270 155.5,-270 155.5,4 -4,4"/>
<!-- Node1 -->
<g id="node1" class="node">
<title>Node1</title>
<g id="a_node1"><a xlink:title=" ">
<polygon fill="#bfbfbf" stroke="black" points="0,-0.5 0,-19.5 137,-19.5 137,-0.5 0,-0.5"/>
<text text-anchor="middle" x="68.5" y="-7.5" font-family="Helvetica" font-size="10.00">dss::classic::IDSSProperty</text>
</a>
</g>
</g>
<!-- Node2 -->
<g id="node2" class="node">
<title>Node2</title>
<g id="a_node2"><a xlink:href="classdss_1_1ContextState.html" target="_top" xlink:title="Wraps common DSSContext state data.">
<polygon fill="white" stroke="black" points="20.5,-57.5 20.5,-76.5 116.5,-76.5 116.5,-57.5 20.5,-57.5"/>
<text text-anchor="middle" x="68.5" y="-64.5" font-family="Helvetica" font-size="10.00">dss::ContextState</text>
</a>
</g>
</g>
<!-- Node2&#45;&gt;Node1 -->
<g id="edge1" class="edge">
<title>Node2&#45;&gt;Node1</title>
<path fill="none" stroke="midnightblue" d="M68.5,-47.12C68.5,-37.82 68.5,-27.06 68.5,-19.71"/>
<polygon fill="midnightblue" stroke="midnightblue" points="65,-47.41 68.5,-57.41 72,-47.41 65,-47.41"/>
</g>
<!-- Node3 -->
<g id="node3" class="node">
<title>Node3</title>
<g id="a_node3"><a xlink:href="structdss_1_1APIUtil.html" target="_top" xlink:title=" ">
<polygon fill="white" stroke="#bfbfbf" points="33.5,-124.5 33.5,-143.5 103.5,-143.5 103.5,-124.5 33.5,-124.5"/>
<text text-anchor="middle" x="68.5" y="-131.5" font-family="Helvetica" font-size="10.00">dss::APIUtil</text>
</a>
</g>
</g>
<!-- Node3&#45;&gt;Node2 -->
<g id="edge2" class="edge">
<title>Node3&#45;&gt;Node2</title>
<path fill="none" stroke="#9a32cd" stroke-dasharray="5,2" d="M68.5,-114.04C68.5,-101.67 68.5,-86.12 68.5,-76.63"/>
<polygon fill="#9a32cd" stroke="#9a32cd" points="65,-114.23 68.5,-124.23 72,-114.23 65,-114.23"/>
<text text-anchor="middle" x="85.5" y="-98" font-family="Helvetica" font-size="10.00"> api_util</text>
</g>
<!-- Node4 -->
<g id="node4" class="node">
<title>Node4</title>
<g id="a_node4"><a xlink:title=" ">
<polygon fill="white" stroke="#bfbfbf" points="45.5,-246.5 45.5,-265.5 91.5,-265.5 91.5,-246.5 45.5,-246.5"/>
<text text-anchor="middle" x="68.5" y="-253.5" font-family="Helvetica" font-size="10.00">int32_t</text>
</a>
</g>
</g>
<!-- Node4&#45;&gt;Node3 -->
<g id="edge3" class="edge">
<title>Node4&#45;&gt;Node3</title>
<path fill="none" stroke="#9a32cd" stroke-dasharray="5,2" d="M68.5,-236.15C68.5,-209.72 68.5,-162.76 68.5,-143.55"/>
<polygon fill="#9a32cd" stroke="#9a32cd" points="65,-236.37 68.5,-246.37 72,-236.37 65,-236.37"/>
<text text-anchor="middle" x="110" y="-220" font-family="Helvetica" font-size="10.00"> count_PByte</text>
<text text-anchor="middle" x="110" y="-209" font-family="Helvetica" font-size="10.00">count_PDouble</text>
<text text-anchor="middle" x="110" y="-198" font-family="Helvetica" font-size="10.00">count_PInteger</text>
<text text-anchor="middle" x="110" y="-187" font-family="Helvetica" font-size="10.00">count_PPAnsiChar</text>
<text text-anchor="middle" x="110" y="-176" font-family="Helvetica" font-size="10.00">data_PInteger</text>
<text text-anchor="middle" x="110" y="-165" font-family="Helvetica" font-size="10.00">error_ptr</text>
</g>
</g>
</svg>
