<?xml version="1.0" encoding="UTF-8" standalone="no"?>
<!DOCTYPE svg PUBLIC "-//W3C//DTD SVG 1.1//EN"
 "http://www.w3.org/Graphics/SVG/1.1/DTD/svg11.dtd">
<!-- Generated by graphviz version 2.47.2 (20210527.1257)
 -->
<!-- Title: dss::obj::AutoTransBatch Pages: 1 -->
<svg width="191pt" height="274pt"
 viewBox="0.00 0.00 191.00 274.00" xmlns="http://www.w3.org/2000/svg" xmlns:xlink="http://www.w3.org/1999/xlink">
<g id="graph0" class="graph" transform="scale(1 1) rotate(0) translate(4 270)">
<title>dss::obj::AutoTransBatch</title>
<polygon fill="white" stroke="transparent" points="-4,4 -4,-270 187,-270 187,4 -4,4"/>
<!-- Node1 -->
<g id="node1" class="node">
<title>Node1</title>
<g id="a_node1"><a xlink:title=" ">
<polygon fill="#bfbfbf" stroke="black" points="0,-0.5 0,-19.5 126,-19.5 126,-0.5 0,-0.5"/>
<text text-anchor="middle" x="63" y="-7.5" font-family="Helvetica" font-size="10.00">dss::obj::AutoTransBatch</text>
</a>
</g>
</g>
<!-- Node2 -->
<g id="node2" class="node">
<title>Node2</title>
<g id="a_node2"><a xlink:href="classdss_1_1obj_1_1DSSBatch.html" target="_top" xlink:title=" ">
<polygon fill="white" stroke="#bfbfbf" points="11,-57.5 11,-76.5 115,-76.5 115,-57.5 11,-57.5"/>
<text text-anchor="middle" x="63" y="-64.5" font-family="Helvetica" font-size="10.00">dss::obj::DSSBatch</text>
</a>
</g>
</g>
<!-- Node2&#45;&gt;Node1 -->
<g id="edge1" class="edge">
<title>Node2&#45;&gt;Node1</title>
<path fill="none" stroke="midnightblue" d="M63,-47.12C63,-37.82 63,-27.06 63,-19.71"/>
<polygon fill="midnightblue" stroke="midnightblue" points="59.5,-47.41 63,-57.41 66.5,-47.41 59.5,-47.41"/>
</g>
<!-- Node3 -->
<g id="node3" class="node">
<title>Node3</title>
<g id="a_node3"><a xlink:href="structdss_1_1APIUtil.html" target="_top" xlink:title=" ">
<polygon fill="white" stroke="#bfbfbf" points="81,-124.5 81,-143.5 151,-143.5 151,-124.5 81,-124.5"/>
<text text-anchor="middle" x="116" y="-131.5" font-family="Helvetica" font-size="10.00">dss::APIUtil</text>
</a>
</g>
</g>
<!-- Node3&#45;&gt;Node2 -->
<g id="edge2" class="edge">
<title>Node3&#45;&gt;Node2</title>
<path fill="none" stroke="#9a32cd" stroke-dasharray="5,2" d="M102.36,-116.27C92.03,-103.6 78.25,-86.7 70.03,-76.63"/>
<polygon fill="#9a32cd" stroke="#9a32cd" points="99.82,-118.7 108.85,-124.23 105.25,-114.27 99.82,-118.7"/>
<text text-anchor="middle" x="109" y="-98" font-family="Helvetica" font-size="10.00"> api_util</text>
</g>
<!-- Node4 -->
<g id="node4" class="node">
<title>Node4</title>
<g id="a_node4"><a xlink:title=" ">
<polygon fill="white" stroke="#bfbfbf" points="28,-246.5 28,-265.5 74,-265.5 74,-246.5 28,-246.5"/>
<text text-anchor="middle" x="51" y="-253.5" font-family="Helvetica" font-size="10.00">int32_t</text>
</a>
</g>
</g>
<!-- Node4&#45;&gt;Node2 -->
<g id="edge4" class="edge">
<title>Node4&#45;&gt;Node2</title>
<path fill="none" stroke="#9a32cd" stroke-dasharray="5,2" d="M47.47,-236.22C43.23,-210.66 37.47,-163.56 44,-124 46.88,-106.58 54.46,-87.29 59.13,-76.5"/>
<polygon fill="#9a32cd" stroke="#9a32cd" points="44.07,-237.11 49.26,-246.35 50.96,-235.89 44.07,-237.11"/>
<text text-anchor="middle" x="58" y="-131.5" font-family="Helvetica" font-size="10.00"> count</text>
</g>
<!-- Node4&#45;&gt;Node3 -->
<g id="edge3" class="edge">
<title>Node4&#45;&gt;Node3</title>
<path fill="none" stroke="#9a32cd" stroke-dasharray="5,2" d="M60.45,-237.55C74.61,-211.42 100.77,-163.11 111.37,-143.55"/>
<polygon fill="#9a32cd" stroke="#9a32cd" points="57.36,-235.91 55.67,-246.37 63.52,-239.24 57.36,-235.91"/>
<text text-anchor="middle" x="141.5" y="-220" font-family="Helvetica" font-size="10.00"> count_PByte</text>
<text text-anchor="middle" x="141.5" y="-209" font-family="Helvetica" font-size="10.00">count_PDouble</text>
<text text-anchor="middle" x="141.5" y="-198" font-family="Helvetica" font-size="10.00">count_PInteger</text>
<text text-anchor="middle" x="141.5" y="-187" font-family="Helvetica" font-size="10.00">count_PPAnsiChar</text>
<text text-anchor="middle" x="141.5" y="-176" font-family="Helvetica" font-size="10.00">data_PInteger</text>
<text text-anchor="middle" x="141.5" y="-165" font-family="Helvetica" font-size="10.00">error_ptr</text>
</g>
</g>
</svg>
