<?xml version="1.0" encoding="UTF-8" standalone="no"?>
<!DOCTYPE svg PUBLIC "-//W3C//DTD SVG 1.1//EN"
 "http://www.w3.org/Graphics/SVG/1.1/DTD/svg11.dtd">
<!-- Generated by graphviz version 2.47.2 (20210527.1257)
 -->
<!-- Title: dss::classic::IDSS_Executive Pages: 1 -->
<svg width="141pt" height="285pt"
 viewBox="0.00 0.00 140.50 285.00" xmlns="http://www.w3.org/2000/svg" xmlns:xlink="http://www.w3.org/1999/xlink">
<g id="graph0" class="graph" transform="scale(1 1) rotate(0) translate(4 281)">
<title>dss::classic::IDSS_Executive</title>
<polygon fill="white" stroke="transparent" points="-4,4 -4,-281 136.5,-281 136.5,4 -4,4"/>
<!-- Node1 -->
<g id="node1" class="node">
<title>Node1</title>
<g id="a_node1"><a xlink:title=" ">
<polygon fill="#bfbfbf" stroke="black" points="0,-0.5 0,-30.5 99,-30.5 99,-0.5 0,-0.5"/>
<text text-anchor="start" x="8" y="-18.5" font-family="Helvetica" font-size="10.00">dss::classic::IDSS</text>
<text text-anchor="middle" x="49.5" y="-7.5" font-family="Helvetica" font-size="10.00">_Executive</text>
</a>
</g>
</g>
<!-- Node2 -->
<g id="node2" class="node">
<title>Node2</title>
<g id="a_node2"><a xlink:href="classdss_1_1ContextState.html" target="_top" xlink:title="Wraps common DSSContext state data.">
<polygon fill="white" stroke="black" points="1.5,-68.5 1.5,-87.5 97.5,-87.5 97.5,-68.5 1.5,-68.5"/>
<text text-anchor="middle" x="49.5" y="-75.5" font-family="Helvetica" font-size="10.00">dss::ContextState</text>
</a>
</g>
</g>
<!-- Node2&#45;&gt;Node1 -->
<g id="edge1" class="edge">
<title>Node2&#45;&gt;Node1</title>
<path fill="none" stroke="midnightblue" d="M49.5,-58.22C49.5,-49.36 49.5,-38.96 49.5,-30.76"/>
<polygon fill="midnightblue" stroke="midnightblue" points="46,-58.33 49.5,-68.33 53,-58.33 46,-58.33"/>
</g>
<!-- Node3 -->
<g id="node3" class="node">
<title>Node3</title>
<g id="a_node3"><a xlink:href="structdss_1_1APIUtil.html" target="_top" xlink:title=" ">
<polygon fill="white" stroke="#bfbfbf" points="14.5,-135.5 14.5,-154.5 84.5,-154.5 84.5,-135.5 14.5,-135.5"/>
<text text-anchor="middle" x="49.5" y="-142.5" font-family="Helvetica" font-size="10.00">dss::APIUtil</text>
</a>
</g>
</g>
<!-- Node3&#45;&gt;Node2 -->
<g id="edge2" class="edge">
<title>Node3&#45;&gt;Node2</title>
<path fill="none" stroke="#9a32cd" stroke-dasharray="5,2" d="M49.5,-125.04C49.5,-112.67 49.5,-97.12 49.5,-87.63"/>
<polygon fill="#9a32cd" stroke="#9a32cd" points="46,-125.23 49.5,-135.23 53,-125.23 46,-125.23"/>
<text text-anchor="middle" x="66.5" y="-109" font-family="Helvetica" font-size="10.00"> api_util</text>
</g>
<!-- Node4 -->
<g id="node4" class="node">
<title>Node4</title>
<g id="a_node4"><a xlink:title=" ">
<polygon fill="white" stroke="#bfbfbf" points="26.5,-257.5 26.5,-276.5 72.5,-276.5 72.5,-257.5 26.5,-257.5"/>
<text text-anchor="middle" x="49.5" y="-264.5" font-family="Helvetica" font-size="10.00">int32_t</text>
</a>
</g>
</g>
<!-- Node4&#45;&gt;Node3 -->
<g id="edge3" class="edge">
<title>Node4&#45;&gt;Node3</title>
<path fill="none" stroke="#9a32cd" stroke-dasharray="5,2" d="M49.5,-247.15C49.5,-220.72 49.5,-173.76 49.5,-154.55"/>
<polygon fill="#9a32cd" stroke="#9a32cd" points="46,-247.37 49.5,-257.37 53,-247.37 46,-247.37"/>
<text text-anchor="middle" x="91" y="-231" font-family="Helvetica" font-size="10.00"> count_PByte</text>
<text text-anchor="middle" x="91" y="-220" font-family="Helvetica" font-size="10.00">count_PDouble</text>
<text text-anchor="middle" x="91" y="-209" font-family="Helvetica" font-size="10.00">count_PInteger</text>
<text text-anchor="middle" x="91" y="-198" font-family="Helvetica" font-size="10.00">count_PPAnsiChar</text>
<text text-anchor="middle" x="91" y="-187" font-family="Helvetica" font-size="10.00">data_PInteger</text>
<text text-anchor="middle" x="91" y="-176" font-family="Helvetica" font-size="10.00">error_ptr</text>
</g>
</g>
</svg>
