<?xml version="1.0" encoding="UTF-8" standalone="no"?>
<!DOCTYPE svg PUBLIC "-//W3C//DTD SVG 1.1//EN"
 "http://www.w3.org/Graphics/SVG/1.1/DTD/svg11.dtd">
<!-- Generated by graphviz version 2.47.2 (20210527.1257)
 -->
<!-- Title: dss::obj::DSSBatch Pages: 1 -->
<svg width="180pt" height="217pt"
 viewBox="0.00 0.00 180.00 217.00" xmlns="http://www.w3.org/2000/svg" xmlns:xlink="http://www.w3.org/1999/xlink">
<g id="graph0" class="graph" transform="scale(1 1) rotate(0) translate(4 213)">
<title>dss::obj::DSSBatch</title>
<polygon fill="white" stroke="transparent" points="-4,4 -4,-213 176,-213 176,4 -4,4"/>
<!-- Node1 -->
<g id="node1" class="node">
<title>Node1</title>
<g id="a_node1"><a xlink:title=" ">
<polygon fill="#bfbfbf" stroke="black" points="0,-0.5 0,-19.5 104,-19.5 104,-0.5 0,-0.5"/>
<text text-anchor="middle" x="52" y="-7.5" font-family="Helvetica" font-size="10.00">dss::obj::DSSBatch</text>
</a>
</g>
</g>
<!-- Node2 -->
<g id="node2" class="node">
<title>Node2</title>
<g id="a_node2"><a xlink:href="structdss_1_1APIUtil.html" target="_top" xlink:title=" ">
<polygon fill="white" stroke="#bfbfbf" points="70,-67.5 70,-86.5 140,-86.5 140,-67.5 70,-67.5"/>
<text text-anchor="middle" x="105" y="-74.5" font-family="Helvetica" font-size="10.00">dss::APIUtil</text>
</a>
</g>
</g>
<!-- Node2&#45;&gt;Node1 -->
<g id="edge1" class="edge">
<title>Node2&#45;&gt;Node1</title>
<path fill="none" stroke="#9a32cd" stroke-dasharray="5,2" d="M91.36,-59.27C81.03,-46.6 67.25,-29.7 59.03,-19.63"/>
<polygon fill="#9a32cd" stroke="#9a32cd" points="88.82,-61.7 97.85,-67.23 94.25,-57.27 88.82,-61.7"/>
<text text-anchor="middle" x="98" y="-41" font-family="Helvetica" font-size="10.00"> api_util</text>
</g>
<!-- Node3 -->
<g id="node3" class="node">
<title>Node3</title>
<g id="a_node3"><a xlink:title=" ">
<polygon fill="white" stroke="#bfbfbf" points="17,-189.5 17,-208.5 63,-208.5 63,-189.5 17,-189.5"/>
<text text-anchor="middle" x="40" y="-196.5" font-family="Helvetica" font-size="10.00">int32_t</text>
</a>
</g>
</g>
<!-- Node3&#45;&gt;Node1 -->
<g id="edge3" class="edge">
<title>Node3&#45;&gt;Node1</title>
<path fill="none" stroke="#9a32cd" stroke-dasharray="5,2" d="M36.47,-179.22C32.23,-153.66 26.47,-106.56 33,-67 35.88,-49.58 43.46,-30.29 48.13,-19.5"/>
<polygon fill="#9a32cd" stroke="#9a32cd" points="33.07,-180.11 38.26,-189.35 39.96,-178.89 33.07,-180.11"/>
<text text-anchor="middle" x="47" y="-74.5" font-family="Helvetica" font-size="10.00"> count</text>
</g>
<!-- Node3&#45;&gt;Node2 -->
<g id="edge2" class="edge">
<title>Node3&#45;&gt;Node2</title>
<path fill="none" stroke="#9a32cd" stroke-dasharray="5,2" d="M49.45,-180.55C63.61,-154.42 89.77,-106.11 100.37,-86.55"/>
<polygon fill="#9a32cd" stroke="#9a32cd" points="46.36,-178.91 44.67,-189.37 52.52,-182.24 46.36,-178.91"/>
<text text-anchor="middle" x="130.5" y="-163" font-family="Helvetica" font-size="10.00"> count_PByte</text>
<text text-anchor="middle" x="130.5" y="-152" font-family="Helvetica" font-size="10.00">count_PDouble</text>
<text text-anchor="middle" x="130.5" y="-141" font-family="Helvetica" font-size="10.00">count_PInteger</text>
<text text-anchor="middle" x="130.5" y="-130" font-family="Helvetica" font-size="10.00">count_PPAnsiChar</text>
<text text-anchor="middle" x="130.5" y="-119" font-family="Helvetica" font-size="10.00">data_PInteger</text>
<text text-anchor="middle" x="130.5" y="-108" font-family="Helvetica" font-size="10.00">error_ptr</text>
</g>
</g>
</svg>
