<?xml version="1.0" encoding="UTF-8" standalone="no"?>
<!DOCTYPE svg PUBLIC "-//W3C//DTD SVG 1.1//EN"
 "http://www.w3.org/Graphics/SVG/1.1/DTD/svg11.dtd">
<!-- Generated by graphviz version 2.47.2 (20210527.1257)
 -->
<!-- Title: dss::obj::IndMach012Batch Pages: 1 -->
<svg width="196pt" height="274pt"
 viewBox="0.00 0.00 196.00 274.00" xmlns="http://www.w3.org/2000/svg" xmlns:xlink="http://www.w3.org/1999/xlink">
<g id="graph0" class="graph" transform="scale(1 1) rotate(0) translate(4 270)">
<title>dss::obj::IndMach012Batch</title>
<polygon fill="white" stroke="transparent" points="-4,4 -4,-270 192,-270 192,4 -4,4"/>
<!-- Node1 -->
<g id="node1" class="node">
<title>Node1</title>
<g id="a_node1"><a xlink:title=" ">
<polygon fill="#bfbfbf" stroke="black" points="0,-0.5 0,-19.5 136,-19.5 136,-0.5 0,-0.5"/>
<text text-anchor="middle" x="68" y="-7.5" font-family="Helvetica" font-size="10.00">dss::obj::IndMach012Batch</text>
</a>
</g>
</g>
<!-- Node2 -->
<g id="node2" class="node">
<title>Node2</title>
<g id="a_node2"><a xlink:href="classdss_1_1obj_1_1DSSBatch.html" target="_top" xlink:title=" ">
<polygon fill="white" stroke="#bfbfbf" points="16,-57.5 16,-76.5 120,-76.5 120,-57.5 16,-57.5"/>
<text text-anchor="middle" x="68" y="-64.5" font-family="Helvetica" font-size="10.00">dss::obj::DSSBatch</text>
</a>
</g>
</g>
<!-- Node2&#45;&gt;Node1 -->
<g id="edge1" class="edge">
<title>Node2&#45;&gt;Node1</title>
<path fill="none" stroke="midnightblue" d="M68,-47.12C68,-37.82 68,-27.06 68,-19.71"/>
<polygon fill="midnightblue" stroke="midnightblue" points="64.5,-47.41 68,-57.41 71.5,-47.41 64.5,-47.41"/>
</g>
<!-- Node3 -->
<g id="node3" class="node">
<title>Node3</title>
<g id="a_node3"><a xlink:href="structdss_1_1APIUtil.html" target="_top" xlink:title=" ">
<polygon fill="white" stroke="#bfbfbf" points="86,-124.5 86,-143.5 156,-143.5 156,-124.5 86,-124.5"/>
<text text-anchor="middle" x="121" y="-131.5" font-family="Helvetica" font-size="10.00">dss::APIUtil</text>
</a>
</g>
</g>
<!-- Node3&#45;&gt;Node2 -->
<g id="edge2" class="edge">
<title>Node3&#45;&gt;Node2</title>
<path fill="none" stroke="#9a32cd" stroke-dasharray="5,2" d="M107.36,-116.27C97.03,-103.6 83.25,-86.7 75.03,-76.63"/>
<polygon fill="#9a32cd" stroke="#9a32cd" points="104.82,-118.7 113.85,-124.23 110.25,-114.27 104.82,-118.7"/>
<text text-anchor="middle" x="114" y="-98" font-family="Helvetica" font-size="10.00"> api_util</text>
</g>
<!-- Node4 -->
<g id="node4" class="node">
<title>Node4</title>
<g id="a_node4"><a xlink:title=" ">
<polygon fill="white" stroke="#bfbfbf" points="33,-246.5 33,-265.5 79,-265.5 79,-246.5 33,-246.5"/>
<text text-anchor="middle" x="56" y="-253.5" font-family="Helvetica" font-size="10.00">int32_t</text>
</a>
</g>
</g>
<!-- Node4&#45;&gt;Node2 -->
<g id="edge4" class="edge">
<title>Node4&#45;&gt;Node2</title>
<path fill="none" stroke="#9a32cd" stroke-dasharray="5,2" d="M52.47,-236.22C48.23,-210.66 42.47,-163.56 49,-124 51.88,-106.58 59.46,-87.29 64.13,-76.5"/>
<polygon fill="#9a32cd" stroke="#9a32cd" points="49.07,-237.11 54.26,-246.35 55.96,-235.89 49.07,-237.11"/>
<text text-anchor="middle" x="63" y="-131.5" font-family="Helvetica" font-size="10.00"> count</text>
</g>
<!-- Node4&#45;&gt;Node3 -->
<g id="edge3" class="edge">
<title>Node4&#45;&gt;Node3</title>
<path fill="none" stroke="#9a32cd" stroke-dasharray="5,2" d="M65.45,-237.55C79.61,-211.42 105.77,-163.11 116.37,-143.55"/>
<polygon fill="#9a32cd" stroke="#9a32cd" points="62.36,-235.91 60.67,-246.37 68.52,-239.24 62.36,-235.91"/>
<text text-anchor="middle" x="146.5" y="-220" font-family="Helvetica" font-size="10.00"> count_PByte</text>
<text text-anchor="middle" x="146.5" y="-209" font-family="Helvetica" font-size="10.00">count_PDouble</text>
<text text-anchor="middle" x="146.5" y="-198" font-family="Helvetica" font-size="10.00">count_PInteger</text>
<text text-anchor="middle" x="146.5" y="-187" font-family="Helvetica" font-size="10.00">count_PPAnsiChar</text>
<text text-anchor="middle" x="146.5" y="-176" font-family="Helvetica" font-size="10.00">data_PInteger</text>
<text text-anchor="middle" x="146.5" y="-165" font-family="Helvetica" font-size="10.00">error_ptr</text>
</g>
</g>
</svg>
