<?xml version="1.0" encoding="UTF-8" standalone="no"?>
<!DOCTYPE svg PUBLIC "-//W3C//DTD SVG 1.1//EN"
 "http://www.w3.org/Graphics/SVG/1.1/DTD/svg11.dtd">
<!-- Generated by graphviz version 2.47.2 (20210527.1257)
 -->
<!-- Title: dss::classic::ICktElement Pages: 1 -->
<svg width="223pt" height="341pt"
 viewBox="0.00 0.00 222.50 341.00" xmlns="http://www.w3.org/2000/svg" xmlns:xlink="http://www.w3.org/1999/xlink">
<g id="graph0" class="graph" transform="scale(1 1) rotate(0) translate(4 337)">
<title>dss::classic::ICktElement</title>
<polygon fill="white" stroke="transparent" points="-4,4 -4,-337 218.5,-337 218.5,4 -4,4"/>
<!-- Node1 -->
<g id="node1" class="node">
<title>Node1</title>
<g id="a_node1"><a xlink:title=" ">
<polygon fill="#bfbfbf" stroke="black" points="0,-0.5 0,-19.5 130,-19.5 130,-0.5 0,-0.5"/>
<text text-anchor="middle" x="65" y="-7.5" font-family="Helvetica" font-size="10.00">dss::classic::ICktElement</text>
</a>
</g>
</g>
<!-- Node2 -->
<g id="node2" class="node">
<title>Node2</title>
<g id="a_node2"><a xlink:href="classdss_1_1ContextState.html" target="_top" xlink:title="Wraps common DSSContext state data.">
<polygon fill="white" stroke="black" points="13,-124.5 13,-143.5 109,-143.5 109,-124.5 13,-124.5"/>
<text text-anchor="middle" x="61" y="-131.5" font-family="Helvetica" font-size="10.00">dss::ContextState</text>
</a>
</g>
</g>
<!-- Node2&#45;&gt;Node1 -->
<g id="edge1" class="edge">
<title>Node2&#45;&gt;Node1</title>
<path fill="none" stroke="midnightblue" d="M61.62,-114.19C62.5,-87.4 64.07,-39.31 64.71,-19.69"/>
<polygon fill="midnightblue" stroke="midnightblue" points="58.12,-114.12 61.29,-124.23 65.11,-114.35 58.12,-114.12"/>
</g>
<!-- Node5 -->
<g id="node5" class="node">
<title>Node5</title>
<g id="a_node5"><a xlink:href="classdss_1_1classic_1_1IDSSProperty.html" target="_top" xlink:title=" ">
<polygon fill="white" stroke="#bfbfbf" points="77.5,-67.5 77.5,-86.5 214.5,-86.5 214.5,-67.5 77.5,-67.5"/>
<text text-anchor="middle" x="146" y="-74.5" font-family="Helvetica" font-size="10.00">dss::classic::IDSSProperty</text>
</a>
</g>
</g>
<!-- Node2&#45;&gt;Node5 -->
<g id="edge5" class="edge">
<title>Node2&#45;&gt;Node5</title>
<path fill="none" stroke="midnightblue" d="M82.91,-118.82C98.7,-108.61 119.5,-95.15 132.81,-86.53"/>
<polygon fill="midnightblue" stroke="midnightblue" points="80.78,-116.04 74.28,-124.41 84.58,-121.91 80.78,-116.04"/>
</g>
<!-- Node3 -->
<g id="node3" class="node">
<title>Node3</title>
<g id="a_node3"><a xlink:href="structdss_1_1APIUtil.html" target="_top" xlink:title=" ">
<polygon fill="white" stroke="#bfbfbf" points="26,-191.5 26,-210.5 96,-210.5 96,-191.5 26,-191.5"/>
<text text-anchor="middle" x="61" y="-198.5" font-family="Helvetica" font-size="10.00">dss::APIUtil</text>
</a>
</g>
</g>
<!-- Node3&#45;&gt;Node2 -->
<g id="edge2" class="edge">
<title>Node3&#45;&gt;Node2</title>
<path fill="none" stroke="#9a32cd" stroke-dasharray="5,2" d="M61,-181.04C61,-168.67 61,-153.12 61,-143.63"/>
<polygon fill="#9a32cd" stroke="#9a32cd" points="57.5,-181.23 61,-191.23 64.5,-181.23 57.5,-181.23"/>
<text text-anchor="middle" x="78" y="-165" font-family="Helvetica" font-size="10.00"> api_util</text>
</g>
<!-- Node4 -->
<g id="node4" class="node">
<title>Node4</title>
<g id="a_node4"><a xlink:title=" ">
<polygon fill="white" stroke="#bfbfbf" points="38,-313.5 38,-332.5 84,-332.5 84,-313.5 38,-313.5"/>
<text text-anchor="middle" x="61" y="-320.5" font-family="Helvetica" font-size="10.00">int32_t</text>
</a>
</g>
</g>
<!-- Node4&#45;&gt;Node3 -->
<g id="edge3" class="edge">
<title>Node4&#45;&gt;Node3</title>
<path fill="none" stroke="#9a32cd" stroke-dasharray="5,2" d="M61,-303.15C61,-276.72 61,-229.76 61,-210.55"/>
<polygon fill="#9a32cd" stroke="#9a32cd" points="57.5,-303.37 61,-313.37 64.5,-303.37 57.5,-303.37"/>
<text text-anchor="middle" x="102.5" y="-287" font-family="Helvetica" font-size="10.00"> count_PByte</text>
<text text-anchor="middle" x="102.5" y="-276" font-family="Helvetica" font-size="10.00">count_PDouble</text>
<text text-anchor="middle" x="102.5" y="-265" font-family="Helvetica" font-size="10.00">count_PInteger</text>
<text text-anchor="middle" x="102.5" y="-254" font-family="Helvetica" font-size="10.00">count_PPAnsiChar</text>
<text text-anchor="middle" x="102.5" y="-243" font-family="Helvetica" font-size="10.00">data_PInteger</text>
<text text-anchor="middle" x="102.5" y="-232" font-family="Helvetica" font-size="10.00">error_ptr</text>
</g>
<!-- Node5&#45;&gt;Node1 -->
<g id="edge4" class="edge">
<title>Node5&#45;&gt;Node1</title>
<path fill="none" stroke="#9a32cd" stroke-dasharray="5,2" d="M126.95,-60.71C110.99,-47.91 88.79,-30.09 75.75,-19.63"/>
<polygon fill="#9a32cd" stroke="#9a32cd" points="125.09,-63.7 135.08,-67.23 129.47,-58.25 125.09,-63.7"/>
<text text-anchor="middle" x="134.5" y="-41" font-family="Helvetica" font-size="10.00"> Properties</text>
</g>
</g>
</svg>
