<?xml version="1.0" encoding="UTF-8" standalone="no"?>
<!DOCTYPE svg PUBLIC "-//W3C//DTD SVG 1.1//EN"
 "http://www.w3.org/Graphics/SVG/1.1/DTD/svg11.dtd">
<!-- Generated by graphviz version 2.47.2 (20210527.1257)
 -->
<!-- Title: dss::obj::TCC_CurveBatch Pages: 1 -->
<svg width="196pt" height="274pt"
 viewBox="0.00 0.00 195.50 274.00" xmlns="http://www.w3.org/2000/svg" xmlns:xlink="http://www.w3.org/1999/xlink">
<g id="graph0" class="graph" transform="scale(1 1) rotate(0) translate(4 270)">
<title>dss::obj::TCC_CurveBatch</title>
<polygon fill="white" stroke="transparent" points="-4,4 -4,-270 191.5,-270 191.5,4 -4,4"/>
<!-- Node1 -->
<g id="node1" class="node">
<title>Node1</title>
<g id="a_node1"><a xlink:title=" ">
<polygon fill="#bfbfbf" stroke="black" points="0,-0.5 0,-19.5 135,-19.5 135,-0.5 0,-0.5"/>
<text text-anchor="middle" x="67.5" y="-7.5" font-family="Helvetica" font-size="10.00">dss::obj::TCC_CurveBatch</text>
</a>
</g>
</g>
<!-- Node2 -->
<g id="node2" class="node">
<title>Node2</title>
<g id="a_node2"><a xlink:href="classdss_1_1obj_1_1DSSBatch.html" target="_top" xlink:title=" ">
<polygon fill="white" stroke="#bfbfbf" points="15.5,-57.5 15.5,-76.5 119.5,-76.5 119.5,-57.5 15.5,-57.5"/>
<text text-anchor="middle" x="67.5" y="-64.5" font-family="Helvetica" font-size="10.00">dss::obj::DSSBatch</text>
</a>
</g>
</g>
<!-- Node2&#45;&gt;Node1 -->
<g id="edge1" class="edge">
<title>Node2&#45;&gt;Node1</title>
<path fill="none" stroke="midnightblue" d="M67.5,-47.12C67.5,-37.82 67.5,-27.06 67.5,-19.71"/>
<polygon fill="midnightblue" stroke="midnightblue" points="64,-47.41 67.5,-57.41 71,-47.41 64,-47.41"/>
</g>
<!-- Node3 -->
<g id="node3" class="node">
<title>Node3</title>
<g id="a_node3"><a xlink:href="structdss_1_1APIUtil.html" target="_top" xlink:title=" ">
<polygon fill="white" stroke="#bfbfbf" points="85.5,-124.5 85.5,-143.5 155.5,-143.5 155.5,-124.5 85.5,-124.5"/>
<text text-anchor="middle" x="120.5" y="-131.5" font-family="Helvetica" font-size="10.00">dss::APIUtil</text>
</a>
</g>
</g>
<!-- Node3&#45;&gt;Node2 -->
<g id="edge2" class="edge">
<title>Node3&#45;&gt;Node2</title>
<path fill="none" stroke="#9a32cd" stroke-dasharray="5,2" d="M106.86,-116.27C96.53,-103.6 82.75,-86.7 74.53,-76.63"/>
<polygon fill="#9a32cd" stroke="#9a32cd" points="104.32,-118.7 113.35,-124.23 109.75,-114.27 104.32,-118.7"/>
<text text-anchor="middle" x="113.5" y="-98" font-family="Helvetica" font-size="10.00"> api_util</text>
</g>
<!-- Node4 -->
<g id="node4" class="node">
<title>Node4</title>
<g id="a_node4"><a xlink:title=" ">
<polygon fill="white" stroke="#bfbfbf" points="32.5,-246.5 32.5,-265.5 78.5,-265.5 78.5,-246.5 32.5,-246.5"/>
<text text-anchor="middle" x="55.5" y="-253.5" font-family="Helvetica" font-size="10.00">int32_t</text>
</a>
</g>
</g>
<!-- Node4&#45;&gt;Node2 -->
<g id="edge4" class="edge">
<title>Node4&#45;&gt;Node2</title>
<path fill="none" stroke="#9a32cd" stroke-dasharray="5,2" d="M51.97,-236.22C47.73,-210.66 41.97,-163.56 48.5,-124 51.38,-106.58 58.96,-87.29 63.63,-76.5"/>
<polygon fill="#9a32cd" stroke="#9a32cd" points="48.57,-237.11 53.76,-246.35 55.46,-235.89 48.57,-237.11"/>
<text text-anchor="middle" x="62.5" y="-131.5" font-family="Helvetica" font-size="10.00"> count</text>
</g>
<!-- Node4&#45;&gt;Node3 -->
<g id="edge3" class="edge">
<title>Node4&#45;&gt;Node3</title>
<path fill="none" stroke="#9a32cd" stroke-dasharray="5,2" d="M64.95,-237.55C79.11,-211.42 105.27,-163.11 115.87,-143.55"/>
<polygon fill="#9a32cd" stroke="#9a32cd" points="61.86,-235.91 60.17,-246.37 68.02,-239.24 61.86,-235.91"/>
<text text-anchor="middle" x="146" y="-220" font-family="Helvetica" font-size="10.00"> count_PByte</text>
<text text-anchor="middle" x="146" y="-209" font-family="Helvetica" font-size="10.00">count_PDouble</text>
<text text-anchor="middle" x="146" y="-198" font-family="Helvetica" font-size="10.00">count_PInteger</text>
<text text-anchor="middle" x="146" y="-187" font-family="Helvetica" font-size="10.00">count_PPAnsiChar</text>
<text text-anchor="middle" x="146" y="-176" font-family="Helvetica" font-size="10.00">data_PInteger</text>
<text text-anchor="middle" x="146" y="-165" font-family="Helvetica" font-size="10.00">error_ptr</text>
</g>
</g>
</svg>
