<?xml version="1.0" encoding="UTF-8" standalone="no"?>
<!DOCTYPE svg PUBLIC "-//W3C//DTD SVG 1.1//EN"
 "http://www.w3.org/Graphics/SVG/1.1/DTD/svg11.dtd">
<!-- Generated by graphviz version 2.47.2 (20210527.1257)
 -->
<!-- Title: dss::obj::Load Pages: 1 -->
<svg width="161pt" height="274pt"
 viewBox="0.00 0.00 161.00 274.00" xmlns="http://www.w3.org/2000/svg" xmlns:xlink="http://www.w3.org/1999/xlink">
<g id="graph0" class="graph" transform="scale(1 1) rotate(0) translate(4 270)">
<title>dss::obj::Load</title>
<polygon fill="white" stroke="transparent" points="-4,4 -4,-270 157,-270 157,4 -4,4"/>
<!-- Node1 -->
<g id="node1" class="node">
<title>Node1</title>
<g id="a_node1"><a xlink:title=" ">
<polygon fill="#bfbfbf" stroke="black" points="0,-0.5 0,-19.5 78,-19.5 78,-0.5 0,-0.5"/>
<text text-anchor="middle" x="39" y="-7.5" font-family="Helvetica" font-size="10.00">dss::obj::Load</text>
</a>
</g>
</g>
<!-- Node2 -->
<g id="node2" class="node">
<title>Node2</title>
<g id="a_node2"><a xlink:href="classdss_1_1obj_1_1DSSObj.html" target="_top" xlink:title=" ">
<polygon fill="white" stroke="#bfbfbf" points="43.5,-57.5 43.5,-76.5 136.5,-76.5 136.5,-57.5 43.5,-57.5"/>
<text text-anchor="middle" x="90" y="-64.5" font-family="Helvetica" font-size="10.00">dss::obj::DSSObj</text>
</a>
</g>
</g>
<!-- Node2&#45;&gt;Node1 -->
<g id="edge1" class="edge">
<title>Node2&#45;&gt;Node1</title>
<path fill="none" stroke="midnightblue" d="M75,-49.83C65.87,-39.98 54.56,-27.78 47.08,-19.71"/>
<polygon fill="midnightblue" stroke="midnightblue" points="72.67,-52.45 82.03,-57.41 77.8,-47.69 72.67,-52.45"/>
</g>
<!-- Node3 -->
<g id="node3" class="node">
<title>Node3</title>
<g id="a_node3"><a xlink:href="structdss_1_1APIUtil.html" target="_top" xlink:title=" ">
<polygon fill="white" stroke="#bfbfbf" points="49,-124.5 49,-143.5 119,-143.5 119,-124.5 49,-124.5"/>
<text text-anchor="middle" x="84" y="-131.5" font-family="Helvetica" font-size="10.00">dss::APIUtil</text>
</a>
</g>
</g>
<!-- Node3&#45;&gt;Node2 -->
<g id="edge2" class="edge">
<title>Node3&#45;&gt;Node2</title>
<path fill="none" stroke="#9a32cd" stroke-dasharray="5,2" d="M85.75,-114.04C86.89,-101.67 88.33,-86.12 89.2,-76.63"/>
<polygon fill="#9a32cd" stroke="#9a32cd" points="82.24,-113.95 84.81,-124.23 89.21,-114.6 82.24,-113.95"/>
<text text-anchor="middle" x="104" y="-98" font-family="Helvetica" font-size="10.00"> api_util</text>
</g>
<!-- Node4 -->
<g id="node4" class="node">
<title>Node4</title>
<g id="a_node4"><a xlink:title=" ">
<polygon fill="white" stroke="#bfbfbf" points="7,-246.5 7,-265.5 53,-265.5 53,-246.5 7,-246.5"/>
<text text-anchor="middle" x="30" y="-253.5" font-family="Helvetica" font-size="10.00">int32_t</text>
</a>
</g>
</g>
<!-- Node4&#45;&gt;Node1 -->
<g id="edge4" class="edge">
<title>Node4&#45;&gt;Node1</title>
<path fill="none" stroke="#9a32cd" stroke-dasharray="5,2" d="M28.55,-236.07C26.5,-206.09 23.38,-145.89 27,-95 28.96,-67.37 34.51,-35.02 37.33,-19.78"/>
<polygon fill="#9a32cd" stroke="#9a32cd" points="25.08,-236.59 29.29,-246.31 32.06,-236.09 25.08,-236.59"/>
<text text-anchor="middle" x="54.5" y="-98" font-family="Helvetica" font-size="10.00"> dss_cls_idx</text>
</g>
<!-- Node4&#45;&gt;Node3 -->
<g id="edge3" class="edge">
<title>Node4&#45;&gt;Node3</title>
<path fill="none" stroke="#9a32cd" stroke-dasharray="5,2" d="M38.01,-237.2C49.8,-210.99 71.39,-163.02 80.15,-143.55"/>
<polygon fill="#9a32cd" stroke="#9a32cd" points="34.8,-235.81 33.88,-246.37 41.18,-238.69 34.8,-235.81"/>
<text text-anchor="middle" x="111.5" y="-220" font-family="Helvetica" font-size="10.00"> count_PByte</text>
<text text-anchor="middle" x="111.5" y="-209" font-family="Helvetica" font-size="10.00">count_PDouble</text>
<text text-anchor="middle" x="111.5" y="-198" font-family="Helvetica" font-size="10.00">count_PInteger</text>
<text text-anchor="middle" x="111.5" y="-187" font-family="Helvetica" font-size="10.00">count_PPAnsiChar</text>
<text text-anchor="middle" x="111.5" y="-176" font-family="Helvetica" font-size="10.00">data_PInteger</text>
<text text-anchor="middle" x="111.5" y="-165" font-family="Helvetica" font-size="10.00">error_ptr</text>
</g>
</g>
</svg>
