<?xml version="1.0" encoding="UTF-8" standalone="no"?>
<!DOCTYPE svg PUBLIC "-//W3C//DTD SVG 1.1//EN"
 "http://www.w3.org/Graphics/SVG/1.1/DTD/svg11.dtd">
<!-- Generated by graphviz version 2.47.2 (20210527.1257)
 -->
<!-- Title: dss::obj::GICTransformer Pages: 1 -->
<svg width="186pt" height="274pt"
 viewBox="0.00 0.00 185.50 274.00" xmlns="http://www.w3.org/2000/svg" xmlns:xlink="http://www.w3.org/1999/xlink">
<g id="graph0" class="graph" transform="scale(1 1) rotate(0) translate(4 270)">
<title>dss::obj::GICTransformer</title>
<polygon fill="white" stroke="transparent" points="-4,4 -4,-270 181.5,-270 181.5,4 -4,4"/>
<!-- Node1 -->
<g id="node1" class="node">
<title>Node1</title>
<g id="a_node1"><a xlink:title=" ">
<polygon fill="#bfbfbf" stroke="black" points="0,-0.5 0,-19.5 127,-19.5 127,-0.5 0,-0.5"/>
<text text-anchor="middle" x="63.5" y="-7.5" font-family="Helvetica" font-size="10.00">dss::obj::GICTransformer</text>
</a>
</g>
</g>
<!-- Node2 -->
<g id="node2" class="node">
<title>Node2</title>
<g id="a_node2"><a xlink:href="classdss_1_1obj_1_1DSSObj.html" target="_top" xlink:title=" ">
<polygon fill="white" stroke="#bfbfbf" points="68,-57.5 68,-76.5 161,-76.5 161,-57.5 68,-57.5"/>
<text text-anchor="middle" x="114.5" y="-64.5" font-family="Helvetica" font-size="10.00">dss::obj::DSSObj</text>
</a>
</g>
</g>
<!-- Node2&#45;&gt;Node1 -->
<g id="edge1" class="edge">
<title>Node2&#45;&gt;Node1</title>
<path fill="none" stroke="midnightblue" d="M99.5,-49.83C90.37,-39.98 79.06,-27.78 71.58,-19.71"/>
<polygon fill="midnightblue" stroke="midnightblue" points="97.17,-52.45 106.53,-57.41 102.3,-47.69 97.17,-52.45"/>
</g>
<!-- Node3 -->
<g id="node3" class="node">
<title>Node3</title>
<g id="a_node3"><a xlink:href="structdss_1_1APIUtil.html" target="_top" xlink:title=" ">
<polygon fill="white" stroke="#bfbfbf" points="73.5,-124.5 73.5,-143.5 143.5,-143.5 143.5,-124.5 73.5,-124.5"/>
<text text-anchor="middle" x="108.5" y="-131.5" font-family="Helvetica" font-size="10.00">dss::APIUtil</text>
</a>
</g>
</g>
<!-- Node3&#45;&gt;Node2 -->
<g id="edge2" class="edge">
<title>Node3&#45;&gt;Node2</title>
<path fill="none" stroke="#9a32cd" stroke-dasharray="5,2" d="M110.25,-114.04C111.39,-101.67 112.83,-86.12 113.7,-76.63"/>
<polygon fill="#9a32cd" stroke="#9a32cd" points="106.74,-113.95 109.31,-124.23 113.71,-114.6 106.74,-113.95"/>
<text text-anchor="middle" x="128.5" y="-98" font-family="Helvetica" font-size="10.00"> api_util</text>
</g>
<!-- Node4 -->
<g id="node4" class="node">
<title>Node4</title>
<g id="a_node4"><a xlink:title=" ">
<polygon fill="white" stroke="#bfbfbf" points="31.5,-246.5 31.5,-265.5 77.5,-265.5 77.5,-246.5 31.5,-246.5"/>
<text text-anchor="middle" x="54.5" y="-253.5" font-family="Helvetica" font-size="10.00">int32_t</text>
</a>
</g>
</g>
<!-- Node4&#45;&gt;Node1 -->
<g id="edge4" class="edge">
<title>Node4&#45;&gt;Node1</title>
<path fill="none" stroke="#9a32cd" stroke-dasharray="5,2" d="M53.05,-236.07C51,-206.09 47.88,-145.89 51.5,-95 53.46,-67.37 59.01,-35.02 61.83,-19.78"/>
<polygon fill="#9a32cd" stroke="#9a32cd" points="49.58,-236.59 53.79,-246.31 56.56,-236.09 49.58,-236.59"/>
<text text-anchor="middle" x="79" y="-98" font-family="Helvetica" font-size="10.00"> dss_cls_idx</text>
</g>
<!-- Node4&#45;&gt;Node3 -->
<g id="edge3" class="edge">
<title>Node4&#45;&gt;Node3</title>
<path fill="none" stroke="#9a32cd" stroke-dasharray="5,2" d="M62.51,-237.2C74.3,-210.99 95.89,-163.02 104.65,-143.55"/>
<polygon fill="#9a32cd" stroke="#9a32cd" points="59.3,-235.81 58.38,-246.37 65.68,-238.69 59.3,-235.81"/>
<text text-anchor="middle" x="136" y="-220" font-family="Helvetica" font-size="10.00"> count_PByte</text>
<text text-anchor="middle" x="136" y="-209" font-family="Helvetica" font-size="10.00">count_PDouble</text>
<text text-anchor="middle" x="136" y="-198" font-family="Helvetica" font-size="10.00">count_PInteger</text>
<text text-anchor="middle" x="136" y="-187" font-family="Helvetica" font-size="10.00">count_PPAnsiChar</text>
<text text-anchor="middle" x="136" y="-176" font-family="Helvetica" font-size="10.00">data_PInteger</text>
<text text-anchor="middle" x="136" y="-165" font-family="Helvetica" font-size="10.00">error_ptr</text>
</g>
</g>
</svg>
