<?xml version="1.0" encoding="UTF-8" standalone="no"?>
<!DOCTYPE svg PUBLIC "-//W3C//DTD SVG 1.1//EN"
 "http://www.w3.org/Graphics/SVG/1.1/DTD/svg11.dtd">
<!-- Generated by graphviz version 2.47.2 (20210527.1257)
 -->
<!-- Title: dss::obj::InvControl Pages: 1 -->
<svg width="173pt" height="274pt"
 viewBox="0.00 0.00 173.00 274.00" xmlns="http://www.w3.org/2000/svg" xmlns:xlink="http://www.w3.org/1999/xlink">
<g id="graph0" class="graph" transform="scale(1 1) rotate(0) translate(4 270)">
<title>dss::obj::InvControl</title>
<polygon fill="white" stroke="transparent" points="-4,4 -4,-270 169,-270 169,4 -4,4"/>
<!-- Node1 -->
<g id="node1" class="node">
<title>Node1</title>
<g id="a_node1"><a xlink:title=" ">
<polygon fill="#bfbfbf" stroke="black" points="0,-0.5 0,-19.5 102,-19.5 102,-0.5 0,-0.5"/>
<text text-anchor="middle" x="51" y="-7.5" font-family="Helvetica" font-size="10.00">dss::obj::InvControl</text>
</a>
</g>
</g>
<!-- Node2 -->
<g id="node2" class="node">
<title>Node2</title>
<g id="a_node2"><a xlink:href="classdss_1_1obj_1_1DSSObj.html" target="_top" xlink:title=" ">
<polygon fill="white" stroke="#bfbfbf" points="55.5,-57.5 55.5,-76.5 148.5,-76.5 148.5,-57.5 55.5,-57.5"/>
<text text-anchor="middle" x="102" y="-64.5" font-family="Helvetica" font-size="10.00">dss::obj::DSSObj</text>
</a>
</g>
</g>
<!-- Node2&#45;&gt;Node1 -->
<g id="edge1" class="edge">
<title>Node2&#45;&gt;Node1</title>
<path fill="none" stroke="midnightblue" d="M87,-49.83C77.87,-39.98 66.56,-27.78 59.08,-19.71"/>
<polygon fill="midnightblue" stroke="midnightblue" points="84.67,-52.45 94.03,-57.41 89.8,-47.69 84.67,-52.45"/>
</g>
<!-- Node3 -->
<g id="node3" class="node">
<title>Node3</title>
<g id="a_node3"><a xlink:href="structdss_1_1APIUtil.html" target="_top" xlink:title=" ">
<polygon fill="white" stroke="#bfbfbf" points="61,-124.5 61,-143.5 131,-143.5 131,-124.5 61,-124.5"/>
<text text-anchor="middle" x="96" y="-131.5" font-family="Helvetica" font-size="10.00">dss::APIUtil</text>
</a>
</g>
</g>
<!-- Node3&#45;&gt;Node2 -->
<g id="edge2" class="edge">
<title>Node3&#45;&gt;Node2</title>
<path fill="none" stroke="#9a32cd" stroke-dasharray="5,2" d="M97.75,-114.04C98.89,-101.67 100.33,-86.12 101.2,-76.63"/>
<polygon fill="#9a32cd" stroke="#9a32cd" points="94.24,-113.95 96.81,-124.23 101.21,-114.6 94.24,-113.95"/>
<text text-anchor="middle" x="116" y="-98" font-family="Helvetica" font-size="10.00"> api_util</text>
</g>
<!-- Node4 -->
<g id="node4" class="node">
<title>Node4</title>
<g id="a_node4"><a xlink:title=" ">
<polygon fill="white" stroke="#bfbfbf" points="19,-246.5 19,-265.5 65,-265.5 65,-246.5 19,-246.5"/>
<text text-anchor="middle" x="42" y="-253.5" font-family="Helvetica" font-size="10.00">int32_t</text>
</a>
</g>
</g>
<!-- Node4&#45;&gt;Node1 -->
<g id="edge4" class="edge">
<title>Node4&#45;&gt;Node1</title>
<path fill="none" stroke="#9a32cd" stroke-dasharray="5,2" d="M40.55,-236.07C38.5,-206.09 35.38,-145.89 39,-95 40.96,-67.37 46.51,-35.02 49.33,-19.78"/>
<polygon fill="#9a32cd" stroke="#9a32cd" points="37.08,-236.59 41.29,-246.31 44.06,-236.09 37.08,-236.59"/>
<text text-anchor="middle" x="66.5" y="-98" font-family="Helvetica" font-size="10.00"> dss_cls_idx</text>
</g>
<!-- Node4&#45;&gt;Node3 -->
<g id="edge3" class="edge">
<title>Node4&#45;&gt;Node3</title>
<path fill="none" stroke="#9a32cd" stroke-dasharray="5,2" d="M50.01,-237.2C61.8,-210.99 83.39,-163.02 92.15,-143.55"/>
<polygon fill="#9a32cd" stroke="#9a32cd" points="46.8,-235.81 45.88,-246.37 53.18,-238.69 46.8,-235.81"/>
<text text-anchor="middle" x="123.5" y="-220" font-family="Helvetica" font-size="10.00"> count_PByte</text>
<text text-anchor="middle" x="123.5" y="-209" font-family="Helvetica" font-size="10.00">count_PDouble</text>
<text text-anchor="middle" x="123.5" y="-198" font-family="Helvetica" font-size="10.00">count_PInteger</text>
<text text-anchor="middle" x="123.5" y="-187" font-family="Helvetica" font-size="10.00">count_PPAnsiChar</text>
<text text-anchor="middle" x="123.5" y="-176" font-family="Helvetica" font-size="10.00">data_PInteger</text>
<text text-anchor="middle" x="123.5" y="-165" font-family="Helvetica" font-size="10.00">error_ptr</text>
</g>
</g>
</svg>
