<?xml version="1.0" encoding="UTF-8" standalone="no"?>
<!DOCTYPE svg PUBLIC "-//W3C//DTD SVG 1.1//EN"
 "http://www.w3.org/Graphics/SVG/1.1/DTD/svg11.dtd">
<!-- Generated by graphviz version 2.47.2 (20210527.1257)
 -->
<!-- Title: dss::obj::UPFCControlBatch Pages: 1 -->
<svg width="199pt" height="274pt"
 viewBox="0.00 0.00 199.00 274.00" xmlns="http://www.w3.org/2000/svg" xmlns:xlink="http://www.w3.org/1999/xlink">
<g id="graph0" class="graph" transform="scale(1 1) rotate(0) translate(4 270)">
<title>dss::obj::UPFCControlBatch</title>
<polygon fill="white" stroke="transparent" points="-4,4 -4,-270 195,-270 195,4 -4,4"/>
<!-- Node1 -->
<g id="node1" class="node">
<title>Node1</title>
<g id="a_node1"><a xlink:title=" ">
<polygon fill="#bfbfbf" stroke="black" points="0,-0.5 0,-19.5 142,-19.5 142,-0.5 0,-0.5"/>
<text text-anchor="middle" x="71" y="-7.5" font-family="Helvetica" font-size="10.00">dss::obj::UPFCControlBatch</text>
</a>
</g>
</g>
<!-- Node2 -->
<g id="node2" class="node">
<title>Node2</title>
<g id="a_node2"><a xlink:href="classdss_1_1obj_1_1DSSBatch.html" target="_top" xlink:title=" ">
<polygon fill="white" stroke="#bfbfbf" points="19,-57.5 19,-76.5 123,-76.5 123,-57.5 19,-57.5"/>
<text text-anchor="middle" x="71" y="-64.5" font-family="Helvetica" font-size="10.00">dss::obj::DSSBatch</text>
</a>
</g>
</g>
<!-- Node2&#45;&gt;Node1 -->
<g id="edge1" class="edge">
<title>Node2&#45;&gt;Node1</title>
<path fill="none" stroke="midnightblue" d="M71,-47.12C71,-37.82 71,-27.06 71,-19.71"/>
<polygon fill="midnightblue" stroke="midnightblue" points="67.5,-47.41 71,-57.41 74.5,-47.41 67.5,-47.41"/>
</g>
<!-- Node3 -->
<g id="node3" class="node">
<title>Node3</title>
<g id="a_node3"><a xlink:href="structdss_1_1APIUtil.html" target="_top" xlink:title=" ">
<polygon fill="white" stroke="#bfbfbf" points="89,-124.5 89,-143.5 159,-143.5 159,-124.5 89,-124.5"/>
<text text-anchor="middle" x="124" y="-131.5" font-family="Helvetica" font-size="10.00">dss::APIUtil</text>
</a>
</g>
</g>
<!-- Node3&#45;&gt;Node2 -->
<g id="edge2" class="edge">
<title>Node3&#45;&gt;Node2</title>
<path fill="none" stroke="#9a32cd" stroke-dasharray="5,2" d="M110.36,-116.27C100.03,-103.6 86.25,-86.7 78.03,-76.63"/>
<polygon fill="#9a32cd" stroke="#9a32cd" points="107.82,-118.7 116.85,-124.23 113.25,-114.27 107.82,-118.7"/>
<text text-anchor="middle" x="117" y="-98" font-family="Helvetica" font-size="10.00"> api_util</text>
</g>
<!-- Node4 -->
<g id="node4" class="node">
<title>Node4</title>
<g id="a_node4"><a xlink:title=" ">
<polygon fill="white" stroke="#bfbfbf" points="36,-246.5 36,-265.5 82,-265.5 82,-246.5 36,-246.5"/>
<text text-anchor="middle" x="59" y="-253.5" font-family="Helvetica" font-size="10.00">int32_t</text>
</a>
</g>
</g>
<!-- Node4&#45;&gt;Node2 -->
<g id="edge4" class="edge">
<title>Node4&#45;&gt;Node2</title>
<path fill="none" stroke="#9a32cd" stroke-dasharray="5,2" d="M55.47,-236.22C51.23,-210.66 45.47,-163.56 52,-124 54.88,-106.58 62.46,-87.29 67.13,-76.5"/>
<polygon fill="#9a32cd" stroke="#9a32cd" points="52.07,-237.11 57.26,-246.35 58.96,-235.89 52.07,-237.11"/>
<text text-anchor="middle" x="66" y="-131.5" font-family="Helvetica" font-size="10.00"> count</text>
</g>
<!-- Node4&#45;&gt;Node3 -->
<g id="edge3" class="edge">
<title>Node4&#45;&gt;Node3</title>
<path fill="none" stroke="#9a32cd" stroke-dasharray="5,2" d="M68.45,-237.55C82.61,-211.42 108.77,-163.11 119.37,-143.55"/>
<polygon fill="#9a32cd" stroke="#9a32cd" points="65.36,-235.91 63.67,-246.37 71.52,-239.24 65.36,-235.91"/>
<text text-anchor="middle" x="149.5" y="-220" font-family="Helvetica" font-size="10.00"> count_PByte</text>
<text text-anchor="middle" x="149.5" y="-209" font-family="Helvetica" font-size="10.00">count_PDouble</text>
<text text-anchor="middle" x="149.5" y="-198" font-family="Helvetica" font-size="10.00">count_PInteger</text>
<text text-anchor="middle" x="149.5" y="-187" font-family="Helvetica" font-size="10.00">count_PPAnsiChar</text>
<text text-anchor="middle" x="149.5" y="-176" font-family="Helvetica" font-size="10.00">data_PInteger</text>
<text text-anchor="middle" x="149.5" y="-165" font-family="Helvetica" font-size="10.00">error_ptr</text>
</g>
</g>
</svg>
