<?xml version="1.0" encoding="UTF-8" standalone="no"?>
<!DOCTYPE svg PUBLIC "-//W3C//DTD SVG 1.1//EN"
 "http://www.w3.org/Graphics/SVG/1.1/DTD/svg11.dtd">
<!-- Generated by graphviz version 2.47.2 (20210527.1257)
 -->
<!-- Title: dss::obj::GICTransformerBatch Pages: 1 -->
<svg width="192pt" height="285pt"
 viewBox="0.00 0.00 191.50 285.00" xmlns="http://www.w3.org/2000/svg" xmlns:xlink="http://www.w3.org/1999/xlink">
<g id="graph0" class="graph" transform="scale(1 1) rotate(0) translate(4 281)">
<title>dss::obj::GICTransformerBatch</title>
<polygon fill="white" stroke="transparent" points="-4,4 -4,-281 187.5,-281 187.5,4 -4,4"/>
<!-- Node1 -->
<g id="node1" class="node">
<title>Node1</title>
<g id="a_node1"><a xlink:title=" ">
<polygon fill="#bfbfbf" stroke="black" points="0,-0.5 0,-30.5 127,-30.5 127,-0.5 0,-0.5"/>
<text text-anchor="start" x="8" y="-18.5" font-family="Helvetica" font-size="10.00">dss::obj::GICTransformer</text>
<text text-anchor="middle" x="63.5" y="-7.5" font-family="Helvetica" font-size="10.00">Batch</text>
</a>
</g>
</g>
<!-- Node2 -->
<g id="node2" class="node">
<title>Node2</title>
<g id="a_node2"><a xlink:href="classdss_1_1obj_1_1DSSBatch.html" target="_top" xlink:title=" ">
<polygon fill="white" stroke="#bfbfbf" points="11.5,-68.5 11.5,-87.5 115.5,-87.5 115.5,-68.5 11.5,-68.5"/>
<text text-anchor="middle" x="63.5" y="-75.5" font-family="Helvetica" font-size="10.00">dss::obj::DSSBatch</text>
</a>
</g>
</g>
<!-- Node2&#45;&gt;Node1 -->
<g id="edge1" class="edge">
<title>Node2&#45;&gt;Node1</title>
<path fill="none" stroke="midnightblue" d="M63.5,-58.22C63.5,-49.36 63.5,-38.96 63.5,-30.76"/>
<polygon fill="midnightblue" stroke="midnightblue" points="60,-58.33 63.5,-68.33 67,-58.33 60,-58.33"/>
</g>
<!-- Node3 -->
<g id="node3" class="node">
<title>Node3</title>
<g id="a_node3"><a xlink:href="structdss_1_1APIUtil.html" target="_top" xlink:title=" ">
<polygon fill="white" stroke="#bfbfbf" points="81.5,-135.5 81.5,-154.5 151.5,-154.5 151.5,-135.5 81.5,-135.5"/>
<text text-anchor="middle" x="116.5" y="-142.5" font-family="Helvetica" font-size="10.00">dss::APIUtil</text>
</a>
</g>
</g>
<!-- Node3&#45;&gt;Node2 -->
<g id="edge2" class="edge">
<title>Node3&#45;&gt;Node2</title>
<path fill="none" stroke="#9a32cd" stroke-dasharray="5,2" d="M102.86,-127.27C92.53,-114.6 78.75,-97.7 70.53,-87.63"/>
<polygon fill="#9a32cd" stroke="#9a32cd" points="100.32,-129.7 109.35,-135.23 105.75,-125.27 100.32,-129.7"/>
<text text-anchor="middle" x="109.5" y="-109" font-family="Helvetica" font-size="10.00"> api_util</text>
</g>
<!-- Node4 -->
<g id="node4" class="node">
<title>Node4</title>
<g id="a_node4"><a xlink:title=" ">
<polygon fill="white" stroke="#bfbfbf" points="28.5,-257.5 28.5,-276.5 74.5,-276.5 74.5,-257.5 28.5,-257.5"/>
<text text-anchor="middle" x="51.5" y="-264.5" font-family="Helvetica" font-size="10.00">int32_t</text>
</a>
</g>
</g>
<!-- Node4&#45;&gt;Node2 -->
<g id="edge4" class="edge">
<title>Node4&#45;&gt;Node2</title>
<path fill="none" stroke="#9a32cd" stroke-dasharray="5,2" d="M47.97,-247.22C43.73,-221.66 37.97,-174.56 44.5,-135 47.38,-117.58 54.96,-98.29 59.63,-87.5"/>
<polygon fill="#9a32cd" stroke="#9a32cd" points="44.57,-248.11 49.76,-257.35 51.46,-246.89 44.57,-248.11"/>
<text text-anchor="middle" x="58.5" y="-142.5" font-family="Helvetica" font-size="10.00"> count</text>
</g>
<!-- Node4&#45;&gt;Node3 -->
<g id="edge3" class="edge">
<title>Node4&#45;&gt;Node3</title>
<path fill="none" stroke="#9a32cd" stroke-dasharray="5,2" d="M60.95,-248.55C75.11,-222.42 101.27,-174.11 111.87,-154.55"/>
<polygon fill="#9a32cd" stroke="#9a32cd" points="57.86,-246.91 56.17,-257.37 64.02,-250.24 57.86,-246.91"/>
<text text-anchor="middle" x="142" y="-231" font-family="Helvetica" font-size="10.00"> count_PByte</text>
<text text-anchor="middle" x="142" y="-220" font-family="Helvetica" font-size="10.00">count_PDouble</text>
<text text-anchor="middle" x="142" y="-209" font-family="Helvetica" font-size="10.00">count_PInteger</text>
<text text-anchor="middle" x="142" y="-198" font-family="Helvetica" font-size="10.00">count_PPAnsiChar</text>
<text text-anchor="middle" x="142" y="-187" font-family="Helvetica" font-size="10.00">data_PInteger</text>
<text text-anchor="middle" x="142" y="-176" font-family="Helvetica" font-size="10.00">error_ptr</text>
</g>
</g>
</svg>
