<?xml version="1.0" encoding="UTF-8" standalone="no"?>
<!DOCTYPE svg PUBLIC "-//W3C//DTD SVG 1.1//EN"
 "http://www.w3.org/Graphics/SVG/1.1/DTD/svg11.dtd">
<!-- Generated by graphviz version 2.47.2 (20210527.1257)
 -->
<!-- Title: dss::obj::BatchArrayProxy&lt; T &gt; Pages: 1 -->
<svg width="260pt" height="284pt"
 viewBox="0.00 0.00 259.50 284.00" xmlns="http://www.w3.org/2000/svg" xmlns:xlink="http://www.w3.org/1999/xlink">
<g id="graph0" class="graph" transform="scale(1 1) rotate(0) translate(4 280)">
<title>dss::obj::BatchArrayProxy&lt; T &gt;</title>
<polygon fill="white" stroke="transparent" points="-4,4 -4,-280 255.5,-280 255.5,4 -4,4"/>
<!-- Node1 -->
<g id="node1" class="node">
<title>Node1</title>
<g id="a_node1"><a xlink:title=" ">
<polygon fill="#bfbfbf" stroke="black" points="0,-0.5 0,-19.5 155,-19.5 155,-0.5 0,-0.5"/>
<text text-anchor="middle" x="77.5" y="-7.5" font-family="Helvetica" font-size="10.00">dss::obj::BatchArrayProxy&lt; T &gt;</text>
</a>
</g>
</g>
<!-- Node2 -->
<g id="node2" class="node">
<title>Node2</title>
<g id="a_node2"><a xlink:href="classdss_1_1obj_1_1DSSBatch.html" target="_top" xlink:title=" ">
<polygon fill="white" stroke="#bfbfbf" points="89.5,-67.5 89.5,-86.5 193.5,-86.5 193.5,-67.5 89.5,-67.5"/>
<text text-anchor="middle" x="141.5" y="-74.5" font-family="Helvetica" font-size="10.00">dss::obj::DSSBatch</text>
</a>
</g>
</g>
<!-- Node2&#45;&gt;Node1 -->
<g id="edge1" class="edge">
<title>Node2&#45;&gt;Node1</title>
<path fill="none" stroke="#9a32cd" stroke-dasharray="5,2" d="M125.74,-60C113.19,-47.25 96.1,-29.89 85.99,-19.63"/>
<polygon fill="#9a32cd" stroke="#9a32cd" points="123.36,-62.56 132.87,-67.23 128.35,-57.65 123.36,-62.56"/>
<text text-anchor="middle" x="126.5" y="-41" font-family="Helvetica" font-size="10.00"> batch</text>
</g>
<!-- Node3 -->
<g id="node3" class="node">
<title>Node3</title>
<g id="a_node3"><a xlink:href="structdss_1_1APIUtil.html" target="_top" xlink:title=" ">
<polygon fill="white" stroke="#bfbfbf" points="153.5,-134.5 153.5,-153.5 223.5,-153.5 223.5,-134.5 153.5,-134.5"/>
<text text-anchor="middle" x="188.5" y="-141.5" font-family="Helvetica" font-size="10.00">dss::APIUtil</text>
</a>
</g>
</g>
<!-- Node3&#45;&gt;Node2 -->
<g id="edge2" class="edge">
<title>Node3&#45;&gt;Node2</title>
<path fill="none" stroke="#9a32cd" stroke-dasharray="5,2" d="M176.14,-125.9C167.01,-113.27 154.95,-96.6 147.74,-86.63"/>
<polygon fill="#9a32cd" stroke="#9a32cd" points="173.47,-128.18 182.16,-134.23 179.14,-124.08 173.47,-128.18"/>
<text text-anchor="middle" x="184.5" y="-108" font-family="Helvetica" font-size="10.00"> api_util</text>
</g>
<!-- Node4 -->
<g id="node4" class="node">
<title>Node4</title>
<g id="a_node4"><a xlink:title=" ">
<polygon fill="white" stroke="#bfbfbf" points="84.5,-256.5 84.5,-275.5 130.5,-275.5 130.5,-256.5 84.5,-256.5"/>
<text text-anchor="middle" x="107.5" y="-263.5" font-family="Helvetica" font-size="10.00">int32_t</text>
</a>
</g>
</g>
<!-- Node4&#45;&gt;Node1 -->
<g id="edge5" class="edge">
<title>Node4&#45;&gt;Node1</title>
<path fill="none" stroke="#9a32cd" stroke-dasharray="5,2" d="M103.93,-246.3C97.91,-213.97 85.9,-145.47 80.5,-87 78.27,-62.81 77.69,-34.13 77.55,-19.91"/>
<polygon fill="#9a32cd" stroke="#9a32cd" points="100.49,-246.98 105.78,-256.15 107.37,-245.68 100.49,-246.98"/>
<text text-anchor="middle" x="90.5" y="-108" font-family="Helvetica" font-size="10.00"> idx</text>
</g>
<!-- Node4&#45;&gt;Node2 -->
<g id="edge4" class="edge">
<title>Node4&#45;&gt;Node2</title>
<path fill="none" stroke="#9a32cd" stroke-dasharray="5,2" d="M106.75,-246.04C106.18,-220.27 106.8,-172.94 116.5,-134 120.88,-116.44 130.47,-97.51 136.41,-86.77"/>
<polygon fill="#9a32cd" stroke="#9a32cd" points="103.25,-246.37 107.06,-256.25 110.25,-246.15 103.25,-246.37"/>
<text text-anchor="middle" x="130.5" y="-141.5" font-family="Helvetica" font-size="10.00"> count</text>
</g>
<!-- Node4&#45;&gt;Node3 -->
<g id="edge3" class="edge">
<title>Node4&#45;&gt;Node3</title>
<path fill="none" stroke="#9a32cd" stroke-dasharray="5,2" d="M119.05,-247.89C136.63,-221.84 169.47,-173.19 182.73,-153.55"/>
<polygon fill="#9a32cd" stroke="#9a32cd" points="116.02,-246.12 113.33,-256.37 121.82,-250.04 116.02,-246.12"/>
<text text-anchor="middle" x="210" y="-230" font-family="Helvetica" font-size="10.00"> count_PByte</text>
<text text-anchor="middle" x="210" y="-219" font-family="Helvetica" font-size="10.00">count_PDouble</text>
<text text-anchor="middle" x="210" y="-208" font-family="Helvetica" font-size="10.00">count_PInteger</text>
<text text-anchor="middle" x="210" y="-197" font-family="Helvetica" font-size="10.00">count_PPAnsiChar</text>
<text text-anchor="middle" x="210" y="-186" font-family="Helvetica" font-size="10.00">data_PInteger</text>
<text text-anchor="middle" x="210" y="-175" font-family="Helvetica" font-size="10.00">error_ptr</text>
</g>
</g>
</svg>
