<?xml version="1.0" encoding="UTF-8" standalone="no"?>
<!DOCTYPE svg PUBLIC "-//W3C//DTD SVG 1.1//EN"
 "http://www.w3.org/Graphics/SVG/1.1/DTD/svg11.dtd">
<!-- Generated by graphviz version 2.47.2 (20210527.1257)
 -->
<!-- Title: dss::obj::LoadShapeBatch Pages: 1 -->
<svg width="194pt" height="274pt"
 viewBox="0.00 0.00 193.50 274.00" xmlns="http://www.w3.org/2000/svg" xmlns:xlink="http://www.w3.org/1999/xlink">
<g id="graph0" class="graph" transform="scale(1 1) rotate(0) translate(4 270)">
<title>dss::obj::LoadShapeBatch</title>
<polygon fill="white" stroke="transparent" points="-4,4 -4,-270 189.5,-270 189.5,4 -4,4"/>
<!-- Node1 -->
<g id="node1" class="node">
<title>Node1</title>
<g id="a_node1"><a xlink:title=" ">
<polygon fill="#bfbfbf" stroke="black" points="0,-0.5 0,-19.5 131,-19.5 131,-0.5 0,-0.5"/>
<text text-anchor="middle" x="65.5" y="-7.5" font-family="Helvetica" font-size="10.00">dss::obj::LoadShapeBatch</text>
</a>
</g>
</g>
<!-- Node2 -->
<g id="node2" class="node">
<title>Node2</title>
<g id="a_node2"><a xlink:href="classdss_1_1obj_1_1DSSBatch.html" target="_top" xlink:title=" ">
<polygon fill="white" stroke="#bfbfbf" points="13.5,-57.5 13.5,-76.5 117.5,-76.5 117.5,-57.5 13.5,-57.5"/>
<text text-anchor="middle" x="65.5" y="-64.5" font-family="Helvetica" font-size="10.00">dss::obj::DSSBatch</text>
</a>
</g>
</g>
<!-- Node2&#45;&gt;Node1 -->
<g id="edge1" class="edge">
<title>Node2&#45;&gt;Node1</title>
<path fill="none" stroke="midnightblue" d="M65.5,-47.12C65.5,-37.82 65.5,-27.06 65.5,-19.71"/>
<polygon fill="midnightblue" stroke="midnightblue" points="62,-47.41 65.5,-57.41 69,-47.41 62,-47.41"/>
</g>
<!-- Node3 -->
<g id="node3" class="node">
<title>Node3</title>
<g id="a_node3"><a xlink:href="structdss_1_1APIUtil.html" target="_top" xlink:title=" ">
<polygon fill="white" stroke="#bfbfbf" points="83.5,-124.5 83.5,-143.5 153.5,-143.5 153.5,-124.5 83.5,-124.5"/>
<text text-anchor="middle" x="118.5" y="-131.5" font-family="Helvetica" font-size="10.00">dss::APIUtil</text>
</a>
</g>
</g>
<!-- Node3&#45;&gt;Node2 -->
<g id="edge2" class="edge">
<title>Node3&#45;&gt;Node2</title>
<path fill="none" stroke="#9a32cd" stroke-dasharray="5,2" d="M104.86,-116.27C94.53,-103.6 80.75,-86.7 72.53,-76.63"/>
<polygon fill="#9a32cd" stroke="#9a32cd" points="102.32,-118.7 111.35,-124.23 107.75,-114.27 102.32,-118.7"/>
<text text-anchor="middle" x="111.5" y="-98" font-family="Helvetica" font-size="10.00"> api_util</text>
</g>
<!-- Node4 -->
<g id="node4" class="node">
<title>Node4</title>
<g id="a_node4"><a xlink:title=" ">
<polygon fill="white" stroke="#bfbfbf" points="30.5,-246.5 30.5,-265.5 76.5,-265.5 76.5,-246.5 30.5,-246.5"/>
<text text-anchor="middle" x="53.5" y="-253.5" font-family="Helvetica" font-size="10.00">int32_t</text>
</a>
</g>
</g>
<!-- Node4&#45;&gt;Node2 -->
<g id="edge4" class="edge">
<title>Node4&#45;&gt;Node2</title>
<path fill="none" stroke="#9a32cd" stroke-dasharray="5,2" d="M49.97,-236.22C45.73,-210.66 39.97,-163.56 46.5,-124 49.38,-106.58 56.96,-87.29 61.63,-76.5"/>
<polygon fill="#9a32cd" stroke="#9a32cd" points="46.57,-237.11 51.76,-246.35 53.46,-235.89 46.57,-237.11"/>
<text text-anchor="middle" x="60.5" y="-131.5" font-family="Helvetica" font-size="10.00"> count</text>
</g>
<!-- Node4&#45;&gt;Node3 -->
<g id="edge3" class="edge">
<title>Node4&#45;&gt;Node3</title>
<path fill="none" stroke="#9a32cd" stroke-dasharray="5,2" d="M62.95,-237.55C77.11,-211.42 103.27,-163.11 113.87,-143.55"/>
<polygon fill="#9a32cd" stroke="#9a32cd" points="59.86,-235.91 58.17,-246.37 66.02,-239.24 59.86,-235.91"/>
<text text-anchor="middle" x="144" y="-220" font-family="Helvetica" font-size="10.00"> count_PByte</text>
<text text-anchor="middle" x="144" y="-209" font-family="Helvetica" font-size="10.00">count_PDouble</text>
<text text-anchor="middle" x="144" y="-198" font-family="Helvetica" font-size="10.00">count_PInteger</text>
<text text-anchor="middle" x="144" y="-187" font-family="Helvetica" font-size="10.00">count_PPAnsiChar</text>
<text text-anchor="middle" x="144" y="-176" font-family="Helvetica" font-size="10.00">data_PInteger</text>
<text text-anchor="middle" x="144" y="-165" font-family="Helvetica" font-size="10.00">error_ptr</text>
</g>
</g>
</svg>
