<?xml version="1.0" encoding="UTF-8" standalone="no"?>
<!DOCTYPE svg PUBLIC "-//W3C//DTD SVG 1.1//EN"
 "http://www.w3.org/Graphics/SVG/1.1/DTD/svg11.dtd">
<!-- Generated by graphviz version 2.47.2 (20210527.1257)
 -->
<!-- Title: dss::obj::VSConverter Pages: 1 -->
<svg width="179pt" height="274pt"
 viewBox="0.00 0.00 178.50 274.00" xmlns="http://www.w3.org/2000/svg" xmlns:xlink="http://www.w3.org/1999/xlink">
<g id="graph0" class="graph" transform="scale(1 1) rotate(0) translate(4 270)">
<title>dss::obj::VSConverter</title>
<polygon fill="white" stroke="transparent" points="-4,4 -4,-270 174.5,-270 174.5,4 -4,4"/>
<!-- Node1 -->
<g id="node1" class="node">
<title>Node1</title>
<g id="a_node1"><a xlink:title=" ">
<polygon fill="#bfbfbf" stroke="black" points="0,-0.5 0,-19.5 113,-19.5 113,-0.5 0,-0.5"/>
<text text-anchor="middle" x="56.5" y="-7.5" font-family="Helvetica" font-size="10.00">dss::obj::VSConverter</text>
</a>
</g>
</g>
<!-- Node2 -->
<g id="node2" class="node">
<title>Node2</title>
<g id="a_node2"><a xlink:href="classdss_1_1obj_1_1DSSObj.html" target="_top" xlink:title=" ">
<polygon fill="white" stroke="#bfbfbf" points="61,-57.5 61,-76.5 154,-76.5 154,-57.5 61,-57.5"/>
<text text-anchor="middle" x="107.5" y="-64.5" font-family="Helvetica" font-size="10.00">dss::obj::DSSObj</text>
</a>
</g>
</g>
<!-- Node2&#45;&gt;Node1 -->
<g id="edge1" class="edge">
<title>Node2&#45;&gt;Node1</title>
<path fill="none" stroke="midnightblue" d="M92.5,-49.83C83.37,-39.98 72.06,-27.78 64.58,-19.71"/>
<polygon fill="midnightblue" stroke="midnightblue" points="90.17,-52.45 99.53,-57.41 95.3,-47.69 90.17,-52.45"/>
</g>
<!-- Node3 -->
<g id="node3" class="node">
<title>Node3</title>
<g id="a_node3"><a xlink:href="structdss_1_1APIUtil.html" target="_top" xlink:title=" ">
<polygon fill="white" stroke="#bfbfbf" points="66.5,-124.5 66.5,-143.5 136.5,-143.5 136.5,-124.5 66.5,-124.5"/>
<text text-anchor="middle" x="101.5" y="-131.5" font-family="Helvetica" font-size="10.00">dss::APIUtil</text>
</a>
</g>
</g>
<!-- Node3&#45;&gt;Node2 -->
<g id="edge2" class="edge">
<title>Node3&#45;&gt;Node2</title>
<path fill="none" stroke="#9a32cd" stroke-dasharray="5,2" d="M103.25,-114.04C104.39,-101.67 105.83,-86.12 106.7,-76.63"/>
<polygon fill="#9a32cd" stroke="#9a32cd" points="99.74,-113.95 102.31,-124.23 106.71,-114.6 99.74,-113.95"/>
<text text-anchor="middle" x="121.5" y="-98" font-family="Helvetica" font-size="10.00"> api_util</text>
</g>
<!-- Node4 -->
<g id="node4" class="node">
<title>Node4</title>
<g id="a_node4"><a xlink:title=" ">
<polygon fill="white" stroke="#bfbfbf" points="24.5,-246.5 24.5,-265.5 70.5,-265.5 70.5,-246.5 24.5,-246.5"/>
<text text-anchor="middle" x="47.5" y="-253.5" font-family="Helvetica" font-size="10.00">int32_t</text>
</a>
</g>
</g>
<!-- Node4&#45;&gt;Node1 -->
<g id="edge4" class="edge">
<title>Node4&#45;&gt;Node1</title>
<path fill="none" stroke="#9a32cd" stroke-dasharray="5,2" d="M46.05,-236.07C44,-206.09 40.88,-145.89 44.5,-95 46.46,-67.37 52.01,-35.02 54.83,-19.78"/>
<polygon fill="#9a32cd" stroke="#9a32cd" points="42.58,-236.59 46.79,-246.31 49.56,-236.09 42.58,-236.59"/>
<text text-anchor="middle" x="72" y="-98" font-family="Helvetica" font-size="10.00"> dss_cls_idx</text>
</g>
<!-- Node4&#45;&gt;Node3 -->
<g id="edge3" class="edge">
<title>Node4&#45;&gt;Node3</title>
<path fill="none" stroke="#9a32cd" stroke-dasharray="5,2" d="M55.51,-237.2C67.3,-210.99 88.89,-163.02 97.65,-143.55"/>
<polygon fill="#9a32cd" stroke="#9a32cd" points="52.3,-235.81 51.38,-246.37 58.68,-238.69 52.3,-235.81"/>
<text text-anchor="middle" x="129" y="-220" font-family="Helvetica" font-size="10.00"> count_PByte</text>
<text text-anchor="middle" x="129" y="-209" font-family="Helvetica" font-size="10.00">count_PDouble</text>
<text text-anchor="middle" x="129" y="-198" font-family="Helvetica" font-size="10.00">count_PInteger</text>
<text text-anchor="middle" x="129" y="-187" font-family="Helvetica" font-size="10.00">count_PPAnsiChar</text>
<text text-anchor="middle" x="129" y="-176" font-family="Helvetica" font-size="10.00">data_PInteger</text>
<text text-anchor="middle" x="129" y="-165" font-family="Helvetica" font-size="10.00">error_ptr</text>
</g>
</g>
</svg>
