<?xml version="1.0" encoding="UTF-8" standalone="no"?>
<!DOCTYPE svg PUBLIC "-//W3C//DTD SVG 1.1//EN"
 "http://www.w3.org/Graphics/SVG/1.1/DTD/svg11.dtd">
<!-- Generated by graphviz version 2.47.2 (20210527.1257)
 -->
<!-- Title: dss::obj::XYcurveBatch Pages: 1 -->
<svg width="188pt" height="274pt"
 viewBox="0.00 0.00 188.00 274.00" xmlns="http://www.w3.org/2000/svg" xmlns:xlink="http://www.w3.org/1999/xlink">
<g id="graph0" class="graph" transform="scale(1 1) rotate(0) translate(4 270)">
<title>dss::obj::XYcurveBatch</title>
<polygon fill="white" stroke="transparent" points="-4,4 -4,-270 184,-270 184,4 -4,4"/>
<!-- Node1 -->
<g id="node1" class="node">
<title>Node1</title>
<g id="a_node1"><a xlink:title=" ">
<polygon fill="#bfbfbf" stroke="black" points="0,-0.5 0,-19.5 120,-19.5 120,-0.5 0,-0.5"/>
<text text-anchor="middle" x="60" y="-7.5" font-family="Helvetica" font-size="10.00">dss::obj::XYcurveBatch</text>
</a>
</g>
</g>
<!-- Node2 -->
<g id="node2" class="node">
<title>Node2</title>
<g id="a_node2"><a xlink:href="classdss_1_1obj_1_1DSSBatch.html" target="_top" xlink:title=" ">
<polygon fill="white" stroke="#bfbfbf" points="8,-57.5 8,-76.5 112,-76.5 112,-57.5 8,-57.5"/>
<text text-anchor="middle" x="60" y="-64.5" font-family="Helvetica" font-size="10.00">dss::obj::DSSBatch</text>
</a>
</g>
</g>
<!-- Node2&#45;&gt;Node1 -->
<g id="edge1" class="edge">
<title>Node2&#45;&gt;Node1</title>
<path fill="none" stroke="midnightblue" d="M60,-47.12C60,-37.82 60,-27.06 60,-19.71"/>
<polygon fill="midnightblue" stroke="midnightblue" points="56.5,-47.41 60,-57.41 63.5,-47.41 56.5,-47.41"/>
</g>
<!-- Node3 -->
<g id="node3" class="node">
<title>Node3</title>
<g id="a_node3"><a xlink:href="structdss_1_1APIUtil.html" target="_top" xlink:title=" ">
<polygon fill="white" stroke="#bfbfbf" points="78,-124.5 78,-143.5 148,-143.5 148,-124.5 78,-124.5"/>
<text text-anchor="middle" x="113" y="-131.5" font-family="Helvetica" font-size="10.00">dss::APIUtil</text>
</a>
</g>
</g>
<!-- Node3&#45;&gt;Node2 -->
<g id="edge2" class="edge">
<title>Node3&#45;&gt;Node2</title>
<path fill="none" stroke="#9a32cd" stroke-dasharray="5,2" d="M99.36,-116.27C89.03,-103.6 75.25,-86.7 67.03,-76.63"/>
<polygon fill="#9a32cd" stroke="#9a32cd" points="96.82,-118.7 105.85,-124.23 102.25,-114.27 96.82,-118.7"/>
<text text-anchor="middle" x="106" y="-98" font-family="Helvetica" font-size="10.00"> api_util</text>
</g>
<!-- Node4 -->
<g id="node4" class="node">
<title>Node4</title>
<g id="a_node4"><a xlink:title=" ">
<polygon fill="white" stroke="#bfbfbf" points="25,-246.5 25,-265.5 71,-265.5 71,-246.5 25,-246.5"/>
<text text-anchor="middle" x="48" y="-253.5" font-family="Helvetica" font-size="10.00">int32_t</text>
</a>
</g>
</g>
<!-- Node4&#45;&gt;Node2 -->
<g id="edge4" class="edge">
<title>Node4&#45;&gt;Node2</title>
<path fill="none" stroke="#9a32cd" stroke-dasharray="5,2" d="M44.47,-236.22C40.23,-210.66 34.47,-163.56 41,-124 43.88,-106.58 51.46,-87.29 56.13,-76.5"/>
<polygon fill="#9a32cd" stroke="#9a32cd" points="41.07,-237.11 46.26,-246.35 47.96,-235.89 41.07,-237.11"/>
<text text-anchor="middle" x="55" y="-131.5" font-family="Helvetica" font-size="10.00"> count</text>
</g>
<!-- Node4&#45;&gt;Node3 -->
<g id="edge3" class="edge">
<title>Node4&#45;&gt;Node3</title>
<path fill="none" stroke="#9a32cd" stroke-dasharray="5,2" d="M57.45,-237.55C71.61,-211.42 97.77,-163.11 108.37,-143.55"/>
<polygon fill="#9a32cd" stroke="#9a32cd" points="54.36,-235.91 52.67,-246.37 60.52,-239.24 54.36,-235.91"/>
<text text-anchor="middle" x="138.5" y="-220" font-family="Helvetica" font-size="10.00"> count_PByte</text>
<text text-anchor="middle" x="138.5" y="-209" font-family="Helvetica" font-size="10.00">count_PDouble</text>
<text text-anchor="middle" x="138.5" y="-198" font-family="Helvetica" font-size="10.00">count_PInteger</text>
<text text-anchor="middle" x="138.5" y="-187" font-family="Helvetica" font-size="10.00">count_PPAnsiChar</text>
<text text-anchor="middle" x="138.5" y="-176" font-family="Helvetica" font-size="10.00">data_PInteger</text>
<text text-anchor="middle" x="138.5" y="-165" font-family="Helvetica" font-size="10.00">error_ptr</text>
</g>
</g>
</svg>
