<?xml version="1.0" encoding="UTF-8" standalone="no"?>
<!DOCTYPE svg PUBLIC "-//W3C//DTD SVG 1.1//EN"
 "http://www.w3.org/Graphics/SVG/1.1/DTD/svg11.dtd">
<!-- Generated by graphviz version 2.47.2 (20210527.1257)
 -->
<!-- Title: dss::classic::IXYCurves Pages: 1 -->
<svg width="152pt" height="274pt"
 viewBox="0.00 0.00 152.00 274.00" xmlns="http://www.w3.org/2000/svg" xmlns:xlink="http://www.w3.org/1999/xlink">
<g id="graph0" class="graph" transform="scale(1 1) rotate(0) translate(4 270)">
<title>dss::classic::IXYCurves</title>
<polygon fill="white" stroke="transparent" points="-4,4 -4,-270 148,-270 148,4 -4,4"/>
<!-- Node1 -->
<g id="node1" class="node">
<title>Node1</title>
<g id="a_node1"><a xlink:title=" ">
<polygon fill="#bfbfbf" stroke="black" points="0,-0.5 0,-19.5 122,-19.5 122,-0.5 0,-0.5"/>
<text text-anchor="middle" x="61" y="-7.5" font-family="Helvetica" font-size="10.00">dss::classic::IXYCurves</text>
</a>
</g>
</g>
<!-- Node2 -->
<g id="node2" class="node">
<title>Node2</title>
<g id="a_node2"><a xlink:href="classdss_1_1ContextState.html" target="_top" xlink:title="Wraps common DSSContext state data.">
<polygon fill="white" stroke="black" points="13,-57.5 13,-76.5 109,-76.5 109,-57.5 13,-57.5"/>
<text text-anchor="middle" x="61" y="-64.5" font-family="Helvetica" font-size="10.00">dss::ContextState</text>
</a>
</g>
</g>
<!-- Node2&#45;&gt;Node1 -->
<g id="edge1" class="edge">
<title>Node2&#45;&gt;Node1</title>
<path fill="none" stroke="midnightblue" d="M61,-47.12C61,-37.82 61,-27.06 61,-19.71"/>
<polygon fill="midnightblue" stroke="midnightblue" points="57.5,-47.41 61,-57.41 64.5,-47.41 57.5,-47.41"/>
</g>
<!-- Node3 -->
<g id="node3" class="node">
<title>Node3</title>
<g id="a_node3"><a xlink:href="structdss_1_1APIUtil.html" target="_top" xlink:title=" ">
<polygon fill="white" stroke="#bfbfbf" points="26,-124.5 26,-143.5 96,-143.5 96,-124.5 26,-124.5"/>
<text text-anchor="middle" x="61" y="-131.5" font-family="Helvetica" font-size="10.00">dss::APIUtil</text>
</a>
</g>
</g>
<!-- Node3&#45;&gt;Node2 -->
<g id="edge2" class="edge">
<title>Node3&#45;&gt;Node2</title>
<path fill="none" stroke="#9a32cd" stroke-dasharray="5,2" d="M61,-114.04C61,-101.67 61,-86.12 61,-76.63"/>
<polygon fill="#9a32cd" stroke="#9a32cd" points="57.5,-114.23 61,-124.23 64.5,-114.23 57.5,-114.23"/>
<text text-anchor="middle" x="78" y="-98" font-family="Helvetica" font-size="10.00"> api_util</text>
</g>
<!-- Node4 -->
<g id="node4" class="node">
<title>Node4</title>
<g id="a_node4"><a xlink:title=" ">
<polygon fill="white" stroke="#bfbfbf" points="38,-246.5 38,-265.5 84,-265.5 84,-246.5 38,-246.5"/>
<text text-anchor="middle" x="61" y="-253.5" font-family="Helvetica" font-size="10.00">int32_t</text>
</a>
</g>
</g>
<!-- Node4&#45;&gt;Node3 -->
<g id="edge3" class="edge">
<title>Node4&#45;&gt;Node3</title>
<path fill="none" stroke="#9a32cd" stroke-dasharray="5,2" d="M61,-236.15C61,-209.72 61,-162.76 61,-143.55"/>
<polygon fill="#9a32cd" stroke="#9a32cd" points="57.5,-236.37 61,-246.37 64.5,-236.37 57.5,-236.37"/>
<text text-anchor="middle" x="102.5" y="-220" font-family="Helvetica" font-size="10.00"> count_PByte</text>
<text text-anchor="middle" x="102.5" y="-209" font-family="Helvetica" font-size="10.00">count_PDouble</text>
<text text-anchor="middle" x="102.5" y="-198" font-family="Helvetica" font-size="10.00">count_PInteger</text>
<text text-anchor="middle" x="102.5" y="-187" font-family="Helvetica" font-size="10.00">count_PPAnsiChar</text>
<text text-anchor="middle" x="102.5" y="-176" font-family="Helvetica" font-size="10.00">data_PInteger</text>
<text text-anchor="middle" x="102.5" y="-165" font-family="Helvetica" font-size="10.00">error_ptr</text>
</g>
</g>
</svg>
