<?xml version="1.0" encoding="UTF-8" standalone="no"?>
<!DOCTYPE svg PUBLIC "-//W3C//DTD SVG 1.1//EN"
 "http://www.w3.org/Graphics/SVG/1.1/DTD/svg11.dtd">
<!-- Generated by graphviz version 2.47.2 (20210527.1257)
 -->
<!-- Title: dss::obj::Sensor Pages: 1 -->
<svg width="166pt" height="274pt"
 viewBox="0.00 0.00 166.00 274.00" xmlns="http://www.w3.org/2000/svg" xmlns:xlink="http://www.w3.org/1999/xlink">
<g id="graph0" class="graph" transform="scale(1 1) rotate(0) translate(4 270)">
<title>dss::obj::Sensor</title>
<polygon fill="white" stroke="transparent" points="-4,4 -4,-270 162,-270 162,4 -4,4"/>
<!-- Node1 -->
<g id="node1" class="node">
<title>Node1</title>
<g id="a_node1"><a xlink:title=" ">
<polygon fill="#bfbfbf" stroke="black" points="0,-0.5 0,-19.5 88,-19.5 88,-0.5 0,-0.5"/>
<text text-anchor="middle" x="44" y="-7.5" font-family="Helvetica" font-size="10.00">dss::obj::Sensor</text>
</a>
</g>
</g>
<!-- Node2 -->
<g id="node2" class="node">
<title>Node2</title>
<g id="a_node2"><a xlink:href="classdss_1_1obj_1_1DSSObj.html" target="_top" xlink:title=" ">
<polygon fill="white" stroke="#bfbfbf" points="48.5,-57.5 48.5,-76.5 141.5,-76.5 141.5,-57.5 48.5,-57.5"/>
<text text-anchor="middle" x="95" y="-64.5" font-family="Helvetica" font-size="10.00">dss::obj::DSSObj</text>
</a>
</g>
</g>
<!-- Node2&#45;&gt;Node1 -->
<g id="edge1" class="edge">
<title>Node2&#45;&gt;Node1</title>
<path fill="none" stroke="midnightblue" d="M80,-49.83C70.87,-39.98 59.56,-27.78 52.08,-19.71"/>
<polygon fill="midnightblue" stroke="midnightblue" points="77.67,-52.45 87.03,-57.41 82.8,-47.69 77.67,-52.45"/>
</g>
<!-- Node3 -->
<g id="node3" class="node">
<title>Node3</title>
<g id="a_node3"><a xlink:href="structdss_1_1APIUtil.html" target="_top" xlink:title=" ">
<polygon fill="white" stroke="#bfbfbf" points="54,-124.5 54,-143.5 124,-143.5 124,-124.5 54,-124.5"/>
<text text-anchor="middle" x="89" y="-131.5" font-family="Helvetica" font-size="10.00">dss::APIUtil</text>
</a>
</g>
</g>
<!-- Node3&#45;&gt;Node2 -->
<g id="edge2" class="edge">
<title>Node3&#45;&gt;Node2</title>
<path fill="none" stroke="#9a32cd" stroke-dasharray="5,2" d="M90.75,-114.04C91.89,-101.67 93.33,-86.12 94.2,-76.63"/>
<polygon fill="#9a32cd" stroke="#9a32cd" points="87.24,-113.95 89.81,-124.23 94.21,-114.6 87.24,-113.95"/>
<text text-anchor="middle" x="109" y="-98" font-family="Helvetica" font-size="10.00"> api_util</text>
</g>
<!-- Node4 -->
<g id="node4" class="node">
<title>Node4</title>
<g id="a_node4"><a xlink:title=" ">
<polygon fill="white" stroke="#bfbfbf" points="12,-246.5 12,-265.5 58,-265.5 58,-246.5 12,-246.5"/>
<text text-anchor="middle" x="35" y="-253.5" font-family="Helvetica" font-size="10.00">int32_t</text>
</a>
</g>
</g>
<!-- Node4&#45;&gt;Node1 -->
<g id="edge4" class="edge">
<title>Node4&#45;&gt;Node1</title>
<path fill="none" stroke="#9a32cd" stroke-dasharray="5,2" d="M33.55,-236.07C31.5,-206.09 28.38,-145.89 32,-95 33.96,-67.37 39.51,-35.02 42.33,-19.78"/>
<polygon fill="#9a32cd" stroke="#9a32cd" points="30.08,-236.59 34.29,-246.31 37.06,-236.09 30.08,-236.59"/>
<text text-anchor="middle" x="59.5" y="-98" font-family="Helvetica" font-size="10.00"> dss_cls_idx</text>
</g>
<!-- Node4&#45;&gt;Node3 -->
<g id="edge3" class="edge">
<title>Node4&#45;&gt;Node3</title>
<path fill="none" stroke="#9a32cd" stroke-dasharray="5,2" d="M43.01,-237.2C54.8,-210.99 76.39,-163.02 85.15,-143.55"/>
<polygon fill="#9a32cd" stroke="#9a32cd" points="39.8,-235.81 38.88,-246.37 46.18,-238.69 39.8,-235.81"/>
<text text-anchor="middle" x="116.5" y="-220" font-family="Helvetica" font-size="10.00"> count_PByte</text>
<text text-anchor="middle" x="116.5" y="-209" font-family="Helvetica" font-size="10.00">count_PDouble</text>
<text text-anchor="middle" x="116.5" y="-198" font-family="Helvetica" font-size="10.00">count_PInteger</text>
<text text-anchor="middle" x="116.5" y="-187" font-family="Helvetica" font-size="10.00">count_PPAnsiChar</text>
<text text-anchor="middle" x="116.5" y="-176" font-family="Helvetica" font-size="10.00">data_PInteger</text>
<text text-anchor="middle" x="116.5" y="-165" font-family="Helvetica" font-size="10.00">error_ptr</text>
</g>
</g>
</svg>
