<?xml version="1.0" encoding="UTF-8" standalone="no"?>
<!DOCTYPE svg PUBLIC "-//W3C//DTD SVG 1.1//EN"
 "http://www.w3.org/Graphics/SVG/1.1/DTD/svg11.dtd">
<!-- Generated by graphviz version 2.47.2 (20210527.1257)
 -->
<!-- Title: dss::obj::DSSObj Pages: 1 -->
<svg width="138pt" height="217pt"
 viewBox="0.00 0.00 137.50 217.00" xmlns="http://www.w3.org/2000/svg" xmlns:xlink="http://www.w3.org/1999/xlink">
<g id="graph0" class="graph" transform="scale(1 1) rotate(0) translate(4 213)">
<title>dss::obj::DSSObj</title>
<polygon fill="white" stroke="transparent" points="-4,4 -4,-213 133.5,-213 133.5,4 -4,4"/>
<!-- Node1 -->
<g id="node1" class="node">
<title>Node1</title>
<g id="a_node1"><a xlink:title=" ">
<polygon fill="#bfbfbf" stroke="black" points="0,-0.5 0,-19.5 93,-19.5 93,-0.5 0,-0.5"/>
<text text-anchor="middle" x="46.5" y="-7.5" font-family="Helvetica" font-size="10.00">dss::obj::DSSObj</text>
</a>
</g>
</g>
<!-- Node2 -->
<g id="node2" class="node">
<title>Node2</title>
<g id="a_node2"><a xlink:href="structdss_1_1APIUtil.html" target="_top" xlink:title=" ">
<polygon fill="white" stroke="#bfbfbf" points="11.5,-67.5 11.5,-86.5 81.5,-86.5 81.5,-67.5 11.5,-67.5"/>
<text text-anchor="middle" x="46.5" y="-74.5" font-family="Helvetica" font-size="10.00">dss::APIUtil</text>
</a>
</g>
</g>
<!-- Node2&#45;&gt;Node1 -->
<g id="edge1" class="edge">
<title>Node2&#45;&gt;Node1</title>
<path fill="none" stroke="#9a32cd" stroke-dasharray="5,2" d="M46.5,-57.04C46.5,-44.67 46.5,-29.12 46.5,-19.63"/>
<polygon fill="#9a32cd" stroke="#9a32cd" points="43,-57.23 46.5,-67.23 50,-57.23 43,-57.23"/>
<text text-anchor="middle" x="63.5" y="-41" font-family="Helvetica" font-size="10.00"> api_util</text>
</g>
<!-- Node3 -->
<g id="node3" class="node">
<title>Node3</title>
<g id="a_node3"><a xlink:title=" ">
<polygon fill="white" stroke="#bfbfbf" points="23.5,-189.5 23.5,-208.5 69.5,-208.5 69.5,-189.5 23.5,-189.5"/>
<text text-anchor="middle" x="46.5" y="-196.5" font-family="Helvetica" font-size="10.00">int32_t</text>
</a>
</g>
</g>
<!-- Node3&#45;&gt;Node2 -->
<g id="edge2" class="edge">
<title>Node3&#45;&gt;Node2</title>
<path fill="none" stroke="#9a32cd" stroke-dasharray="5,2" d="M46.5,-179.15C46.5,-152.72 46.5,-105.76 46.5,-86.55"/>
<polygon fill="#9a32cd" stroke="#9a32cd" points="43,-179.37 46.5,-189.37 50,-179.37 43,-179.37"/>
<text text-anchor="middle" x="88" y="-163" font-family="Helvetica" font-size="10.00"> count_PByte</text>
<text text-anchor="middle" x="88" y="-152" font-family="Helvetica" font-size="10.00">count_PDouble</text>
<text text-anchor="middle" x="88" y="-141" font-family="Helvetica" font-size="10.00">count_PInteger</text>
<text text-anchor="middle" x="88" y="-130" font-family="Helvetica" font-size="10.00">count_PPAnsiChar</text>
<text text-anchor="middle" x="88" y="-119" font-family="Helvetica" font-size="10.00">data_PInteger</text>
<text text-anchor="middle" x="88" y="-108" font-family="Helvetica" font-size="10.00">error_ptr</text>
</g>
</g>
</svg>
