<?xml version="1.0" encoding="UTF-8" standalone="no"?>
<!DOCTYPE svg PUBLIC "-//W3C//DTD SVG 1.1//EN"
 "http://www.w3.org/Graphics/SVG/1.1/DTD/svg11.dtd">
<!-- Generated by graphviz version 2.47.2 (20210527.1257)
 -->
<!-- Title: dss::classic::IReactors Pages: 1 -->
<svg width="150pt" height="274pt"
 viewBox="0.00 0.00 150.00 274.00" xmlns="http://www.w3.org/2000/svg" xmlns:xlink="http://www.w3.org/1999/xlink">
<g id="graph0" class="graph" transform="scale(1 1) rotate(0) translate(4 270)">
<title>dss::classic::IReactors</title>
<polygon fill="white" stroke="transparent" points="-4,4 -4,-270 146,-270 146,4 -4,4"/>
<!-- Node1 -->
<g id="node1" class="node">
<title>Node1</title>
<g id="a_node1"><a xlink:title=" ">
<polygon fill="#bfbfbf" stroke="black" points="0,-0.5 0,-19.5 118,-19.5 118,-0.5 0,-0.5"/>
<text text-anchor="middle" x="59" y="-7.5" font-family="Helvetica" font-size="10.00">dss::classic::IReactors</text>
</a>
</g>
</g>
<!-- Node2 -->
<g id="node2" class="node">
<title>Node2</title>
<g id="a_node2"><a xlink:href="classdss_1_1ContextState.html" target="_top" xlink:title="Wraps common DSSContext state data.">
<polygon fill="white" stroke="black" points="11,-57.5 11,-76.5 107,-76.5 107,-57.5 11,-57.5"/>
<text text-anchor="middle" x="59" y="-64.5" font-family="Helvetica" font-size="10.00">dss::ContextState</text>
</a>
</g>
</g>
<!-- Node2&#45;&gt;Node1 -->
<g id="edge1" class="edge">
<title>Node2&#45;&gt;Node1</title>
<path fill="none" stroke="midnightblue" d="M59,-47.12C59,-37.82 59,-27.06 59,-19.71"/>
<polygon fill="midnightblue" stroke="midnightblue" points="55.5,-47.41 59,-57.41 62.5,-47.41 55.5,-47.41"/>
</g>
<!-- Node3 -->
<g id="node3" class="node">
<title>Node3</title>
<g id="a_node3"><a xlink:href="structdss_1_1APIUtil.html" target="_top" xlink:title=" ">
<polygon fill="white" stroke="#bfbfbf" points="24,-124.5 24,-143.5 94,-143.5 94,-124.5 24,-124.5"/>
<text text-anchor="middle" x="59" y="-131.5" font-family="Helvetica" font-size="10.00">dss::APIUtil</text>
</a>
</g>
</g>
<!-- Node3&#45;&gt;Node2 -->
<g id="edge2" class="edge">
<title>Node3&#45;&gt;Node2</title>
<path fill="none" stroke="#9a32cd" stroke-dasharray="5,2" d="M59,-114.04C59,-101.67 59,-86.12 59,-76.63"/>
<polygon fill="#9a32cd" stroke="#9a32cd" points="55.5,-114.23 59,-124.23 62.5,-114.23 55.5,-114.23"/>
<text text-anchor="middle" x="76" y="-98" font-family="Helvetica" font-size="10.00"> api_util</text>
</g>
<!-- Node4 -->
<g id="node4" class="node">
<title>Node4</title>
<g id="a_node4"><a xlink:title=" ">
<polygon fill="white" stroke="#bfbfbf" points="36,-246.5 36,-265.5 82,-265.5 82,-246.5 36,-246.5"/>
<text text-anchor="middle" x="59" y="-253.5" font-family="Helvetica" font-size="10.00">int32_t</text>
</a>
</g>
</g>
<!-- Node4&#45;&gt;Node3 -->
<g id="edge3" class="edge">
<title>Node4&#45;&gt;Node3</title>
<path fill="none" stroke="#9a32cd" stroke-dasharray="5,2" d="M59,-236.15C59,-209.72 59,-162.76 59,-143.55"/>
<polygon fill="#9a32cd" stroke="#9a32cd" points="55.5,-236.37 59,-246.37 62.5,-236.37 55.5,-236.37"/>
<text text-anchor="middle" x="100.5" y="-220" font-family="Helvetica" font-size="10.00"> count_PByte</text>
<text text-anchor="middle" x="100.5" y="-209" font-family="Helvetica" font-size="10.00">count_PDouble</text>
<text text-anchor="middle" x="100.5" y="-198" font-family="Helvetica" font-size="10.00">count_PInteger</text>
<text text-anchor="middle" x="100.5" y="-187" font-family="Helvetica" font-size="10.00">count_PPAnsiChar</text>
<text text-anchor="middle" x="100.5" y="-176" font-family="Helvetica" font-size="10.00">data_PInteger</text>
<text text-anchor="middle" x="100.5" y="-165" font-family="Helvetica" font-size="10.00">error_ptr</text>
</g>
</g>
</svg>
