<?xml version="1.0" encoding="UTF-8" standalone="no"?>
<!DOCTYPE svg PUBLIC "-//W3C//DTD SVG 1.1//EN"
 "http://www.w3.org/Graphics/SVG/1.1/DTD/svg11.dtd">
<!-- Generated by graphviz version 2.47.2 (20210527.1257)
 -->
<!-- Title: dss::obj::LineCode Pages: 1 -->
<svg width="171pt" height="274pt"
 viewBox="0.00 0.00 171.00 274.00" xmlns="http://www.w3.org/2000/svg" xmlns:xlink="http://www.w3.org/1999/xlink">
<g id="graph0" class="graph" transform="scale(1 1) rotate(0) translate(4 270)">
<title>dss::obj::LineCode</title>
<polygon fill="white" stroke="transparent" points="-4,4 -4,-270 167,-270 167,4 -4,4"/>
<!-- Node1 -->
<g id="node1" class="node">
<title>Node1</title>
<g id="a_node1"><a xlink:title=" ">
<polygon fill="#bfbfbf" stroke="black" points="0,-0.5 0,-19.5 98,-19.5 98,-0.5 0,-0.5"/>
<text text-anchor="middle" x="49" y="-7.5" font-family="Helvetica" font-size="10.00">dss::obj::LineCode</text>
</a>
</g>
</g>
<!-- Node2 -->
<g id="node2" class="node">
<title>Node2</title>
<g id="a_node2"><a xlink:href="classdss_1_1obj_1_1DSSObj.html" target="_top" xlink:title=" ">
<polygon fill="white" stroke="#bfbfbf" points="53.5,-57.5 53.5,-76.5 146.5,-76.5 146.5,-57.5 53.5,-57.5"/>
<text text-anchor="middle" x="100" y="-64.5" font-family="Helvetica" font-size="10.00">dss::obj::DSSObj</text>
</a>
</g>
</g>
<!-- Node2&#45;&gt;Node1 -->
<g id="edge1" class="edge">
<title>Node2&#45;&gt;Node1</title>
<path fill="none" stroke="midnightblue" d="M85,-49.83C75.87,-39.98 64.56,-27.78 57.08,-19.71"/>
<polygon fill="midnightblue" stroke="midnightblue" points="82.67,-52.45 92.03,-57.41 87.8,-47.69 82.67,-52.45"/>
</g>
<!-- Node3 -->
<g id="node3" class="node">
<title>Node3</title>
<g id="a_node3"><a xlink:href="structdss_1_1APIUtil.html" target="_top" xlink:title=" ">
<polygon fill="white" stroke="#bfbfbf" points="59,-124.5 59,-143.5 129,-143.5 129,-124.5 59,-124.5"/>
<text text-anchor="middle" x="94" y="-131.5" font-family="Helvetica" font-size="10.00">dss::APIUtil</text>
</a>
</g>
</g>
<!-- Node3&#45;&gt;Node2 -->
<g id="edge2" class="edge">
<title>Node3&#45;&gt;Node2</title>
<path fill="none" stroke="#9a32cd" stroke-dasharray="5,2" d="M95.75,-114.04C96.89,-101.67 98.33,-86.12 99.2,-76.63"/>
<polygon fill="#9a32cd" stroke="#9a32cd" points="92.24,-113.95 94.81,-124.23 99.21,-114.6 92.24,-113.95"/>
<text text-anchor="middle" x="114" y="-98" font-family="Helvetica" font-size="10.00"> api_util</text>
</g>
<!-- Node4 -->
<g id="node4" class="node">
<title>Node4</title>
<g id="a_node4"><a xlink:title=" ">
<polygon fill="white" stroke="#bfbfbf" points="17,-246.5 17,-265.5 63,-265.5 63,-246.5 17,-246.5"/>
<text text-anchor="middle" x="40" y="-253.5" font-family="Helvetica" font-size="10.00">int32_t</text>
</a>
</g>
</g>
<!-- Node4&#45;&gt;Node1 -->
<g id="edge4" class="edge">
<title>Node4&#45;&gt;Node1</title>
<path fill="none" stroke="#9a32cd" stroke-dasharray="5,2" d="M38.55,-236.07C36.5,-206.09 33.38,-145.89 37,-95 38.96,-67.37 44.51,-35.02 47.33,-19.78"/>
<polygon fill="#9a32cd" stroke="#9a32cd" points="35.08,-236.59 39.29,-246.31 42.06,-236.09 35.08,-236.59"/>
<text text-anchor="middle" x="64.5" y="-98" font-family="Helvetica" font-size="10.00"> dss_cls_idx</text>
</g>
<!-- Node4&#45;&gt;Node3 -->
<g id="edge3" class="edge">
<title>Node4&#45;&gt;Node3</title>
<path fill="none" stroke="#9a32cd" stroke-dasharray="5,2" d="M48.01,-237.2C59.8,-210.99 81.39,-163.02 90.15,-143.55"/>
<polygon fill="#9a32cd" stroke="#9a32cd" points="44.8,-235.81 43.88,-246.37 51.18,-238.69 44.8,-235.81"/>
<text text-anchor="middle" x="121.5" y="-220" font-family="Helvetica" font-size="10.00"> count_PByte</text>
<text text-anchor="middle" x="121.5" y="-209" font-family="Helvetica" font-size="10.00">count_PDouble</text>
<text text-anchor="middle" x="121.5" y="-198" font-family="Helvetica" font-size="10.00">count_PInteger</text>
<text text-anchor="middle" x="121.5" y="-187" font-family="Helvetica" font-size="10.00">count_PPAnsiChar</text>
<text text-anchor="middle" x="121.5" y="-176" font-family="Helvetica" font-size="10.00">data_PInteger</text>
<text text-anchor="middle" x="121.5" y="-165" font-family="Helvetica" font-size="10.00">error_ptr</text>
</g>
</g>
</svg>
