<?xml version="1.0" encoding="UTF-8" standalone="no"?>
<!DOCTYPE svg PUBLIC "-//W3C//DTD SVG 1.1//EN"
 "http://www.w3.org/Graphics/SVG/1.1/DTD/svg11.dtd">
<!-- Generated by graphviz version 2.47.2 (20210527.1257)
 -->
<!-- Title: dss::classic::IBus Pages: 1 -->
<svg width="139pt" height="274pt"
 viewBox="0.00 0.00 139.00 274.00" xmlns="http://www.w3.org/2000/svg" xmlns:xlink="http://www.w3.org/1999/xlink">
<g id="graph0" class="graph" transform="scale(1 1) rotate(0) translate(4 270)">
<title>dss::classic::IBus</title>
<polygon fill="white" stroke="transparent" points="-4,4 -4,-270 135,-270 135,4 -4,4"/>
<!-- Node1 -->
<g id="node1" class="node">
<title>Node1</title>
<g id="a_node1"><a xlink:title=" ">
<polygon fill="#bfbfbf" stroke="black" points="0.5,-0.5 0.5,-19.5 95.5,-19.5 95.5,-0.5 0.5,-0.5"/>
<text text-anchor="middle" x="48" y="-7.5" font-family="Helvetica" font-size="10.00">dss::classic::IBus</text>
</a>
</g>
</g>
<!-- Node2 -->
<g id="node2" class="node">
<title>Node2</title>
<g id="a_node2"><a xlink:href="classdss_1_1ContextState.html" target="_top" xlink:title="Wraps common DSSContext state data.">
<polygon fill="white" stroke="black" points="0,-57.5 0,-76.5 96,-76.5 96,-57.5 0,-57.5"/>
<text text-anchor="middle" x="48" y="-64.5" font-family="Helvetica" font-size="10.00">dss::ContextState</text>
</a>
</g>
</g>
<!-- Node2&#45;&gt;Node1 -->
<g id="edge1" class="edge">
<title>Node2&#45;&gt;Node1</title>
<path fill="none" stroke="midnightblue" d="M48,-47.12C48,-37.82 48,-27.06 48,-19.71"/>
<polygon fill="midnightblue" stroke="midnightblue" points="44.5,-47.41 48,-57.41 51.5,-47.41 44.5,-47.41"/>
</g>
<!-- Node3 -->
<g id="node3" class="node">
<title>Node3</title>
<g id="a_node3"><a xlink:href="structdss_1_1APIUtil.html" target="_top" xlink:title=" ">
<polygon fill="white" stroke="#bfbfbf" points="13,-124.5 13,-143.5 83,-143.5 83,-124.5 13,-124.5"/>
<text text-anchor="middle" x="48" y="-131.5" font-family="Helvetica" font-size="10.00">dss::APIUtil</text>
</a>
</g>
</g>
<!-- Node3&#45;&gt;Node2 -->
<g id="edge2" class="edge">
<title>Node3&#45;&gt;Node2</title>
<path fill="none" stroke="#9a32cd" stroke-dasharray="5,2" d="M48,-114.04C48,-101.67 48,-86.12 48,-76.63"/>
<polygon fill="#9a32cd" stroke="#9a32cd" points="44.5,-114.23 48,-124.23 51.5,-114.23 44.5,-114.23"/>
<text text-anchor="middle" x="65" y="-98" font-family="Helvetica" font-size="10.00"> api_util</text>
</g>
<!-- Node4 -->
<g id="node4" class="node">
<title>Node4</title>
<g id="a_node4"><a xlink:title=" ">
<polygon fill="white" stroke="#bfbfbf" points="25,-246.5 25,-265.5 71,-265.5 71,-246.5 25,-246.5"/>
<text text-anchor="middle" x="48" y="-253.5" font-family="Helvetica" font-size="10.00">int32_t</text>
</a>
</g>
</g>
<!-- Node4&#45;&gt;Node3 -->
<g id="edge3" class="edge">
<title>Node4&#45;&gt;Node3</title>
<path fill="none" stroke="#9a32cd" stroke-dasharray="5,2" d="M48,-236.15C48,-209.72 48,-162.76 48,-143.55"/>
<polygon fill="#9a32cd" stroke="#9a32cd" points="44.5,-236.37 48,-246.37 51.5,-236.37 44.5,-236.37"/>
<text text-anchor="middle" x="89.5" y="-220" font-family="Helvetica" font-size="10.00"> count_PByte</text>
<text text-anchor="middle" x="89.5" y="-209" font-family="Helvetica" font-size="10.00">count_PDouble</text>
<text text-anchor="middle" x="89.5" y="-198" font-family="Helvetica" font-size="10.00">count_PInteger</text>
<text text-anchor="middle" x="89.5" y="-187" font-family="Helvetica" font-size="10.00">count_PPAnsiChar</text>
<text text-anchor="middle" x="89.5" y="-176" font-family="Helvetica" font-size="10.00">data_PInteger</text>
<text text-anchor="middle" x="89.5" y="-165" font-family="Helvetica" font-size="10.00">error_ptr</text>
</g>
</g>
</svg>
