<?xml version="1.0" encoding="UTF-8" standalone="no"?>
<!DOCTYPE svg PUBLIC "-//W3C//DTD SVG 1.1//EN"
 "http://www.w3.org/Graphics/SVG/1.1/DTD/svg11.dtd">
<!-- Generated by graphviz version 2.47.2 (20210527.1257)
 -->
<!-- Title: dss::obj::StorageControllerBatch Pages: 1 -->
<svg width="195pt" height="285pt"
 viewBox="0.00 0.00 194.50 285.00" xmlns="http://www.w3.org/2000/svg" xmlns:xlink="http://www.w3.org/1999/xlink">
<g id="graph0" class="graph" transform="scale(1 1) rotate(0) translate(4 281)">
<title>dss::obj::StorageControllerBatch</title>
<polygon fill="white" stroke="transparent" points="-4,4 -4,-281 190.5,-281 190.5,4 -4,4"/>
<!-- Node1 -->
<g id="node1" class="node">
<title>Node1</title>
<g id="a_node1"><a xlink:title=" ">
<polygon fill="#bfbfbf" stroke="black" points="0,-0.5 0,-30.5 133,-30.5 133,-0.5 0,-0.5"/>
<text text-anchor="start" x="8" y="-18.5" font-family="Helvetica" font-size="10.00">dss::obj::StorageController</text>
<text text-anchor="middle" x="66.5" y="-7.5" font-family="Helvetica" font-size="10.00">Batch</text>
</a>
</g>
</g>
<!-- Node2 -->
<g id="node2" class="node">
<title>Node2</title>
<g id="a_node2"><a xlink:href="classdss_1_1obj_1_1DSSBatch.html" target="_top" xlink:title=" ">
<polygon fill="white" stroke="#bfbfbf" points="14.5,-68.5 14.5,-87.5 118.5,-87.5 118.5,-68.5 14.5,-68.5"/>
<text text-anchor="middle" x="66.5" y="-75.5" font-family="Helvetica" font-size="10.00">dss::obj::DSSBatch</text>
</a>
</g>
</g>
<!-- Node2&#45;&gt;Node1 -->
<g id="edge1" class="edge">
<title>Node2&#45;&gt;Node1</title>
<path fill="none" stroke="midnightblue" d="M66.5,-58.22C66.5,-49.36 66.5,-38.96 66.5,-30.76"/>
<polygon fill="midnightblue" stroke="midnightblue" points="63,-58.33 66.5,-68.33 70,-58.33 63,-58.33"/>
</g>
<!-- Node3 -->
<g id="node3" class="node">
<title>Node3</title>
<g id="a_node3"><a xlink:href="structdss_1_1APIUtil.html" target="_top" xlink:title=" ">
<polygon fill="white" stroke="#bfbfbf" points="84.5,-135.5 84.5,-154.5 154.5,-154.5 154.5,-135.5 84.5,-135.5"/>
<text text-anchor="middle" x="119.5" y="-142.5" font-family="Helvetica" font-size="10.00">dss::APIUtil</text>
</a>
</g>
</g>
<!-- Node3&#45;&gt;Node2 -->
<g id="edge2" class="edge">
<title>Node3&#45;&gt;Node2</title>
<path fill="none" stroke="#9a32cd" stroke-dasharray="5,2" d="M105.86,-127.27C95.53,-114.6 81.75,-97.7 73.53,-87.63"/>
<polygon fill="#9a32cd" stroke="#9a32cd" points="103.32,-129.7 112.35,-135.23 108.75,-125.27 103.32,-129.7"/>
<text text-anchor="middle" x="112.5" y="-109" font-family="Helvetica" font-size="10.00"> api_util</text>
</g>
<!-- Node4 -->
<g id="node4" class="node">
<title>Node4</title>
<g id="a_node4"><a xlink:title=" ">
<polygon fill="white" stroke="#bfbfbf" points="31.5,-257.5 31.5,-276.5 77.5,-276.5 77.5,-257.5 31.5,-257.5"/>
<text text-anchor="middle" x="54.5" y="-264.5" font-family="Helvetica" font-size="10.00">int32_t</text>
</a>
</g>
</g>
<!-- Node4&#45;&gt;Node2 -->
<g id="edge4" class="edge">
<title>Node4&#45;&gt;Node2</title>
<path fill="none" stroke="#9a32cd" stroke-dasharray="5,2" d="M50.97,-247.22C46.73,-221.66 40.97,-174.56 47.5,-135 50.38,-117.58 57.96,-98.29 62.63,-87.5"/>
<polygon fill="#9a32cd" stroke="#9a32cd" points="47.57,-248.11 52.76,-257.35 54.46,-246.89 47.57,-248.11"/>
<text text-anchor="middle" x="61.5" y="-142.5" font-family="Helvetica" font-size="10.00"> count</text>
</g>
<!-- Node4&#45;&gt;Node3 -->
<g id="edge3" class="edge">
<title>Node4&#45;&gt;Node3</title>
<path fill="none" stroke="#9a32cd" stroke-dasharray="5,2" d="M63.95,-248.55C78.11,-222.42 104.27,-174.11 114.87,-154.55"/>
<polygon fill="#9a32cd" stroke="#9a32cd" points="60.86,-246.91 59.17,-257.37 67.02,-250.24 60.86,-246.91"/>
<text text-anchor="middle" x="145" y="-231" font-family="Helvetica" font-size="10.00"> count_PByte</text>
<text text-anchor="middle" x="145" y="-220" font-family="Helvetica" font-size="10.00">count_PDouble</text>
<text text-anchor="middle" x="145" y="-209" font-family="Helvetica" font-size="10.00">count_PInteger</text>
<text text-anchor="middle" x="145" y="-198" font-family="Helvetica" font-size="10.00">count_PPAnsiChar</text>
<text text-anchor="middle" x="145" y="-187" font-family="Helvetica" font-size="10.00">data_PInteger</text>
<text text-anchor="middle" x="145" y="-176" font-family="Helvetica" font-size="10.00">error_ptr</text>
</g>
</g>
</svg>
