<?xml version="1.0" encoding="UTF-8" standalone="no"?>
<!DOCTYPE svg PUBLIC "-//W3C//DTD SVG 1.1//EN"
 "http://www.w3.org/Graphics/SVG/1.1/DTD/svg11.dtd">
<!-- Generated by graphviz version 2.47.2 (20210527.1257)
 -->
<!-- Title: dss::obj::CapControl Pages: 1 -->
<svg width="176pt" height="274pt"
 viewBox="0.00 0.00 175.50 274.00" xmlns="http://www.w3.org/2000/svg" xmlns:xlink="http://www.w3.org/1999/xlink">
<g id="graph0" class="graph" transform="scale(1 1) rotate(0) translate(4 270)">
<title>dss::obj::CapControl</title>
<polygon fill="white" stroke="transparent" points="-4,4 -4,-270 171.5,-270 171.5,4 -4,4"/>
<!-- Node1 -->
<g id="node1" class="node">
<title>Node1</title>
<g id="a_node1"><a xlink:title=" ">
<polygon fill="#bfbfbf" stroke="black" points="0,-0.5 0,-19.5 107,-19.5 107,-0.5 0,-0.5"/>
<text text-anchor="middle" x="53.5" y="-7.5" font-family="Helvetica" font-size="10.00">dss::obj::CapControl</text>
</a>
</g>
</g>
<!-- Node2 -->
<g id="node2" class="node">
<title>Node2</title>
<g id="a_node2"><a xlink:href="classdss_1_1obj_1_1DSSObj.html" target="_top" xlink:title=" ">
<polygon fill="white" stroke="#bfbfbf" points="58,-57.5 58,-76.5 151,-76.5 151,-57.5 58,-57.5"/>
<text text-anchor="middle" x="104.5" y="-64.5" font-family="Helvetica" font-size="10.00">dss::obj::DSSObj</text>
</a>
</g>
</g>
<!-- Node2&#45;&gt;Node1 -->
<g id="edge1" class="edge">
<title>Node2&#45;&gt;Node1</title>
<path fill="none" stroke="midnightblue" d="M89.5,-49.83C80.37,-39.98 69.06,-27.78 61.58,-19.71"/>
<polygon fill="midnightblue" stroke="midnightblue" points="87.17,-52.45 96.53,-57.41 92.3,-47.69 87.17,-52.45"/>
</g>
<!-- Node3 -->
<g id="node3" class="node">
<title>Node3</title>
<g id="a_node3"><a xlink:href="structdss_1_1APIUtil.html" target="_top" xlink:title=" ">
<polygon fill="white" stroke="#bfbfbf" points="63.5,-124.5 63.5,-143.5 133.5,-143.5 133.5,-124.5 63.5,-124.5"/>
<text text-anchor="middle" x="98.5" y="-131.5" font-family="Helvetica" font-size="10.00">dss::APIUtil</text>
</a>
</g>
</g>
<!-- Node3&#45;&gt;Node2 -->
<g id="edge2" class="edge">
<title>Node3&#45;&gt;Node2</title>
<path fill="none" stroke="#9a32cd" stroke-dasharray="5,2" d="M100.25,-114.04C101.39,-101.67 102.83,-86.12 103.7,-76.63"/>
<polygon fill="#9a32cd" stroke="#9a32cd" points="96.74,-113.95 99.31,-124.23 103.71,-114.6 96.74,-113.95"/>
<text text-anchor="middle" x="118.5" y="-98" font-family="Helvetica" font-size="10.00"> api_util</text>
</g>
<!-- Node4 -->
<g id="node4" class="node">
<title>Node4</title>
<g id="a_node4"><a xlink:title=" ">
<polygon fill="white" stroke="#bfbfbf" points="21.5,-246.5 21.5,-265.5 67.5,-265.5 67.5,-246.5 21.5,-246.5"/>
<text text-anchor="middle" x="44.5" y="-253.5" font-family="Helvetica" font-size="10.00">int32_t</text>
</a>
</g>
</g>
<!-- Node4&#45;&gt;Node1 -->
<g id="edge4" class="edge">
<title>Node4&#45;&gt;Node1</title>
<path fill="none" stroke="#9a32cd" stroke-dasharray="5,2" d="M43.05,-236.07C41,-206.09 37.88,-145.89 41.5,-95 43.46,-67.37 49.01,-35.02 51.83,-19.78"/>
<polygon fill="#9a32cd" stroke="#9a32cd" points="39.58,-236.59 43.79,-246.31 46.56,-236.09 39.58,-236.59"/>
<text text-anchor="middle" x="69" y="-98" font-family="Helvetica" font-size="10.00"> dss_cls_idx</text>
</g>
<!-- Node4&#45;&gt;Node3 -->
<g id="edge3" class="edge">
<title>Node4&#45;&gt;Node3</title>
<path fill="none" stroke="#9a32cd" stroke-dasharray="5,2" d="M52.51,-237.2C64.3,-210.99 85.89,-163.02 94.65,-143.55"/>
<polygon fill="#9a32cd" stroke="#9a32cd" points="49.3,-235.81 48.38,-246.37 55.68,-238.69 49.3,-235.81"/>
<text text-anchor="middle" x="126" y="-220" font-family="Helvetica" font-size="10.00"> count_PByte</text>
<text text-anchor="middle" x="126" y="-209" font-family="Helvetica" font-size="10.00">count_PDouble</text>
<text text-anchor="middle" x="126" y="-198" font-family="Helvetica" font-size="10.00">count_PInteger</text>
<text text-anchor="middle" x="126" y="-187" font-family="Helvetica" font-size="10.00">count_PPAnsiChar</text>
<text text-anchor="middle" x="126" y="-176" font-family="Helvetica" font-size="10.00">data_PInteger</text>
<text text-anchor="middle" x="126" y="-165" font-family="Helvetica" font-size="10.00">error_ptr</text>
</g>
</g>
</svg>
