<?xml version="1.0" encoding="UTF-8" standalone="no"?>
<!DOCTYPE svg PUBLIC "-//W3C//DTD SVG 1.1//EN"
 "http://www.w3.org/Graphics/SVG/1.1/DTD/svg11.dtd">
<!-- Generated by graphviz version 2.47.2 (20210527.1257)
 -->
<!-- Title: dss::classic::IDSSProgress Pages: 1 -->
<svg width="160pt" height="274pt"
 viewBox="0.00 0.00 160.00 274.00" xmlns="http://www.w3.org/2000/svg" xmlns:xlink="http://www.w3.org/1999/xlink">
<g id="graph0" class="graph" transform="scale(1 1) rotate(0) translate(4 270)">
<title>dss::classic::IDSSProgress</title>
<polygon fill="white" stroke="transparent" points="-4,4 -4,-270 156,-270 156,4 -4,4"/>
<!-- Node1 -->
<g id="node1" class="node">
<title>Node1</title>
<g id="a_node1"><a xlink:title=" ">
<polygon fill="#bfbfbf" stroke="black" points="0,-0.5 0,-19.5 138,-19.5 138,-0.5 0,-0.5"/>
<text text-anchor="middle" x="69" y="-7.5" font-family="Helvetica" font-size="10.00">dss::classic::IDSSProgress</text>
</a>
</g>
</g>
<!-- Node2 -->
<g id="node2" class="node">
<title>Node2</title>
<g id="a_node2"><a xlink:href="classdss_1_1ContextState.html" target="_top" xlink:title="Wraps common DSSContext state data.">
<polygon fill="white" stroke="black" points="21,-57.5 21,-76.5 117,-76.5 117,-57.5 21,-57.5"/>
<text text-anchor="middle" x="69" y="-64.5" font-family="Helvetica" font-size="10.00">dss::ContextState</text>
</a>
</g>
</g>
<!-- Node2&#45;&gt;Node1 -->
<g id="edge1" class="edge">
<title>Node2&#45;&gt;Node1</title>
<path fill="none" stroke="midnightblue" d="M69,-47.12C69,-37.82 69,-27.06 69,-19.71"/>
<polygon fill="midnightblue" stroke="midnightblue" points="65.5,-47.41 69,-57.41 72.5,-47.41 65.5,-47.41"/>
</g>
<!-- Node3 -->
<g id="node3" class="node">
<title>Node3</title>
<g id="a_node3"><a xlink:href="structdss_1_1APIUtil.html" target="_top" xlink:title=" ">
<polygon fill="white" stroke="#bfbfbf" points="34,-124.5 34,-143.5 104,-143.5 104,-124.5 34,-124.5"/>
<text text-anchor="middle" x="69" y="-131.5" font-family="Helvetica" font-size="10.00">dss::APIUtil</text>
</a>
</g>
</g>
<!-- Node3&#45;&gt;Node2 -->
<g id="edge2" class="edge">
<title>Node3&#45;&gt;Node2</title>
<path fill="none" stroke="#9a32cd" stroke-dasharray="5,2" d="M69,-114.04C69,-101.67 69,-86.12 69,-76.63"/>
<polygon fill="#9a32cd" stroke="#9a32cd" points="65.5,-114.23 69,-124.23 72.5,-114.23 65.5,-114.23"/>
<text text-anchor="middle" x="86" y="-98" font-family="Helvetica" font-size="10.00"> api_util</text>
</g>
<!-- Node4 -->
<g id="node4" class="node">
<title>Node4</title>
<g id="a_node4"><a xlink:title=" ">
<polygon fill="white" stroke="#bfbfbf" points="46,-246.5 46,-265.5 92,-265.5 92,-246.5 46,-246.5"/>
<text text-anchor="middle" x="69" y="-253.5" font-family="Helvetica" font-size="10.00">int32_t</text>
</a>
</g>
</g>
<!-- Node4&#45;&gt;Node3 -->
<g id="edge3" class="edge">
<title>Node4&#45;&gt;Node3</title>
<path fill="none" stroke="#9a32cd" stroke-dasharray="5,2" d="M69,-236.15C69,-209.72 69,-162.76 69,-143.55"/>
<polygon fill="#9a32cd" stroke="#9a32cd" points="65.5,-236.37 69,-246.37 72.5,-236.37 65.5,-236.37"/>
<text text-anchor="middle" x="110.5" y="-220" font-family="Helvetica" font-size="10.00"> count_PByte</text>
<text text-anchor="middle" x="110.5" y="-209" font-family="Helvetica" font-size="10.00">count_PDouble</text>
<text text-anchor="middle" x="110.5" y="-198" font-family="Helvetica" font-size="10.00">count_PInteger</text>
<text text-anchor="middle" x="110.5" y="-187" font-family="Helvetica" font-size="10.00">count_PPAnsiChar</text>
<text text-anchor="middle" x="110.5" y="-176" font-family="Helvetica" font-size="10.00">data_PInteger</text>
<text text-anchor="middle" x="110.5" y="-165" font-family="Helvetica" font-size="10.00">error_ptr</text>
</g>
</g>
</svg>
