<?xml version="1.0" encoding="UTF-8" standalone="no"?>
<!DOCTYPE svg PUBLIC "-//W3C//DTD SVG 1.1//EN"
 "http://www.w3.org/Graphics/SVG/1.1/DTD/svg11.dtd">
<!-- Generated by graphviz version 2.47.2 (20210527.1257)
 -->
<!-- Title: dss::classic::IParallel Pages: 1 -->
<svg width="146pt" height="274pt"
 viewBox="0.00 0.00 146.00 274.00" xmlns="http://www.w3.org/2000/svg" xmlns:xlink="http://www.w3.org/1999/xlink">
<g id="graph0" class="graph" transform="scale(1 1) rotate(0) translate(4 270)">
<title>dss::classic::IParallel</title>
<polygon fill="white" stroke="transparent" points="-4,4 -4,-270 142,-270 142,4 -4,4"/>
<!-- Node1 -->
<g id="node1" class="node">
<title>Node1</title>
<g id="a_node1"><a xlink:title=" ">
<polygon fill="#bfbfbf" stroke="black" points="0,-0.5 0,-19.5 110,-19.5 110,-0.5 0,-0.5"/>
<text text-anchor="middle" x="55" y="-7.5" font-family="Helvetica" font-size="10.00">dss::classic::IParallel</text>
</a>
</g>
</g>
<!-- Node2 -->
<g id="node2" class="node">
<title>Node2</title>
<g id="a_node2"><a xlink:href="classdss_1_1ContextState.html" target="_top" xlink:title="Wraps common DSSContext state data.">
<polygon fill="white" stroke="black" points="7,-57.5 7,-76.5 103,-76.5 103,-57.5 7,-57.5"/>
<text text-anchor="middle" x="55" y="-64.5" font-family="Helvetica" font-size="10.00">dss::ContextState</text>
</a>
</g>
</g>
<!-- Node2&#45;&gt;Node1 -->
<g id="edge1" class="edge">
<title>Node2&#45;&gt;Node1</title>
<path fill="none" stroke="midnightblue" d="M55,-47.12C55,-37.82 55,-27.06 55,-19.71"/>
<polygon fill="midnightblue" stroke="midnightblue" points="51.5,-47.41 55,-57.41 58.5,-47.41 51.5,-47.41"/>
</g>
<!-- Node3 -->
<g id="node3" class="node">
<title>Node3</title>
<g id="a_node3"><a xlink:href="structdss_1_1APIUtil.html" target="_top" xlink:title=" ">
<polygon fill="white" stroke="#bfbfbf" points="20,-124.5 20,-143.5 90,-143.5 90,-124.5 20,-124.5"/>
<text text-anchor="middle" x="55" y="-131.5" font-family="Helvetica" font-size="10.00">dss::APIUtil</text>
</a>
</g>
</g>
<!-- Node3&#45;&gt;Node2 -->
<g id="edge2" class="edge">
<title>Node3&#45;&gt;Node2</title>
<path fill="none" stroke="#9a32cd" stroke-dasharray="5,2" d="M55,-114.04C55,-101.67 55,-86.12 55,-76.63"/>
<polygon fill="#9a32cd" stroke="#9a32cd" points="51.5,-114.23 55,-124.23 58.5,-114.23 51.5,-114.23"/>
<text text-anchor="middle" x="72" y="-98" font-family="Helvetica" font-size="10.00"> api_util</text>
</g>
<!-- Node4 -->
<g id="node4" class="node">
<title>Node4</title>
<g id="a_node4"><a xlink:title=" ">
<polygon fill="white" stroke="#bfbfbf" points="32,-246.5 32,-265.5 78,-265.5 78,-246.5 32,-246.5"/>
<text text-anchor="middle" x="55" y="-253.5" font-family="Helvetica" font-size="10.00">int32_t</text>
</a>
</g>
</g>
<!-- Node4&#45;&gt;Node3 -->
<g id="edge3" class="edge">
<title>Node4&#45;&gt;Node3</title>
<path fill="none" stroke="#9a32cd" stroke-dasharray="5,2" d="M55,-236.15C55,-209.72 55,-162.76 55,-143.55"/>
<polygon fill="#9a32cd" stroke="#9a32cd" points="51.5,-236.37 55,-246.37 58.5,-236.37 51.5,-236.37"/>
<text text-anchor="middle" x="96.5" y="-220" font-family="Helvetica" font-size="10.00"> count_PByte</text>
<text text-anchor="middle" x="96.5" y="-209" font-family="Helvetica" font-size="10.00">count_PDouble</text>
<text text-anchor="middle" x="96.5" y="-198" font-family="Helvetica" font-size="10.00">count_PInteger</text>
<text text-anchor="middle" x="96.5" y="-187" font-family="Helvetica" font-size="10.00">count_PPAnsiChar</text>
<text text-anchor="middle" x="96.5" y="-176" font-family="Helvetica" font-size="10.00">data_PInteger</text>
<text text-anchor="middle" x="96.5" y="-165" font-family="Helvetica" font-size="10.00">error_ptr</text>
</g>
</g>
</svg>
