<?xml version="1.0" encoding="UTF-8" standalone="no"?>
<!DOCTYPE svg PUBLIC "-//W3C//DTD SVG 1.1//EN"
 "http://www.w3.org/Graphics/SVG/1.1/DTD/svg11.dtd">
<!-- Generated by graphviz version 2.47.2 (20210527.1257)
 -->
<!-- Title: include/dss_capi.h Pages: 1 -->
<svg width="204pt" height="308pt"
 viewBox="0.00 0.00 203.50 308.00" xmlns="http://www.w3.org/2000/svg" xmlns:xlink="http://www.w3.org/1999/xlink">
<g id="graph0" class="graph" transform="scale(1 1) rotate(0) translate(4 304)">
<title>include/dss_capi.h</title>
<polygon fill="white" stroke="transparent" points="-4,4 -4,-304 199.5,-304 199.5,4 -4,4"/>
<!-- Node1 -->
<g id="node1" class="node">
<title>Node1</title>
<g id="a_node1"><a xlink:title=" ">
<polygon fill="#bfbfbf" stroke="black" points="15,-280.5 15,-299.5 113,-299.5 113,-280.5 15,-280.5"/>
<text text-anchor="middle" x="64" y="-287.5" font-family="Helvetica" font-size="10.00">include/dss_capi.h</text>
</a>
</g>
</g>
<!-- Node2 -->
<g id="node2" class="node">
<title>Node2</title>
<g id="a_node2"><a xlink:href="dss__capi__ctx_8h_source.html" target="_top" xlink:title=" ">
<polygon fill="white" stroke="black" points="6,-224.5 6,-243.5 122,-243.5 122,-224.5 6,-224.5"/>
<text text-anchor="middle" x="64" y="-231.5" font-family="Helvetica" font-size="10.00">include/dss_capi_ctx.h</text>
</a>
</g>
</g>
<!-- Node1&#45;&gt;Node2 -->
<g id="edge1" class="edge">
<title>Node1&#45;&gt;Node2</title>
<path fill="none" stroke="midnightblue" d="M64,-269.8C64,-260.91 64,-250.78 64,-243.75"/>
<polygon fill="midnightblue" stroke="midnightblue" points="60.5,-270.08 64,-280.08 67.5,-270.08 60.5,-270.08"/>
</g>
<!-- Node3 -->
<g id="node3" class="node">
<title>Node3</title>
<g id="a_node3"><a xlink:href="dss__common_8hpp_source.html" target="_top" xlink:title=" ">
<polygon fill="white" stroke="black" points="0,-168.5 0,-187.5 128,-187.5 128,-168.5 0,-168.5"/>
<text text-anchor="middle" x="64" y="-175.5" font-family="Helvetica" font-size="10.00">include/dss_common.hpp</text>
</a>
</g>
</g>
<!-- Node2&#45;&gt;Node3 -->
<g id="edge2" class="edge">
<title>Node2&#45;&gt;Node3</title>
<path fill="none" stroke="midnightblue" d="M64,-213.8C64,-204.91 64,-194.78 64,-187.75"/>
<polygon fill="midnightblue" stroke="midnightblue" points="60.5,-214.08 64,-224.08 67.5,-214.08 60.5,-214.08"/>
</g>
<!-- Node4 -->
<g id="node4" class="node">
<title>Node4</title>
<g id="a_node4"><a xlink:href="dss_8hpp_source.html" target="_top" xlink:title=" ">
<polygon fill="white" stroke="black" points="47.5,-0.5 47.5,-19.5 132.5,-19.5 132.5,-0.5 47.5,-0.5"/>
<text text-anchor="middle" x="90" y="-7.5" font-family="Helvetica" font-size="10.00">include/dss.hpp</text>
</a>
</g>
</g>
<!-- Node3&#45;&gt;Node4 -->
<g id="edge3" class="edge">
<title>Node3&#45;&gt;Node4</title>
<path fill="none" stroke="midnightblue" d="M49.54,-160.64C30.27,-136.74 0.73,-91.3 20,-56 29.62,-38.37 49.43,-26.62 65.53,-19.56"/>
<polygon fill="midnightblue" stroke="midnightblue" points="46.95,-163 56.06,-168.41 52.32,-158.5 46.95,-163"/>
</g>
<!-- Node5 -->
<g id="node5" class="node">
<title>Node5</title>
<g id="a_node5"><a xlink:href="dss__classic_8hpp_source.html" target="_top" xlink:title=" ">
<polygon fill="white" stroke="black" points="29.5,-56.5 29.5,-75.5 150.5,-75.5 150.5,-56.5 29.5,-56.5"/>
<text text-anchor="middle" x="90" y="-63.5" font-family="Helvetica" font-size="10.00">include/dss_classic.hpp</text>
</a>
</g>
</g>
<!-- Node3&#45;&gt;Node5 -->
<g id="edge4" class="edge">
<title>Node3&#45;&gt;Node5</title>
<path fill="none" stroke="midnightblue" d="M68.41,-158.35C74.1,-134.25 83.78,-93.31 87.97,-75.59"/>
<polygon fill="midnightblue" stroke="midnightblue" points="64.93,-157.83 66.04,-168.37 71.75,-159.44 64.93,-157.83"/>
</g>
<!-- Node6 -->
<g id="node6" class="node">
<title>Node6</title>
<g id="a_node6"><a xlink:href="dss__obj_8hpp_source.html" target="_top" xlink:title=" ">
<polygon fill="white" stroke="black" points="92.5,-112.5 92.5,-131.5 195.5,-131.5 195.5,-112.5 92.5,-112.5"/>
<text text-anchor="middle" x="144" y="-119.5" font-family="Helvetica" font-size="10.00">include/dss_obj.hpp</text>
</a>
</g>
</g>
<!-- Node3&#45;&gt;Node6 -->
<g id="edge6" class="edge">
<title>Node3&#45;&gt;Node6</title>
<path fill="none" stroke="midnightblue" d="M85.3,-162.62C99.92,-152.76 118.83,-139.99 131.18,-131.65"/>
<polygon fill="midnightblue" stroke="midnightblue" points="83.18,-159.83 76.85,-168.32 87.1,-165.63 83.18,-159.83"/>
</g>
<!-- Node5&#45;&gt;Node4 -->
<g id="edge5" class="edge">
<title>Node5&#45;&gt;Node4</title>
<path fill="none" stroke="midnightblue" d="M90,-45.8C90,-36.91 90,-26.78 90,-19.75"/>
<polygon fill="midnightblue" stroke="midnightblue" points="86.5,-46.08 90,-56.08 93.5,-46.08 86.5,-46.08"/>
</g>
<!-- Node6&#45;&gt;Node4 -->
<g id="edge7" class="edge">
<title>Node6&#45;&gt;Node4</title>
<path fill="none" stroke="midnightblue" d="M154.33,-103.67C161,-90.04 167.08,-70.91 159,-56 149.46,-38.39 129.72,-26.59 113.79,-19.5"/>
<polygon fill="midnightblue" stroke="midnightblue" points="151.24,-102.03 149.55,-112.49 157.39,-105.36 151.24,-102.03"/>
</g>
<!-- Node6&#45;&gt;Node5 -->
<g id="edge8" class="edge">
<title>Node6&#45;&gt;Node5</title>
<path fill="none" stroke="midnightblue" d="M128,-105C118.43,-95.43 106.64,-83.64 98.75,-75.75"/>
<polygon fill="midnightblue" stroke="midnightblue" points="125.54,-107.49 135.08,-112.08 130.49,-102.54 125.54,-107.49"/>
</g>
</g>
</svg>
