<?xml version="1.0" encoding="UTF-8" standalone="no"?>
<!DOCTYPE svg PUBLIC "-//W3C//DTD SVG 1.1//EN"
 "http://www.w3.org/Graphics/SVG/1.1/DTD/svg11.dtd">
<!-- Generated by graphviz version 2.47.2 (20210527.1257)
 -->
<!-- Title: Graphical Class Hierarchy Pages: 1 -->
<svg width="296pt" height="1838pt"
 viewBox="0.00 0.00 296.00 1838.00" xmlns="http://www.w3.org/2000/svg" xmlns:xlink="http://www.w3.org/1999/xlink">
<g id="graph0" class="graph" transform="scale(1 1) rotate(0) translate(4 1834)">
<title>Graphical Class Hierarchy</title>
<polygon fill="white" stroke="transparent" points="-4,4 -4,-1834 292,-1834 292,4 -4,4"/>
<!-- Node0 -->
<g id="node1" class="node">
<title>Node0</title>
<g id="a_node1"><a xlink:href="classdss_1_1obj_1_1DSSBatch.html" target="_top" xlink:title=" ">
<polygon fill="white" stroke="black" points="0,-905.5 0,-924.5 104,-924.5 104,-905.5 0,-905.5"/>
<text text-anchor="middle" x="52" y="-912.5" font-family="Helvetica" font-size="10.00">dss::obj::DSSBatch</text>
</a>
</g>
</g>
<!-- Node1 -->
<g id="node2" class="node">
<title>Node1</title>
<g id="a_node2"><a xlink:href="classdss_1_1obj_1_1AutoTransBatch.html" target="_top" xlink:title=" ">
<polygon fill="white" stroke="black" points="151,-1810.5 151,-1829.5 277,-1829.5 277,-1810.5 151,-1810.5"/>
<text text-anchor="middle" x="214" y="-1817.5" font-family="Helvetica" font-size="10.00">dss::obj::AutoTransBatch</text>
</a>
</g>
</g>
<!-- Node0&#45;&gt;Node1 -->
<g id="edge1" class="edge">
<title>Node0&#45;&gt;Node1</title>
<path fill="none" stroke="midnightblue" d="M53.6,-934.7C57.58,-1059.11 81.71,-1732.77 140,-1801 143.23,-1804.78 147.11,-1807.86 151.38,-1810.36"/>
<polygon fill="midnightblue" stroke="midnightblue" points="57.1,-934.58 53.29,-924.69 50.1,-934.8 57.1,-934.58"/>
</g>
<!-- Node2 -->
<g id="node3" class="node">
<title>Node2</title>
<g id="a_node3"><a xlink:href="classdss_1_1obj_1_1CNDataBatch.html" target="_top" xlink:title=" ">
<polygon fill="white" stroke="black" points="154.5,-1772.5 154.5,-1791.5 273.5,-1791.5 273.5,-1772.5 154.5,-1772.5"/>
<text text-anchor="middle" x="214" y="-1779.5" font-family="Helvetica" font-size="10.00">dss::obj::CNDataBatch</text>
</a>
</g>
</g>
<!-- Node0&#45;&gt;Node2 -->
<g id="edge2" class="edge">
<title>Node0&#45;&gt;Node2</title>
<path fill="none" stroke="midnightblue" d="M53.69,-934.6C58.12,-1055.59 84.15,-1697.92 140,-1763 144.01,-1767.67 149.01,-1771.27 154.49,-1774.03"/>
<polygon fill="midnightblue" stroke="midnightblue" points="57.19,-934.42 53.33,-924.55 50.19,-934.67 57.19,-934.42"/>
</g>
<!-- Node3 -->
<g id="node4" class="node">
<title>Node3</title>
<g id="a_node4"><a xlink:href="classdss_1_1obj_1_1CapControlBatch.html" target="_top" xlink:title=" ">
<polygon fill="white" stroke="black" points="148,-1734.5 148,-1753.5 280,-1753.5 280,-1734.5 148,-1734.5"/>
<text text-anchor="middle" x="214" y="-1741.5" font-family="Helvetica" font-size="10.00">dss::obj::CapControlBatch</text>
</a>
</g>
</g>
<!-- Node0&#45;&gt;Node3 -->
<g id="edge3" class="edge">
<title>Node0&#45;&gt;Node3</title>
<path fill="none" stroke="midnightblue" d="M53.8,-934.81C58.73,-1053.1 86.65,-1663.13 140,-1725 143.25,-1728.77 147.14,-1731.84 151.42,-1734.33"/>
<polygon fill="midnightblue" stroke="midnightblue" points="57.29,-934.51 53.38,-924.67 50.29,-934.8 57.29,-934.51"/>
</g>
<!-- Node4 -->
<g id="node5" class="node">
<title>Node4</title>
<g id="a_node5"><a xlink:href="classdss_1_1obj_1_1CapacitorBatch.html" target="_top" xlink:title=" ">
<polygon fill="white" stroke="black" points="151.5,-1696.5 151.5,-1715.5 276.5,-1715.5 276.5,-1696.5 151.5,-1696.5"/>
<text text-anchor="middle" x="214" y="-1703.5" font-family="Helvetica" font-size="10.00">dss::obj::CapacitorBatch</text>
</a>
</g>
</g>
<!-- Node0&#45;&gt;Node4 -->
<g id="edge4" class="edge">
<title>Node0&#45;&gt;Node4</title>
<path fill="none" stroke="midnightblue" d="M53.91,-934.95C59.37,-1050.24 89.13,-1628.31 140,-1687 143.26,-1690.76 147.16,-1693.82 151.44,-1696.31"/>
<polygon fill="midnightblue" stroke="midnightblue" points="57.4,-934.57 53.44,-924.74 50.41,-934.9 57.4,-934.57"/>
</g>
<!-- Node5 -->
<g id="node6" class="node">
<title>Node5</title>
<g id="a_node6"><a xlink:href="classdss_1_1obj_1_1ESPVLControlBatch.html" target="_top" xlink:title=" ">
<polygon fill="white" stroke="black" points="141,-1658.5 141,-1677.5 287,-1677.5 287,-1658.5 141,-1658.5"/>
<text text-anchor="middle" x="214" y="-1665.5" font-family="Helvetica" font-size="10.00">dss::obj::ESPVLControlBatch</text>
</a>
</g>
</g>
<!-- Node0&#45;&gt;Node5 -->
<g id="edge5" class="edge">
<title>Node0&#45;&gt;Node5</title>
<path fill="none" stroke="midnightblue" d="M54.02,-934.65C59.96,-1045.87 91.54,-1593.42 140,-1649 143.36,-1652.85 147.38,-1655.97 151.8,-1658.49"/>
<polygon fill="midnightblue" stroke="midnightblue" points="57.51,-934.32 53.49,-924.52 50.52,-934.69 57.51,-934.32"/>
</g>
<!-- Node6 -->
<g id="node7" class="node">
<title>Node6</title>
<g id="a_node7"><a xlink:href="classdss_1_1obj_1_1EnergyMeterBatch.html" target="_top" xlink:title=" ">
<polygon fill="white" stroke="black" points="145,-1620.5 145,-1639.5 283,-1639.5 283,-1620.5 145,-1620.5"/>
<text text-anchor="middle" x="214" y="-1627.5" font-family="Helvetica" font-size="10.00">dss::obj::EnergyMeterBatch</text>
</a>
</g>
</g>
<!-- Node0&#45;&gt;Node6 -->
<g id="edge6" class="edge">
<title>Node0&#45;&gt;Node6</title>
<path fill="none" stroke="midnightblue" d="M52.6,-934.78C50.95,-1037.24 48.55,-1506.78 140,-1611 143.37,-1614.84 147.41,-1617.95 151.83,-1620.46"/>
<polygon fill="midnightblue" stroke="midnightblue" points="56.1,-934.68 52.78,-924.62 49.11,-934.55 56.1,-934.68"/>
</g>
<!-- Node7 -->
<g id="node8" class="node">
<title>Node7</title>
<g id="a_node8"><a xlink:href="classdss_1_1obj_1_1ExpControlBatch.html" target="_top" xlink:title=" ">
<polygon fill="white" stroke="black" points="148.5,-1582.5 148.5,-1601.5 279.5,-1601.5 279.5,-1582.5 148.5,-1582.5"/>
<text text-anchor="middle" x="214" y="-1589.5" font-family="Helvetica" font-size="10.00">dss::obj::ExpControlBatch</text>
</a>
</g>
</g>
<!-- Node0&#45;&gt;Node7 -->
<g id="edge7" class="edge">
<title>Node0&#45;&gt;Node7</title>
<path fill="none" stroke="midnightblue" d="M52.76,-934.63C51.97,-1033.39 53.38,-1475 140,-1573 143.38,-1576.83 147.43,-1579.93 151.86,-1582.44"/>
<polygon fill="midnightblue" stroke="midnightblue" points="56.26,-934.59 52.86,-924.56 49.26,-934.52 56.26,-934.59"/>
</g>
<!-- Node8 -->
<g id="node9" class="node">
<title>Node8</title>
<g id="a_node9"><a xlink:href="classdss_1_1obj_1_1FaultBatch.html" target="_top" xlink:title=" ">
<polygon fill="white" stroke="black" points="162,-1544.5 162,-1563.5 266,-1563.5 266,-1544.5 162,-1544.5"/>
<text text-anchor="middle" x="214" y="-1551.5" font-family="Helvetica" font-size="10.00">dss::obj::FaultBatch</text>
</a>
</g>
</g>
<!-- Node0&#45;&gt;Node8 -->
<g id="edge8" class="edge">
<title>Node0&#45;&gt;Node8</title>
<path fill="none" stroke="midnightblue" d="M52.94,-935C53.05,-1030.96 58.36,-1443.37 140,-1535 145.84,-1541.55 153.62,-1545.97 161.93,-1548.94"/>
<polygon fill="midnightblue" stroke="midnightblue" points="56.44,-934.91 52.95,-924.91 49.44,-934.9 56.44,-934.91"/>
</g>
<!-- Node9 -->
<g id="node10" class="node">
<title>Node9</title>
<g id="a_node10"><a xlink:href="classdss_1_1obj_1_1FuseBatch.html" target="_top" xlink:title=" ">
<polygon fill="white" stroke="black" points="162,-1506.5 162,-1525.5 266,-1525.5 266,-1506.5 162,-1506.5"/>
<text text-anchor="middle" x="214" y="-1513.5" font-family="Helvetica" font-size="10.00">dss::obj::FuseBatch</text>
</a>
</g>
</g>
<!-- Node0&#45;&gt;Node9 -->
<g id="edge9" class="edge">
<title>Node0&#45;&gt;Node9</title>
<path fill="none" stroke="midnightblue" d="M53.14,-934.92C54.19,-1027.12 63.2,-1411.57 140,-1497 145.87,-1503.52 153.66,-1507.94 161.98,-1510.89"/>
<polygon fill="midnightblue" stroke="midnightblue" points="56.64,-934.71 53.04,-924.74 49.64,-934.77 56.64,-934.71"/>
</g>
<!-- Node10 -->
<g id="node11" class="node">
<title>Node10</title>
<g id="a_node11"><a xlink:href="classdss_1_1obj_1_1GICLineBatch.html" target="_top" xlink:title=" ">
<polygon fill="white" stroke="black" points="154.5,-1468.5 154.5,-1487.5 273.5,-1487.5 273.5,-1468.5 154.5,-1468.5"/>
<text text-anchor="middle" x="214" y="-1475.5" font-family="Helvetica" font-size="10.00">dss::obj::GICLineBatch</text>
</a>
</g>
</g>
<!-- Node0&#45;&gt;Node10 -->
<g id="edge10" class="edge">
<title>Node0&#45;&gt;Node10</title>
<path fill="none" stroke="midnightblue" d="M53.36,-934.72C55.39,-1022.85 67.99,-1379.72 140,-1459 144.05,-1463.46 149,-1466.93 154.4,-1469.62"/>
<polygon fill="midnightblue" stroke="midnightblue" points="56.86,-934.45 53.15,-924.53 49.86,-934.6 56.86,-934.45"/>
</g>
<!-- Node11 -->
<g id="node12" class="node">
<title>Node11</title>
<g id="a_node12"><a xlink:href="classdss_1_1obj_1_1GICTransformerBatch.html" target="_top" xlink:title=" ">
<polygon fill="white" stroke="black" points="150.5,-1419 150.5,-1449 277.5,-1449 277.5,-1419 150.5,-1419"/>
<text text-anchor="start" x="158.5" y="-1437" font-family="Helvetica" font-size="10.00">dss::obj::GICTransformer</text>
<text text-anchor="middle" x="214" y="-1426" font-family="Helvetica" font-size="10.00">Batch</text>
</a>
</g>
</g>
<!-- Node0&#45;&gt;Node11 -->
<g id="edge11" class="edge">
<title>Node0&#45;&gt;Node11</title>
<path fill="none" stroke="midnightblue" d="M53.87,-934.88C57.88,-1017.83 77.15,-1335.52 140,-1409 143.31,-1412.87 147.24,-1416.14 151.55,-1418.9"/>
<polygon fill="midnightblue" stroke="midnightblue" points="57.36,-934.61 53.4,-924.78 50.37,-934.93 57.36,-934.61"/>
</g>
<!-- Node12 -->
<g id="node13" class="node">
<title>Node12</title>
<g id="a_node13"><a xlink:href="classdss_1_1obj_1_1GICsourceBatch.html" target="_top" xlink:title=" ">
<polygon fill="white" stroke="black" points="149,-1380.5 149,-1399.5 279,-1399.5 279,-1380.5 149,-1380.5"/>
<text text-anchor="middle" x="214" y="-1387.5" font-family="Helvetica" font-size="10.00">dss::obj::GICsourceBatch</text>
</a>
</g>
</g>
<!-- Node0&#45;&gt;Node12 -->
<g id="edge12" class="edge">
<title>Node0&#45;&gt;Node12</title>
<path fill="none" stroke="midnightblue" d="M54.04,-934.97C58.59,-1014.32 79.24,-1306.08 140,-1371 143.58,-1374.82 147.82,-1377.92 152.43,-1380.41"/>
<polygon fill="midnightblue" stroke="midnightblue" points="57.53,-934.65 53.49,-924.86 50.54,-935.04 57.53,-934.65"/>
</g>
<!-- Node13 -->
<g id="node14" class="node">
<title>Node13</title>
<g id="a_node14"><a xlink:href="classdss_1_1obj_1_1GenDispatcherBatch.html" target="_top" xlink:title=" ">
<polygon fill="white" stroke="black" points="140,-1342.5 140,-1361.5 288,-1361.5 288,-1342.5 140,-1342.5"/>
<text text-anchor="middle" x="214" y="-1349.5" font-family="Helvetica" font-size="10.00">dss::obj::GenDispatcherBatch</text>
</a>
</g>
</g>
<!-- Node0&#45;&gt;Node13 -->
<g id="edge13" class="edge">
<title>Node0&#45;&gt;Node13</title>
<path fill="none" stroke="midnightblue" d="M54.44,-935.2C60.2,-1010.6 84.09,-1274.26 140,-1333 143.61,-1336.79 147.88,-1339.87 152.5,-1342.35"/>
<polygon fill="midnightblue" stroke="midnightblue" points="57.89,-934.49 53.66,-924.77 50.91,-935.01 57.89,-934.49"/>
</g>
<!-- Node14 -->
<g id="node15" class="node">
<title>Node14</title>
<g id="a_node15"><a xlink:href="classdss_1_1obj_1_1GeneratorBatch.html" target="_top" xlink:title=" ">
<polygon fill="white" stroke="black" points="151.5,-1304.5 151.5,-1323.5 276.5,-1323.5 276.5,-1304.5 151.5,-1304.5"/>
<text text-anchor="middle" x="214" y="-1311.5" font-family="Helvetica" font-size="10.00">dss::obj::GeneratorBatch</text>
</a>
</g>
</g>
<!-- Node0&#45;&gt;Node14 -->
<g id="edge14" class="edge">
<title>Node0&#45;&gt;Node14</title>
<path fill="none" stroke="midnightblue" d="M54.84,-934.72C61.8,-1005.04 88.76,-1242.22 140,-1295 143.74,-1298.85 148.15,-1301.96 152.93,-1304.46"/>
<polygon fill="midnightblue" stroke="midnightblue" points="58.31,-934.2 53.86,-924.58 51.34,-934.87 58.31,-934.2"/>
</g>
<!-- Node15 -->
<g id="node16" class="node">
<title>Node15</title>
<g id="a_node16"><a xlink:href="classdss_1_1obj_1_1GrowthShapeBatch.html" target="_top" xlink:title=" ">
<polygon fill="white" stroke="black" points="143,-1266.5 143,-1285.5 285,-1285.5 285,-1266.5 143,-1266.5"/>
<text text-anchor="middle" x="214" y="-1273.5" font-family="Helvetica" font-size="10.00">dss::obj::GrowthShapeBatch</text>
</a>
</g>
</g>
<!-- Node0&#45;&gt;Node15 -->
<g id="edge15" class="edge">
<title>Node0&#45;&gt;Node15</title>
<path fill="none" stroke="midnightblue" d="M55.4,-934.83C63.74,-1000.65 93.54,-1210.28 140,-1257 143.79,-1260.81 148.23,-1263.88 153.03,-1266.36"/>
<polygon fill="midnightblue" stroke="midnightblue" points="58.83,-934.09 54.13,-924.6 51.88,-934.96 58.83,-934.09"/>
</g>
<!-- Node16 -->
<g id="node17" class="node">
<title>Node16</title>
<g id="a_node17"><a xlink:href="classdss_1_1obj_1_1IndMach012Batch.html" target="_top" xlink:title=" ">
<polygon fill="white" stroke="black" points="146,-1228.5 146,-1247.5 282,-1247.5 282,-1228.5 146,-1228.5"/>
<text text-anchor="middle" x="214" y="-1235.5" font-family="Helvetica" font-size="10.00">dss::obj::IndMach012Batch</text>
</a>
</g>
</g>
<!-- Node0&#45;&gt;Node16 -->
<g id="edge16" class="edge">
<title>Node0&#45;&gt;Node16</title>
<path fill="none" stroke="midnightblue" d="M52.41,-934.83C51.94,-988.76 58.39,-1139.33 140,-1219 143.94,-1222.84 148.55,-1225.93 153.5,-1228.42"/>
<polygon fill="midnightblue" stroke="midnightblue" points="55.91,-934.65 52.6,-924.59 48.91,-934.52 55.91,-934.65"/>
</g>
<!-- Node17 -->
<g id="node18" class="node">
<title>Node17</title>
<g id="a_node18"><a xlink:href="classdss_1_1obj_1_1InvControlBatch.html" target="_top" xlink:title=" ">
<polygon fill="white" stroke="black" points="150,-1190.5 150,-1209.5 278,-1209.5 278,-1190.5 150,-1190.5"/>
<text text-anchor="middle" x="214" y="-1197.5" font-family="Helvetica" font-size="10.00">dss::obj::InvControlBatch</text>
</a>
</g>
</g>
<!-- Node0&#45;&gt;Node17 -->
<g id="edge17" class="edge">
<title>Node0&#45;&gt;Node17</title>
<path fill="none" stroke="midnightblue" d="M53.37,-934.96C55.4,-984.33 67.74,-1113.05 140,-1181 144.1,-1184.86 148.89,-1187.96 154.01,-1190.44"/>
<polygon fill="midnightblue" stroke="midnightblue" points="56.86,-934.58 53.05,-924.69 49.86,-934.8 56.86,-934.58"/>
</g>
<!-- Node18 -->
<g id="node19" class="node">
<title>Node18</title>
<g id="a_node19"><a xlink:href="classdss_1_1obj_1_1IsourceBatch.html" target="_top" xlink:title=" ">
<polygon fill="white" stroke="black" points="156.5,-1152.5 156.5,-1171.5 271.5,-1171.5 271.5,-1152.5 156.5,-1152.5"/>
<text text-anchor="middle" x="214" y="-1159.5" font-family="Helvetica" font-size="10.00">dss::obj::IsourceBatch</text>
</a>
</g>
</g>
<!-- Node0&#45;&gt;Node18 -->
<g id="edge18" class="edge">
<title>Node0&#45;&gt;Node18</title>
<path fill="none" stroke="midnightblue" d="M54.57,-934.48C59.19,-978.52 76.71,-1086.31 140,-1143 144.78,-1147.28 150.4,-1150.62 156.38,-1153.22"/>
<polygon fill="midnightblue" stroke="midnightblue" points="58.05,-934.14 53.63,-924.51 51.08,-934.79 58.05,-934.14"/>
</g>
<!-- Node19 -->
<g id="node20" class="node">
<title>Node19</title>
<g id="a_node20"><a xlink:href="classdss_1_1obj_1_1LineBatch.html" target="_top" xlink:title=" ">
<polygon fill="white" stroke="black" points="163.5,-1114.5 163.5,-1133.5 264.5,-1133.5 264.5,-1114.5 163.5,-1114.5"/>
<text text-anchor="middle" x="214" y="-1121.5" font-family="Helvetica" font-size="10.00">dss::obj::LineBatch</text>
</a>
</g>
</g>
<!-- Node0&#45;&gt;Node19 -->
<g id="edge19" class="edge">
<title>Node0&#45;&gt;Node19</title>
<path fill="none" stroke="midnightblue" d="M56.26,-934.61C63.74,-973.29 85.86,-1059.59 140,-1105 146.72,-1110.64 154.93,-1114.63 163.38,-1117.44"/>
<polygon fill="midnightblue" stroke="midnightblue" points="59.68,-933.85 54.45,-924.64 52.79,-935.1 59.68,-933.85"/>
</g>
<!-- Node20 -->
<g id="node21" class="node">
<title>Node20</title>
<g id="a_node21"><a xlink:href="classdss_1_1obj_1_1LineCodeBatch.html" target="_top" xlink:title=" ">
<polygon fill="white" stroke="black" points="152,-1076.5 152,-1095.5 276,-1095.5 276,-1076.5 152,-1076.5"/>
<text text-anchor="middle" x="214" y="-1083.5" font-family="Helvetica" font-size="10.00">dss::obj::LineCodeBatch</text>
</a>
</g>
</g>
<!-- Node0&#45;&gt;Node20 -->
<g id="edge20" class="edge">
<title>Node0&#45;&gt;Node20</title>
<path fill="none" stroke="midnightblue" d="M58.58,-934.24C69.02,-966.74 94.64,-1032.32 140,-1067 145.1,-1070.9 150.92,-1074 157,-1076.47"/>
<polygon fill="midnightblue" stroke="midnightblue" points="61.9,-933.12 55.62,-924.59 55.2,-935.17 61.9,-933.12"/>
</g>
<!-- Node21 -->
<g id="node22" class="node">
<title>Node21</title>
<g id="a_node22"><a xlink:href="classdss_1_1obj_1_1LineGeometryBatch.html" target="_top" xlink:title=" ">
<polygon fill="white" stroke="black" points="142,-1038.5 142,-1057.5 286,-1057.5 286,-1038.5 142,-1038.5"/>
<text text-anchor="middle" x="214" y="-1045.5" font-family="Helvetica" font-size="10.00">dss::obj::LineGeometryBatch</text>
</a>
</g>
</g>
<!-- Node0&#45;&gt;Node21 -->
<g id="edge21" class="edge">
<title>Node0&#45;&gt;Node21</title>
<path fill="none" stroke="midnightblue" d="M62.16,-933.71C75.62,-959.22 103.21,-1004.54 140,-1029 145.89,-1032.92 152.54,-1036.02 159.37,-1038.49"/>
<polygon fill="midnightblue" stroke="midnightblue" points="65.22,-932 57.55,-924.69 58.98,-935.19 65.22,-932"/>
</g>
<!-- Node22 -->
<g id="node23" class="node">
<title>Node22</title>
<g id="a_node23"><a xlink:href="classdss_1_1obj_1_1LineSpacingBatch.html" target="_top" xlink:title=" ">
<polygon fill="white" stroke="black" points="146,-1000.5 146,-1019.5 282,-1019.5 282,-1000.5 146,-1000.5"/>
<text text-anchor="middle" x="214" y="-1007.5" font-family="Helvetica" font-size="10.00">dss::obj::LineSpacingBatch</text>
</a>
</g>
</g>
<!-- Node0&#45;&gt;Node22 -->
<g id="edge22" class="edge">
<title>Node0&#45;&gt;Node22</title>
<path fill="none" stroke="midnightblue" d="M68.09,-932.21C84.21,-949.56 111.35,-975.86 140,-991 147.29,-994.86 155.42,-997.96 163.52,-1000.46"/>
<polygon fill="midnightblue" stroke="midnightblue" points="70.41,-929.56 61.1,-924.51 65.22,-934.27 70.41,-929.56"/>
</g>
<!-- Node23 -->
<g id="node24" class="node">
<title>Node23</title>
<g id="a_node24"><a xlink:href="classdss_1_1obj_1_1LoadBatch.html" target="_top" xlink:title=" ">
<polygon fill="white" stroke="black" points="162,-962.5 162,-981.5 266,-981.5 266,-962.5 162,-962.5"/>
<text text-anchor="middle" x="214" y="-969.5" font-family="Helvetica" font-size="10.00">dss::obj::LoadBatch</text>
</a>
</g>
</g>
<!-- Node0&#45;&gt;Node23 -->
<g id="edge23" class="edge">
<title>Node0&#45;&gt;Node23</title>
<path fill="none" stroke="midnightblue" d="M81.92,-929C98.63,-936.74 120.21,-946.15 140,-953 150.15,-956.51 161.28,-959.72 171.74,-962.47"/>
<polygon fill="midnightblue" stroke="midnightblue" points="83.23,-925.74 72.69,-924.66 80.25,-932.08 83.23,-925.74"/>
</g>
<!-- Node24 -->
<g id="node25" class="node">
<title>Node24</title>
<g id="a_node25"><a xlink:href="classdss_1_1obj_1_1LoadShapeBatch.html" target="_top" xlink:title=" ">
<polygon fill="white" stroke="black" points="148.5,-924.5 148.5,-943.5 279.5,-943.5 279.5,-924.5 148.5,-924.5"/>
<text text-anchor="middle" x="214" y="-931.5" font-family="Helvetica" font-size="10.00">dss::obj::LoadShapeBatch</text>
</a>
</g>
</g>
<!-- Node0&#45;&gt;Node24 -->
<g id="edge24" class="edge">
<title>Node0&#45;&gt;Node24</title>
<path fill="none" stroke="midnightblue" d="M114.17,-922.26C125.36,-923.59 137.07,-924.98 148.36,-926.32"/>
<polygon fill="midnightblue" stroke="midnightblue" points="114.41,-918.77 104.06,-921.06 113.58,-925.72 114.41,-918.77"/>
</g>
<!-- Node25 -->
<g id="node26" class="node">
<title>Node25</title>
<g id="a_node26"><a xlink:href="classdss_1_1obj_1_1MonitorBatch.html" target="_top" xlink:title=" ">
<polygon fill="white" stroke="black" points="156.5,-886.5 156.5,-905.5 271.5,-905.5 271.5,-886.5 156.5,-886.5"/>
<text text-anchor="middle" x="214" y="-893.5" font-family="Helvetica" font-size="10.00">dss::obj::MonitorBatch</text>
</a>
</g>
</g>
<!-- Node0&#45;&gt;Node25 -->
<g id="edge25" class="edge">
<title>Node0&#45;&gt;Node25</title>
<path fill="none" stroke="midnightblue" d="M114.01,-907.75C127.91,-906.1 142.61,-904.36 156.32,-902.73"/>
<polygon fill="midnightblue" stroke="midnightblue" points="113.58,-904.28 104.06,-908.94 114.41,-911.23 113.58,-904.28"/>
</g>
<!-- Node26 -->
<g id="node27" class="node">
<title>Node26</title>
<g id="a_node27"><a xlink:href="classdss_1_1obj_1_1PVSystemBatch.html" target="_top" xlink:title=" ">
<polygon fill="white" stroke="black" points="149.5,-848.5 149.5,-867.5 278.5,-867.5 278.5,-848.5 149.5,-848.5"/>
<text text-anchor="middle" x="214" y="-855.5" font-family="Helvetica" font-size="10.00">dss::obj::PVSystemBatch</text>
</a>
</g>
</g>
<!-- Node0&#45;&gt;Node26 -->
<g id="edge26" class="edge">
<title>Node0&#45;&gt;Node26</title>
<path fill="none" stroke="midnightblue" d="M81.92,-901C98.63,-893.26 120.21,-883.85 140,-877 150.15,-873.49 161.28,-870.28 171.74,-867.53"/>
<polygon fill="midnightblue" stroke="midnightblue" points="80.25,-897.92 72.69,-905.34 83.23,-904.26 80.25,-897.92"/>
</g>
<!-- Node27 -->
<g id="node28" class="node">
<title>Node27</title>
<g id="a_node28"><a xlink:href="classdss_1_1obj_1_1PriceShapeBatch.html" target="_top" xlink:title=" ">
<polygon fill="white" stroke="black" points="147.5,-810.5 147.5,-829.5 280.5,-829.5 280.5,-810.5 147.5,-810.5"/>
<text text-anchor="middle" x="214" y="-817.5" font-family="Helvetica" font-size="10.00">dss::obj::PriceShapeBatch</text>
</a>
</g>
</g>
<!-- Node0&#45;&gt;Node27 -->
<g id="edge27" class="edge">
<title>Node0&#45;&gt;Node27</title>
<path fill="none" stroke="midnightblue" d="M68.09,-897.79C84.21,-880.44 111.35,-854.14 140,-839 147.29,-835.14 155.42,-832.04 163.52,-829.54"/>
<polygon fill="midnightblue" stroke="midnightblue" points="65.22,-895.73 61.1,-905.49 70.41,-900.44 65.22,-895.73"/>
</g>
<!-- Node28 -->
<g id="node29" class="node">
<title>Node28</title>
<g id="a_node29"><a xlink:href="classdss_1_1obj_1_1ReactorBatch.html" target="_top" xlink:title=" ">
<polygon fill="white" stroke="black" points="156,-772.5 156,-791.5 272,-791.5 272,-772.5 156,-772.5"/>
<text text-anchor="middle" x="214" y="-779.5" font-family="Helvetica" font-size="10.00">dss::obj::ReactorBatch</text>
</a>
</g>
</g>
<!-- Node0&#45;&gt;Node28 -->
<g id="edge28" class="edge">
<title>Node0&#45;&gt;Node28</title>
<path fill="none" stroke="midnightblue" d="M62.16,-896.29C75.62,-870.78 103.21,-825.46 140,-801 145.89,-797.08 152.54,-793.98 159.37,-791.51"/>
<polygon fill="midnightblue" stroke="midnightblue" points="58.98,-894.81 57.55,-905.31 65.22,-898 58.98,-894.81"/>
</g>
<!-- Node29 -->
<g id="node30" class="node">
<title>Node29</title>
<g id="a_node30"><a xlink:href="classdss_1_1obj_1_1RecloserBatch.html" target="_top" xlink:title=" ">
<polygon fill="white" stroke="black" points="153.5,-734.5 153.5,-753.5 274.5,-753.5 274.5,-734.5 153.5,-734.5"/>
<text text-anchor="middle" x="214" y="-741.5" font-family="Helvetica" font-size="10.00">dss::obj::RecloserBatch</text>
</a>
</g>
</g>
<!-- Node0&#45;&gt;Node29 -->
<g id="edge29" class="edge">
<title>Node0&#45;&gt;Node29</title>
<path fill="none" stroke="midnightblue" d="M58.58,-895.76C69.02,-863.26 94.64,-797.68 140,-763 145.1,-759.1 150.92,-756 157,-753.53"/>
<polygon fill="midnightblue" stroke="midnightblue" points="55.2,-894.83 55.62,-905.41 61.9,-896.88 55.2,-894.83"/>
</g>
<!-- Node30 -->
<g id="node31" class="node">
<title>Node30</title>
<g id="a_node31"><a xlink:href="classdss_1_1obj_1_1RegControlBatch.html" target="_top" xlink:title=" ">
<polygon fill="white" stroke="black" points="148.5,-696.5 148.5,-715.5 279.5,-715.5 279.5,-696.5 148.5,-696.5"/>
<text text-anchor="middle" x="214" y="-703.5" font-family="Helvetica" font-size="10.00">dss::obj::RegControlBatch</text>
</a>
</g>
</g>
<!-- Node0&#45;&gt;Node30 -->
<g id="edge30" class="edge">
<title>Node0&#45;&gt;Node30</title>
<path fill="none" stroke="midnightblue" d="M56.26,-895.39C63.74,-856.71 85.86,-770.41 140,-725 144.62,-721.13 149.93,-718.03 155.54,-715.56"/>
<polygon fill="midnightblue" stroke="midnightblue" points="52.79,-894.9 54.45,-905.36 59.68,-896.15 52.79,-894.9"/>
</g>
<!-- Node31 -->
<g id="node32" class="node">
<title>Node31</title>
<g id="a_node32"><a xlink:href="classdss_1_1obj_1_1RelayBatch.html" target="_top" xlink:title=" ">
<polygon fill="white" stroke="black" points="160.5,-658.5 160.5,-677.5 267.5,-677.5 267.5,-658.5 160.5,-658.5"/>
<text text-anchor="middle" x="214" y="-665.5" font-family="Helvetica" font-size="10.00">dss::obj::RelayBatch</text>
</a>
</g>
</g>
<!-- Node0&#45;&gt;Node31 -->
<g id="edge31" class="edge">
<title>Node0&#45;&gt;Node31</title>
<path fill="none" stroke="midnightblue" d="M54.57,-895.52C59.19,-851.48 76.71,-743.69 140,-687 145.85,-681.76 152.97,-677.93 160.44,-675.14"/>
<polygon fill="midnightblue" stroke="midnightblue" points="51.08,-895.21 53.63,-905.49 58.05,-895.86 51.08,-895.21"/>
</g>
<!-- Node32 -->
<g id="node33" class="node">
<title>Node32</title>
<g id="a_node33"><a xlink:href="classdss_1_1obj_1_1SensorBatch.html" target="_top" xlink:title=" ">
<polygon fill="white" stroke="black" points="157.5,-620.5 157.5,-639.5 270.5,-639.5 270.5,-620.5 157.5,-620.5"/>
<text text-anchor="middle" x="214" y="-627.5" font-family="Helvetica" font-size="10.00">dss::obj::SensorBatch</text>
</a>
</g>
</g>
<!-- Node0&#45;&gt;Node32 -->
<g id="edge32" class="edge">
<title>Node0&#45;&gt;Node32</title>
<path fill="none" stroke="midnightblue" d="M53.37,-895.04C55.4,-845.67 67.74,-716.95 140,-649 144.96,-644.33 150.92,-640.78 157.26,-638.08"/>
<polygon fill="midnightblue" stroke="midnightblue" points="49.86,-895.2 53.05,-905.31 56.86,-895.42 49.86,-895.2"/>
</g>
<!-- Node33 -->
<g id="node34" class="node">
<title>Node33</title>
<g id="a_node34"><a xlink:href="classdss_1_1obj_1_1SpectrumBatch.html" target="_top" xlink:title=" ">
<polygon fill="white" stroke="black" points="151.5,-582.5 151.5,-601.5 276.5,-601.5 276.5,-582.5 151.5,-582.5"/>
<text text-anchor="middle" x="214" y="-589.5" font-family="Helvetica" font-size="10.00">dss::obj::SpectrumBatch</text>
</a>
</g>
</g>
<!-- Node0&#45;&gt;Node33 -->
<g id="edge33" class="edge">
<title>Node0&#45;&gt;Node33</title>
<path fill="none" stroke="midnightblue" d="M52.41,-895.17C51.94,-841.24 58.39,-690.67 140,-611 143.94,-607.16 148.55,-604.07 153.5,-601.58"/>
<polygon fill="midnightblue" stroke="midnightblue" points="48.91,-895.48 52.6,-905.41 55.91,-895.35 48.91,-895.48"/>
</g>
<!-- Node34 -->
<g id="node35" class="node">
<title>Node34</title>
<g id="a_node35"><a xlink:href="classdss_1_1obj_1_1StorageBatch.html" target="_top" xlink:title=" ">
<polygon fill="white" stroke="black" points="156,-544.5 156,-563.5 272,-563.5 272,-544.5 156,-544.5"/>
<text text-anchor="middle" x="214" y="-551.5" font-family="Helvetica" font-size="10.00">dss::obj::StorageBatch</text>
</a>
</g>
</g>
<!-- Node0&#45;&gt;Node34 -->
<g id="edge34" class="edge">
<title>Node0&#45;&gt;Node34</title>
<path fill="none" stroke="midnightblue" d="M55.4,-895.17C63.74,-829.35 93.54,-619.72 140,-573 144.52,-568.45 149.99,-564.95 155.88,-562.25"/>
<polygon fill="midnightblue" stroke="midnightblue" points="51.88,-895.04 54.13,-905.4 58.83,-895.91 51.88,-895.04"/>
</g>
<!-- Node35 -->
<g id="node36" class="node">
<title>Node35</title>
<g id="a_node36"><a xlink:href="classdss_1_1obj_1_1StorageControllerBatch.html" target="_top" xlink:title=" ">
<polygon fill="white" stroke="black" points="147.5,-495 147.5,-525 280.5,-525 280.5,-495 147.5,-495"/>
<text text-anchor="start" x="155.5" y="-513" font-family="Helvetica" font-size="10.00">dss::obj::StorageController</text>
<text text-anchor="middle" x="214" y="-502" font-family="Helvetica" font-size="10.00">Batch</text>
</a>
</g>
</g>
<!-- Node0&#45;&gt;Node35 -->
<g id="edge35" class="edge">
<title>Node0&#45;&gt;Node35</title>
<path fill="none" stroke="midnightblue" d="M54.98,-895.41C62.42,-825.53 90.78,-589.67 140,-535 143.5,-531.12 147.62,-527.84 152.1,-525.07"/>
<polygon fill="midnightblue" stroke="midnightblue" points="51.49,-895.17 53.93,-905.48 58.45,-895.9 51.49,-895.17"/>
</g>
<!-- Node36 -->
<g id="node37" class="node">
<title>Node36</title>
<g id="a_node37"><a xlink:href="classdss_1_1obj_1_1SwtControlBatch.html" target="_top" xlink:title=" ">
<polygon fill="white" stroke="black" points="148.5,-456.5 148.5,-475.5 279.5,-475.5 279.5,-456.5 148.5,-456.5"/>
<text text-anchor="middle" x="214" y="-463.5" font-family="Helvetica" font-size="10.00">dss::obj::SwtControlBatch</text>
</a>
</g>
</g>
<!-- Node0&#45;&gt;Node36 -->
<g id="edge36" class="edge">
<title>Node0&#45;&gt;Node36</title>
<path fill="none" stroke="midnightblue" d="M54.31,-895.27C59.75,-819.31 82.99,-546.99 140,-486 144.04,-481.68 148.91,-478.26 154.2,-475.56"/>
<polygon fill="midnightblue" stroke="midnightblue" points="50.81,-895.14 53.61,-905.36 57.8,-895.63 50.81,-895.14"/>
</g>
<!-- Node37 -->
<g id="node38" class="node">
<title>Node37</title>
<g id="a_node38"><a xlink:href="classdss_1_1obj_1_1TCC__CurveBatch.html" target="_top" xlink:title=" ">
<polygon fill="white" stroke="black" points="146.5,-418.5 146.5,-437.5 281.5,-437.5 281.5,-418.5 146.5,-418.5"/>
<text text-anchor="middle" x="214" y="-425.5" font-family="Helvetica" font-size="10.00">dss::obj::TCC_CurveBatch</text>
</a>
</g>
</g>
<!-- Node0&#45;&gt;Node37 -->
<g id="edge37" class="edge">
<title>Node0&#45;&gt;Node37</title>
<path fill="none" stroke="midnightblue" d="M53.94,-895.03C58.12,-814.39 77.72,-513.86 140,-447 143.57,-443.17 147.81,-440.07 152.42,-437.57"/>
<polygon fill="midnightblue" stroke="midnightblue" points="50.43,-895.12 53.43,-905.28 57.42,-895.47 50.43,-895.12"/>
</g>
<!-- Node38 -->
<g id="node39" class="node">
<title>Node38</title>
<g id="a_node39"><a xlink:href="classdss_1_1obj_1_1TSDataBatch.html" target="_top" xlink:title=" ">
<polygon fill="white" stroke="black" points="156,-380.5 156,-399.5 272,-399.5 272,-380.5 156,-380.5"/>
<text text-anchor="middle" x="214" y="-387.5" font-family="Helvetica" font-size="10.00">dss::obj::TSDataBatch</text>
</a>
</g>
</g>
<!-- Node0&#45;&gt;Node38 -->
<g id="edge38" class="edge">
<title>Node0&#45;&gt;Node38</title>
<path fill="none" stroke="midnightblue" d="M53.62,-895.32C56.68,-811.11 72.82,-482.1 140,-409 144.43,-404.18 149.92,-400.52 155.87,-397.74"/>
<polygon fill="midnightblue" stroke="midnightblue" points="50.12,-895.22 53.28,-905.33 57.12,-895.46 50.12,-895.22"/>
</g>
<!-- Node39 -->
<g id="node40" class="node">
<title>Node39</title>
<g id="a_node40"><a xlink:href="classdss_1_1obj_1_1TShapeBatch.html" target="_top" xlink:title=" ">
<polygon fill="white" stroke="black" points="156,-342.5 156,-361.5 272,-361.5 272,-342.5 156,-342.5"/>
<text text-anchor="middle" x="214" y="-349.5" font-family="Helvetica" font-size="10.00">dss::obj::TShapeBatch</text>
</a>
</g>
</g>
<!-- Node0&#45;&gt;Node39 -->
<g id="edge39" class="edge">
<title>Node0&#45;&gt;Node39</title>
<path fill="none" stroke="midnightblue" d="M53.36,-895.28C55.39,-807.15 67.99,-450.28 140,-371 144.4,-366.15 149.87,-362.47 155.82,-359.69"/>
<polygon fill="midnightblue" stroke="midnightblue" points="49.86,-895.4 53.15,-905.47 56.86,-895.55 49.86,-895.4"/>
</g>
<!-- Node40 -->
<g id="node41" class="node">
<title>Node40</title>
<g id="a_node41"><a xlink:href="classdss_1_1obj_1_1TransformerBatch.html" target="_top" xlink:title=" ">
<polygon fill="white" stroke="black" points="147,-304.5 147,-323.5 281,-323.5 281,-304.5 147,-304.5"/>
<text text-anchor="middle" x="214" y="-311.5" font-family="Helvetica" font-size="10.00">dss::obj::TransformerBatch</text>
</a>
</g>
</g>
<!-- Node0&#45;&gt;Node40 -->
<g id="edge40" class="edge">
<title>Node0&#45;&gt;Node40</title>
<path fill="none" stroke="midnightblue" d="M53.14,-895.08C54.19,-802.88 63.2,-418.43 140,-333 143.41,-329.2 147.48,-326.12 151.93,-323.62"/>
<polygon fill="midnightblue" stroke="midnightblue" points="49.64,-895.23 53.04,-905.26 56.64,-895.29 49.64,-895.23"/>
</g>
<!-- Node41 -->
<g id="node42" class="node">
<title>Node41</title>
<g id="a_node42"><a xlink:href="classdss_1_1obj_1_1UPFCBatch.html" target="_top" xlink:title=" ">
<polygon fill="white" stroke="black" points="159,-266.5 159,-285.5 269,-285.5 269,-266.5 159,-266.5"/>
<text text-anchor="middle" x="214" y="-273.5" font-family="Helvetica" font-size="10.00">dss::obj::UPFCBatch</text>
</a>
</g>
</g>
<!-- Node0&#45;&gt;Node41 -->
<g id="edge41" class="edge">
<title>Node0&#45;&gt;Node41</title>
<path fill="none" stroke="midnightblue" d="M52.94,-895C53.05,-799.04 58.36,-386.63 140,-295 145.14,-289.23 151.79,-285.11 158.98,-282.19"/>
<polygon fill="midnightblue" stroke="midnightblue" points="49.44,-895.1 52.95,-905.09 56.44,-895.09 49.44,-895.1"/>
</g>
<!-- Node42 -->
<g id="node43" class="node">
<title>Node42</title>
<g id="a_node43"><a xlink:href="classdss_1_1obj_1_1UPFCControlBatch.html" target="_top" xlink:title=" ">
<polygon fill="white" stroke="black" points="143,-228.5 143,-247.5 285,-247.5 285,-228.5 143,-228.5"/>
<text text-anchor="middle" x="214" y="-235.5" font-family="Helvetica" font-size="10.00">dss::obj::UPFCControlBatch</text>
</a>
</g>
</g>
<!-- Node0&#45;&gt;Node42 -->
<g id="edge42" class="edge">
<title>Node0&#45;&gt;Node42</title>
<path fill="none" stroke="midnightblue" d="M52.76,-895.37C51.97,-796.61 53.38,-355 140,-257 143.38,-253.17 147.43,-250.07 151.86,-247.56"/>
<polygon fill="midnightblue" stroke="midnightblue" points="49.26,-895.48 52.86,-905.44 56.26,-895.41 49.26,-895.48"/>
</g>
<!-- Node43 -->
<g id="node44" class="node">
<title>Node43</title>
<g id="a_node44"><a xlink:href="classdss_1_1obj_1_1VCCSBatch.html" target="_top" xlink:title=" ">
<polygon fill="white" stroke="black" points="159,-190.5 159,-209.5 269,-209.5 269,-190.5 159,-190.5"/>
<text text-anchor="middle" x="214" y="-197.5" font-family="Helvetica" font-size="10.00">dss::obj::VCCSBatch</text>
</a>
</g>
</g>
<!-- Node0&#45;&gt;Node43 -->
<g id="edge43" class="edge">
<title>Node0&#45;&gt;Node43</title>
<path fill="none" stroke="midnightblue" d="M52.6,-895.22C50.95,-792.76 48.55,-323.22 140,-219 145.1,-213.19 151.72,-209.05 158.9,-206.12"/>
<polygon fill="midnightblue" stroke="midnightblue" points="49.11,-895.45 52.78,-905.38 56.1,-895.32 49.11,-895.45"/>
</g>
<!-- Node44 -->
<g id="node45" class="node">
<title>Node44</title>
<g id="a_node45"><a xlink:href="classdss_1_1obj_1_1VSConverterBatch.html" target="_top" xlink:title=" ">
<polygon fill="white" stroke="black" points="145,-152.5 145,-171.5 283,-171.5 283,-152.5 145,-152.5"/>
<text text-anchor="middle" x="214" y="-159.5" font-family="Helvetica" font-size="10.00">dss::obj::VSConverterBatch</text>
</a>
</g>
</g>
<!-- Node0&#45;&gt;Node44 -->
<g id="edge44" class="edge">
<title>Node0&#45;&gt;Node44</title>
<path fill="none" stroke="midnightblue" d="M54.02,-895.35C59.96,-784.13 91.54,-236.58 140,-181 143.36,-177.15 147.38,-174.03 151.8,-171.51"/>
<polygon fill="midnightblue" stroke="midnightblue" points="50.52,-895.31 53.49,-905.48 57.51,-895.68 50.52,-895.31"/>
</g>
<!-- Node45 -->
<g id="node46" class="node">
<title>Node45</title>
<g id="a_node46"><a xlink:href="classdss_1_1obj_1_1VsourceBatch.html" target="_top" xlink:title=" ">
<polygon fill="white" stroke="black" points="154.5,-114.5 154.5,-133.5 273.5,-133.5 273.5,-114.5 154.5,-114.5"/>
<text text-anchor="middle" x="214" y="-121.5" font-family="Helvetica" font-size="10.00">dss::obj::VsourceBatch</text>
</a>
</g>
</g>
<!-- Node0&#45;&gt;Node45 -->
<g id="edge45" class="edge">
<title>Node0&#45;&gt;Node45</title>
<path fill="none" stroke="midnightblue" d="M53.91,-895.05C59.37,-779.76 89.13,-201.69 140,-143 143.95,-138.45 148.83,-134.92 154.19,-132.19"/>
<polygon fill="midnightblue" stroke="midnightblue" points="50.41,-895.1 53.44,-905.26 57.4,-895.43 50.41,-895.1"/>
</g>
<!-- Node46 -->
<g id="node47" class="node">
<title>Node46</title>
<g id="a_node47"><a xlink:href="classdss_1_1obj_1_1WireDataBatch.html" target="_top" xlink:title=" ">
<polygon fill="white" stroke="black" points="152,-76.5 152,-95.5 276,-95.5 276,-76.5 152,-76.5"/>
<text text-anchor="middle" x="214" y="-83.5" font-family="Helvetica" font-size="10.00">dss::obj::WireDataBatch</text>
</a>
</g>
</g>
<!-- Node0&#45;&gt;Node46 -->
<g id="edge46" class="edge">
<title>Node0&#45;&gt;Node46</title>
<path fill="none" stroke="midnightblue" d="M53.8,-895.19C58.73,-776.9 86.65,-166.87 140,-105 143.34,-101.13 147.35,-98 151.76,-95.47"/>
<polygon fill="midnightblue" stroke="midnightblue" points="50.29,-895.2 53.38,-905.33 57.29,-895.49 50.29,-895.2"/>
</g>
<!-- Node47 -->
<g id="node48" class="node">
<title>Node47</title>
<g id="a_node48"><a xlink:href="classdss_1_1obj_1_1XYcurveBatch.html" target="_top" xlink:title=" ">
<polygon fill="white" stroke="black" points="154,-38.5 154,-57.5 274,-57.5 274,-38.5 154,-38.5"/>
<text text-anchor="middle" x="214" y="-45.5" font-family="Helvetica" font-size="10.00">dss::obj::XYcurveBatch</text>
</a>
</g>
</g>
<!-- Node0&#45;&gt;Node47 -->
<g id="edge47" class="edge">
<title>Node0&#45;&gt;Node47</title>
<path fill="none" stroke="midnightblue" d="M53.69,-895.4C58.12,-774.41 84.15,-132.08 140,-67 143.84,-62.53 148.58,-59.04 153.8,-56.33"/>
<polygon fill="midnightblue" stroke="midnightblue" points="50.19,-895.33 53.33,-905.45 57.19,-895.58 50.19,-895.33"/>
</g>
<!-- Node48 -->
<g id="node49" class="node">
<title>Node48</title>
<g id="a_node49"><a xlink:href="classdss_1_1obj_1_1XfmrCodeBatch.html" target="_top" xlink:title=" ">
<polygon fill="white" stroke="black" points="150.5,-0.5 150.5,-19.5 277.5,-19.5 277.5,-0.5 150.5,-0.5"/>
<text text-anchor="middle" x="214" y="-7.5" font-family="Helvetica" font-size="10.00">dss::obj::XfmrCodeBatch</text>
</a>
</g>
</g>
<!-- Node0&#45;&gt;Node48 -->
<g id="edge48" class="edge">
<title>Node0&#45;&gt;Node48</title>
<path fill="none" stroke="midnightblue" d="M53.6,-895.3C57.58,-770.89 81.71,-97.23 140,-29 143.23,-25.22 147.11,-22.14 151.38,-19.64"/>
<polygon fill="midnightblue" stroke="midnightblue" points="50.1,-895.2 53.29,-905.31 57.1,-895.42 50.1,-895.2"/>
</g>
</g>
</svg>
