<?xml version="1.0" encoding="UTF-8" standalone="no"?>
<!DOCTYPE svg PUBLIC "-//W3C//DTD SVG 1.1//EN"
 "http://www.w3.org/Graphics/SVG/1.1/DTD/svg11.dtd">
<!-- Generated by graphviz version 2.47.2 (20210527.1257)
 -->
<!-- Title: Graphical Class Hierarchy Pages: 1 -->
<svg width="270pt" height="1814pt"
 viewBox="0.00 0.00 270.00 1814.00" xmlns="http://www.w3.org/2000/svg" xmlns:xlink="http://www.w3.org/1999/xlink">
<g id="graph0" class="graph" transform="scale(1 1) rotate(0) translate(4 1810)">
<title>Graphical Class Hierarchy</title>
<polygon fill="white" stroke="transparent" points="-4,4 -4,-1810 266,-1810 266,4 -4,4"/>
<!-- Node0 -->
<g id="node1" class="node">
<title>Node0</title>
<g id="a_node1"><a xlink:href="classdss_1_1obj_1_1DSSObj.html" target="_top" xlink:title=" ">
<polygon fill="white" stroke="black" points="0,-893.5 0,-912.5 93,-912.5 93,-893.5 0,-893.5"/>
<text text-anchor="middle" x="46.5" y="-900.5" font-family="Helvetica" font-size="10.00">dss::obj::DSSObj</text>
</a>
</g>
</g>
<!-- Node1 -->
<g id="node2" class="node">
<title>Node1</title>
<g id="a_node2"><a xlink:href="classdss_1_1obj_1_1AutoTrans.html" target="_top" xlink:title=" ">
<polygon fill="white" stroke="black" points="145,-1786.5 145,-1805.5 246,-1805.5 246,-1786.5 145,-1786.5"/>
<text text-anchor="middle" x="195.5" y="-1793.5" font-family="Helvetica" font-size="10.00">dss::obj::AutoTrans</text>
</a>
</g>
</g>
<!-- Node0&#45;&gt;Node1 -->
<g id="edge1" class="edge">
<title>Node0&#45;&gt;Node1</title>
<path fill="none" stroke="midnightblue" d="M48.03,-922.78C51.5,-1046.33 72.68,-1708.87 129,-1777 133.22,-1782.11 138.73,-1785.89 144.77,-1788.69"/>
<polygon fill="midnightblue" stroke="midnightblue" points="51.52,-922.45 47.75,-912.55 44.52,-922.64 51.52,-922.45"/>
</g>
<!-- Node2 -->
<g id="node3" class="node">
<title>Node2</title>
<g id="a_node3"><a xlink:href="classdss_1_1obj_1_1CNData.html" target="_top" xlink:title=" ">
<polygon fill="white" stroke="black" points="149,-1748.5 149,-1767.5 242,-1767.5 242,-1748.5 149,-1748.5"/>
<text text-anchor="middle" x="195.5" y="-1755.5" font-family="Helvetica" font-size="10.00">dss::obj::CNData</text>
</a>
</g>
</g>
<!-- Node0&#45;&gt;Node2 -->
<g id="edge2" class="edge">
<title>Node0&#45;&gt;Node2</title>
<path fill="none" stroke="midnightblue" d="M48.13,-923.04C52.08,-1044.03 75.14,-1674.12 129,-1739 134.14,-1745.2 141.17,-1749.44 148.73,-1752.33"/>
<polygon fill="midnightblue" stroke="midnightblue" points="51.61,-922.57 47.79,-912.68 44.62,-922.79 51.61,-922.57"/>
</g>
<!-- Node3 -->
<g id="node4" class="node">
<title>Node3</title>
<g id="a_node4"><a xlink:href="classdss_1_1obj_1_1CapControl.html" target="_top" xlink:title=" ">
<polygon fill="white" stroke="black" points="142,-1710.5 142,-1729.5 249,-1729.5 249,-1710.5 142,-1710.5"/>
<text text-anchor="middle" x="195.5" y="-1717.5" font-family="Helvetica" font-size="10.00">dss::obj::CapControl</text>
</a>
</g>
</g>
<!-- Node0&#45;&gt;Node3 -->
<g id="edge3" class="edge">
<title>Node0&#45;&gt;Node3</title>
<path fill="none" stroke="midnightblue" d="M48.22,-922.85C52.62,-1040.11 77.53,-1639.28 129,-1701 132.56,-1705.27 137.03,-1708.62 141.94,-1711.23"/>
<polygon fill="midnightblue" stroke="midnightblue" points="51.7,-922.38 47.84,-912.51 44.71,-922.63 51.7,-922.38"/>
</g>
<!-- Node4 -->
<g id="node5" class="node">
<title>Node4</title>
<g id="a_node5"><a xlink:href="classdss_1_1obj_1_1Capacitor.html" target="_top" xlink:title=" ">
<polygon fill="white" stroke="black" points="146,-1672.5 146,-1691.5 245,-1691.5 245,-1672.5 146,-1672.5"/>
<text text-anchor="middle" x="195.5" y="-1679.5" font-family="Helvetica" font-size="10.00">dss::obj::Capacitor</text>
</a>
</g>
</g>
<!-- Node0&#45;&gt;Node4 -->
<g id="edge4" class="edge">
<title>Node0&#45;&gt;Node4</title>
<path fill="none" stroke="midnightblue" d="M48.31,-922.61C53.18,-1035.98 79.91,-1604.44 129,-1663 133.49,-1668.35 139.39,-1672.25 145.81,-1675.07"/>
<polygon fill="midnightblue" stroke="midnightblue" points="51.81,-922.42 47.89,-912.58 44.81,-922.72 51.81,-922.42"/>
</g>
<!-- Node5 -->
<g id="node6" class="node">
<title>Node5</title>
<g id="a_node6"><a xlink:href="classdss_1_1obj_1_1ESPVLControl.html" target="_top" xlink:title=" ">
<polygon fill="white" stroke="black" points="135,-1634.5 135,-1653.5 256,-1653.5 256,-1634.5 135,-1634.5"/>
<text text-anchor="middle" x="195.5" y="-1641.5" font-family="Helvetica" font-size="10.00">dss::obj::ESPVLControl</text>
</a>
</g>
</g>
<!-- Node0&#45;&gt;Node5 -->
<g id="edge5" class="edge">
<title>Node0&#45;&gt;Node5</title>
<path fill="none" stroke="midnightblue" d="M48.43,-922.65C53.81,-1032.71 82.33,-1569.64 129,-1625 132.21,-1628.8 136.12,-1631.87 140.43,-1634.34"/>
<polygon fill="midnightblue" stroke="midnightblue" points="51.92,-922.43 47.95,-912.61 44.93,-922.77 51.92,-922.43"/>
</g>
<!-- Node6 -->
<g id="node7" class="node">
<title>Node6</title>
<g id="a_node7"><a xlink:href="classdss_1_1obj_1_1EnergyMeter.html" target="_top" xlink:title=" ">
<polygon fill="white" stroke="black" points="139,-1596.5 139,-1615.5 252,-1615.5 252,-1596.5 139,-1596.5"/>
<text text-anchor="middle" x="195.5" y="-1603.5" font-family="Helvetica" font-size="10.00">dss::obj::EnergyMeter</text>
</a>
</g>
</g>
<!-- Node0&#45;&gt;Node6 -->
<g id="edge6" class="edge">
<title>Node0&#45;&gt;Node6</title>
<path fill="none" stroke="midnightblue" d="M48.58,-922.94C54.53,-1030.13 84.77,-1534.87 129,-1587 132.29,-1590.88 136.33,-1594 140.76,-1596.49"/>
<polygon fill="midnightblue" stroke="midnightblue" points="52.07,-922.64 48.02,-912.85 45.08,-923.03 52.07,-922.64"/>
</g>
<!-- Node7 -->
<g id="node8" class="node">
<title>Node7</title>
<g id="a_node8"><a xlink:href="classdss_1_1obj_1_1ExpControl.html" target="_top" xlink:title=" ">
<polygon fill="white" stroke="black" points="142.5,-1558.5 142.5,-1577.5 248.5,-1577.5 248.5,-1558.5 142.5,-1558.5"/>
<text text-anchor="middle" x="195.5" y="-1565.5" font-family="Helvetica" font-size="10.00">dss::obj::ExpControl</text>
</a>
</g>
</g>
<!-- Node0&#45;&gt;Node7 -->
<g id="edge7" class="edge">
<title>Node0&#45;&gt;Node7</title>
<path fill="none" stroke="midnightblue" d="M47.19,-922.84C46.04,-1020.75 45.83,-1451.65 129,-1549 132.69,-1553.32 137.3,-1556.69 142.36,-1559.31"/>
<polygon fill="midnightblue" stroke="midnightblue" points="50.69,-922.86 47.32,-912.82 43.69,-922.77 50.69,-922.86"/>
</g>
<!-- Node8 -->
<g id="node9" class="node">
<title>Node8</title>
<g id="a_node9"><a xlink:href="classdss_1_1obj_1_1Fault.html" target="_top" xlink:title=" ">
<polygon fill="white" stroke="black" points="156,-1520.5 156,-1539.5 235,-1539.5 235,-1520.5 156,-1520.5"/>
<text text-anchor="middle" x="195.5" y="-1527.5" font-family="Helvetica" font-size="10.00">dss::obj::Fault</text>
</a>
</g>
</g>
<!-- Node0&#45;&gt;Node8 -->
<g id="edge8" class="edge">
<title>Node0&#45;&gt;Node8</title>
<path fill="none" stroke="midnightblue" d="M47.36,-922.85C47.09,-1017.24 50.62,-1419.97 129,-1511 135.8,-1518.9 145.66,-1523.61 155.68,-1526.39"/>
<polygon fill="midnightblue" stroke="midnightblue" points="50.86,-922.7 47.41,-912.69 43.86,-922.67 50.86,-922.7"/>
</g>
<!-- Node9 -->
<g id="node10" class="node">
<title>Node9</title>
<g id="a_node10"><a xlink:href="classdss_1_1obj_1_1Fuse.html" target="_top" xlink:title=" ">
<polygon fill="white" stroke="black" points="156,-1482.5 156,-1501.5 235,-1501.5 235,-1482.5 156,-1482.5"/>
<text text-anchor="middle" x="195.5" y="-1489.5" font-family="Helvetica" font-size="10.00">dss::obj::Fuse</text>
</a>
</g>
</g>
<!-- Node0&#45;&gt;Node9 -->
<g id="edge9" class="edge">
<title>Node0&#45;&gt;Node9</title>
<path fill="none" stroke="midnightblue" d="M47.55,-922.73C48.2,-1013.29 55.36,-1388.23 129,-1473 135.83,-1480.87 145.71,-1485.57 155.73,-1488.35"/>
<polygon fill="midnightblue" stroke="midnightblue" points="51.05,-922.5 47.5,-912.51 44.05,-922.53 51.05,-922.5"/>
</g>
<!-- Node10 -->
<g id="node11" class="node">
<title>Node10</title>
<g id="a_node11"><a xlink:href="classdss_1_1obj_1_1GICLine.html" target="_top" xlink:title=" ">
<polygon fill="white" stroke="black" points="149,-1444.5 149,-1463.5 242,-1463.5 242,-1444.5 149,-1444.5"/>
<text text-anchor="middle" x="195.5" y="-1451.5" font-family="Helvetica" font-size="10.00">dss::obj::GICLine</text>
</a>
</g>
</g>
<!-- Node0&#45;&gt;Node10 -->
<g id="edge10" class="edge">
<title>Node0&#45;&gt;Node10</title>
<path fill="none" stroke="midnightblue" d="M47.78,-922.79C49.4,-1009.68 60.14,-1356.53 129,-1435 134.23,-1440.96 141.21,-1445.11 148.67,-1447.97"/>
<polygon fill="midnightblue" stroke="midnightblue" points="51.28,-922.65 47.61,-912.71 44.28,-922.76 51.28,-922.65"/>
</g>
<!-- Node11 -->
<g id="node12" class="node">
<title>Node11</title>
<g id="a_node12"><a xlink:href="classdss_1_1obj_1_1GICTransformer.html" target="_top" xlink:title=" ">
<polygon fill="white" stroke="black" points="132,-1406.5 132,-1425.5 259,-1425.5 259,-1406.5 132,-1406.5"/>
<text text-anchor="middle" x="195.5" y="-1413.5" font-family="Helvetica" font-size="10.00">dss::obj::GICTransformer</text>
</a>
</g>
</g>
<!-- Node0&#45;&gt;Node11 -->
<g id="edge11" class="edge">
<title>Node0&#45;&gt;Node11</title>
<path fill="none" stroke="midnightblue" d="M48.04,-922.95C50.69,-1006.18 64.93,-1324.83 129,-1397 132.38,-1400.81 136.47,-1403.87 140.94,-1406.34"/>
<polygon fill="midnightblue" stroke="midnightblue" points="51.53,-922.71 47.74,-912.81 44.54,-922.91 51.53,-922.71"/>
</g>
<!-- Node12 -->
<g id="node13" class="node">
<title>Node12</title>
<g id="a_node13"><a xlink:href="classdss_1_1obj_1_1GICsource.html" target="_top" xlink:title=" ">
<polygon fill="white" stroke="black" points="143.5,-1368.5 143.5,-1387.5 247.5,-1387.5 247.5,-1368.5 143.5,-1368.5"/>
<text text-anchor="middle" x="195.5" y="-1375.5" font-family="Helvetica" font-size="10.00">dss::obj::GICsource</text>
</a>
</g>
</g>
<!-- Node0&#45;&gt;Node12 -->
<g id="edge12" class="edge">
<title>Node0&#45;&gt;Node12</title>
<path fill="none" stroke="midnightblue" d="M48.34,-922.91C52.07,-1002.03 69.66,-1293.04 129,-1359 132.96,-1363.4 137.87,-1366.81 143.21,-1369.44"/>
<polygon fill="midnightblue" stroke="midnightblue" points="51.83,-922.66 47.89,-912.83 44.84,-922.98 51.83,-922.66"/>
</g>
<!-- Node13 -->
<g id="node14" class="node">
<title>Node13</title>
<g id="a_node14"><a xlink:href="classdss_1_1obj_1_1GenDispatcher.html" target="_top" xlink:title=" ">
<polygon fill="white" stroke="black" points="134.5,-1330.5 134.5,-1349.5 256.5,-1349.5 256.5,-1330.5 134.5,-1330.5"/>
<text text-anchor="middle" x="195.5" y="-1337.5" font-family="Helvetica" font-size="10.00">dss::obj::GenDispatcher</text>
</a>
</g>
</g>
<!-- Node0&#45;&gt;Node13 -->
<g id="edge13" class="edge">
<title>Node0&#45;&gt;Node13</title>
<path fill="none" stroke="midnightblue" d="M48.71,-923.14C53.61,-998.32 74.43,-1261.3 129,-1321 132.51,-1324.85 136.76,-1327.93 141.37,-1330.4"/>
<polygon fill="midnightblue" stroke="midnightblue" points="52.17,-922.5 48.05,-912.74 45.19,-922.94 52.17,-922.5"/>
</g>
<!-- Node14 -->
<g id="node15" class="node">
<title>Node14</title>
<g id="a_node15"><a xlink:href="classdss_1_1obj_1_1Generator.html" target="_top" xlink:title=" ">
<polygon fill="white" stroke="black" points="145.5,-1292.5 145.5,-1311.5 245.5,-1311.5 245.5,-1292.5 145.5,-1292.5"/>
<text text-anchor="middle" x="195.5" y="-1299.5" font-family="Helvetica" font-size="10.00">dss::obj::Generator</text>
</a>
</g>
</g>
<!-- Node0&#45;&gt;Node14 -->
<g id="edge14" class="edge">
<title>Node0&#45;&gt;Node14</title>
<path fill="none" stroke="midnightblue" d="M49.09,-922.65C55.15,-992.77 79.01,-1229.33 129,-1283 133.52,-1287.85 139.2,-1291.49 145.31,-1294.21"/>
<polygon fill="midnightblue" stroke="midnightblue" points="52.57,-922.22 48.24,-912.55 45.59,-922.81 52.57,-922.22"/>
</g>
<!-- Node15 -->
<g id="node16" class="node">
<title>Node15</title>
<g id="a_node16"><a xlink:href="classdss_1_1obj_1_1GrowthShape.html" target="_top" xlink:title=" ">
<polygon fill="white" stroke="black" points="137.5,-1254.5 137.5,-1273.5 253.5,-1273.5 253.5,-1254.5 137.5,-1254.5"/>
<text text-anchor="middle" x="195.5" y="-1261.5" font-family="Helvetica" font-size="10.00">dss::obj::GrowthShape</text>
</a>
</g>
</g>
<!-- Node0&#45;&gt;Node15 -->
<g id="edge15" class="edge">
<title>Node0&#45;&gt;Node15</title>
<path fill="none" stroke="midnightblue" d="M49.61,-922.77C57,-988.39 83.72,-1197.48 129,-1245 132.68,-1248.86 137.08,-1251.95 141.85,-1254.42"/>
<polygon fill="midnightblue" stroke="midnightblue" points="53.06,-922.13 48.49,-912.57 46.1,-922.89 53.06,-922.13"/>
</g>
<!-- Node16 -->
<g id="node17" class="node">
<title>Node16</title>
<g id="a_node17"><a xlink:href="classdss_1_1obj_1_1IndMach012.html" target="_top" xlink:title=" ">
<polygon fill="white" stroke="black" points="140.5,-1216.5 140.5,-1235.5 250.5,-1235.5 250.5,-1216.5 140.5,-1216.5"/>
<text text-anchor="middle" x="195.5" y="-1223.5" font-family="Helvetica" font-size="10.00">dss::obj::IndMach012</text>
</a>
</g>
</g>
<!-- Node0&#45;&gt;Node16 -->
<g id="edge16" class="edge">
<title>Node0&#45;&gt;Node16</title>
<path fill="none" stroke="midnightblue" d="M50.26,-922.92C59.09,-983.76 88.4,-1165.57 129,-1207 132.81,-1210.89 137.37,-1214 142.28,-1216.47"/>
<polygon fill="midnightblue" stroke="midnightblue" points="53.69,-922.14 48.82,-912.73 46.76,-923.12 53.69,-922.14"/>
</g>
<!-- Node17 -->
<g id="node18" class="node">
<title>Node17</title>
<g id="a_node18"><a xlink:href="classdss_1_1obj_1_1InvControl.html" target="_top" xlink:title=" ">
<polygon fill="white" stroke="black" points="144.5,-1178.5 144.5,-1197.5 246.5,-1197.5 246.5,-1178.5 144.5,-1178.5"/>
<text text-anchor="middle" x="195.5" y="-1185.5" font-family="Helvetica" font-size="10.00">dss::obj::InvControl</text>
</a>
</g>
</g>
<!-- Node0&#45;&gt;Node17 -->
<g id="edge17" class="edge">
<title>Node0&#45;&gt;Node17</title>
<path fill="none" stroke="midnightblue" d="M47.53,-922.81C48.72,-971.83 58.76,-1099.81 129,-1169 133.39,-1173.32 138.69,-1176.67 144.37,-1179.26"/>
<polygon fill="midnightblue" stroke="midnightblue" points="51.03,-922.57 47.39,-912.62 44.03,-922.66 51.03,-922.57"/>
</g>
<!-- Node18 -->
<g id="node19" class="node">
<title>Node18</title>
<g id="a_node19"><a xlink:href="classdss_1_1obj_1_1Isource.html" target="_top" xlink:title=" ">
<polygon fill="white" stroke="black" points="151,-1140.5 151,-1159.5 240,-1159.5 240,-1140.5 151,-1140.5"/>
<text text-anchor="middle" x="195.5" y="-1147.5" font-family="Helvetica" font-size="10.00">dss::obj::Isource</text>
</a>
</g>
</g>
<!-- Node0&#45;&gt;Node18 -->
<g id="edge18" class="edge">
<title>Node0&#45;&gt;Node18</title>
<path fill="none" stroke="midnightblue" d="M48.72,-922.94C52.52,-967.04 67.88,-1073.5 129,-1131 135.12,-1136.76 142.89,-1140.79 150.91,-1143.6"/>
<polygon fill="midnightblue" stroke="midnightblue" points="52.21,-922.62 47.97,-912.91 45.23,-923.14 52.21,-922.62"/>
</g>
<!-- Node19 -->
<g id="node20" class="node">
<title>Node19</title>
<g id="a_node20"><a xlink:href="classdss_1_1obj_1_1Line.html" target="_top" xlink:title=" ">
<polygon fill="white" stroke="black" points="158,-1102.5 158,-1121.5 233,-1121.5 233,-1102.5 158,-1102.5"/>
<text text-anchor="middle" x="195.5" y="-1109.5" font-family="Helvetica" font-size="10.00">dss::obj::Line</text>
</a>
</g>
</g>
<!-- Node0&#45;&gt;Node19 -->
<g id="edge19" class="edge">
<title>Node0&#45;&gt;Node19</title>
<path fill="none" stroke="midnightblue" d="M50.27,-922.46C56.77,-960.87 76.62,-1046.7 129,-1093 136.98,-1100.06 147.45,-1104.5 157.67,-1107.3"/>
<polygon fill="midnightblue" stroke="midnightblue" points="53.72,-921.89 48.71,-912.56 46.81,-922.98 53.72,-921.89"/>
</g>
<!-- Node20 -->
<g id="node21" class="node">
<title>Node20</title>
<g id="a_node21"><a xlink:href="classdss_1_1obj_1_1LineCode.html" target="_top" xlink:title=" ">
<polygon fill="white" stroke="black" points="146.5,-1064.5 146.5,-1083.5 244.5,-1083.5 244.5,-1064.5 146.5,-1064.5"/>
<text text-anchor="middle" x="195.5" y="-1071.5" font-family="Helvetica" font-size="10.00">dss::obj::LineCode</text>
</a>
</g>
</g>
<!-- Node0&#45;&gt;Node20 -->
<g id="edge20" class="edge">
<title>Node0&#45;&gt;Node20</title>
<path fill="none" stroke="midnightblue" d="M52.59,-922.52C62.06,-954.93 85.49,-1019.78 129,-1055 134.15,-1059.17 140.19,-1062.43 146.47,-1064.97"/>
<polygon fill="midnightblue" stroke="midnightblue" points="55.86,-921.21 49.81,-912.51 49.12,-923.08 55.86,-921.21"/>
</g>
<!-- Node21 -->
<g id="node22" class="node">
<title>Node21</title>
<g id="a_node22"><a xlink:href="classdss_1_1obj_1_1LineGeometry.html" target="_top" xlink:title=" ">
<polygon fill="white" stroke="black" points="136,-1026.5 136,-1045.5 255,-1045.5 255,-1026.5 136,-1026.5"/>
<text text-anchor="middle" x="195.5" y="-1033.5" font-family="Helvetica" font-size="10.00">dss::obj::LineGeometry</text>
</a>
</g>
</g>
<!-- Node0&#45;&gt;Node21 -->
<g id="edge21" class="edge">
<title>Node0&#45;&gt;Node21</title>
<path fill="none" stroke="midnightblue" d="M56.03,-921.9C68.45,-947.31 93.93,-992.16 129,-1017 134.51,-1020.9 140.81,-1024.01 147.28,-1026.48"/>
<polygon fill="midnightblue" stroke="midnightblue" points="59.07,-920.16 51.64,-912.61 52.74,-923.15 59.07,-920.16"/>
</g>
<!-- Node22 -->
<g id="node23" class="node">
<title>Node22</title>
<g id="a_node23"><a xlink:href="classdss_1_1obj_1_1LineSpacing.html" target="_top" xlink:title=" ">
<polygon fill="white" stroke="black" points="140.5,-988.5 140.5,-1007.5 250.5,-1007.5 250.5,-988.5 140.5,-988.5"/>
<text text-anchor="middle" x="195.5" y="-995.5" font-family="Helvetica" font-size="10.00">dss::obj::LineSpacing</text>
</a>
</g>
</g>
<!-- Node0&#45;&gt;Node22 -->
<g id="edge22" class="edge">
<title>Node0&#45;&gt;Node22</title>
<path fill="none" stroke="midnightblue" d="M61.73,-920.37C76.75,-937.62 101.96,-963.65 129,-979 135.69,-982.8 143.21,-985.9 150.7,-988.4"/>
<polygon fill="midnightblue" stroke="midnightblue" points="64.35,-918.05 55.21,-912.69 59.02,-922.58 64.35,-918.05"/>
</g>
<!-- Node23 -->
<g id="node24" class="node">
<title>Node23</title>
<g id="a_node24"><a xlink:href="classdss_1_1obj_1_1Load.html" target="_top" xlink:title=" ">
<polygon fill="white" stroke="black" points="156.5,-950.5 156.5,-969.5 234.5,-969.5 234.5,-950.5 156.5,-950.5"/>
<text text-anchor="middle" x="195.5" y="-957.5" font-family="Helvetica" font-size="10.00">dss::obj::Load</text>
</a>
</g>
</g>
<!-- Node0&#45;&gt;Node23 -->
<g id="edge23" class="edge">
<title>Node0&#45;&gt;Node23</title>
<path fill="none" stroke="midnightblue" d="M75.01,-917.12C90.59,-924.79 110.6,-934.09 129,-941 138.2,-944.46 148.32,-947.67 157.8,-950.43"/>
<polygon fill="midnightblue" stroke="midnightblue" points="76.44,-913.92 65.92,-912.59 73.31,-920.18 76.44,-913.92"/>
</g>
<!-- Node24 -->
<g id="node25" class="node">
<title>Node24</title>
<g id="a_node25"><a xlink:href="classdss_1_1obj_1_1LoadShape.html" target="_top" xlink:title=" ">
<polygon fill="white" stroke="black" points="142.5,-912.5 142.5,-931.5 248.5,-931.5 248.5,-912.5 142.5,-912.5"/>
<text text-anchor="middle" x="195.5" y="-919.5" font-family="Helvetica" font-size="10.00">dss::obj::LoadShape</text>
</a>
</g>
</g>
<!-- Node0&#45;&gt;Node24 -->
<g id="edge24" class="edge">
<title>Node0&#45;&gt;Node24</title>
<path fill="none" stroke="midnightblue" d="M103.3,-910.21C116.14,-911.87 129.73,-913.63 142.4,-915.27"/>
<polygon fill="midnightblue" stroke="midnightblue" points="103.57,-906.72 93.21,-908.91 102.67,-913.66 103.57,-906.72"/>
</g>
<!-- Node25 -->
<g id="node26" class="node">
<title>Node25</title>
<g id="a_node26"><a xlink:href="classdss_1_1obj_1_1Monitor.html" target="_top" xlink:title=" ">
<polygon fill="white" stroke="black" points="151,-874.5 151,-893.5 240,-893.5 240,-874.5 151,-874.5"/>
<text text-anchor="middle" x="195.5" y="-881.5" font-family="Helvetica" font-size="10.00">dss::obj::Monitor</text>
</a>
</g>
</g>
<!-- Node0&#45;&gt;Node25 -->
<g id="edge25" class="edge">
<title>Node0&#45;&gt;Node25</title>
<path fill="none" stroke="midnightblue" d="M103.34,-895.78C119.06,-893.75 135.93,-891.57 150.83,-889.64"/>
<polygon fill="midnightblue" stroke="midnightblue" points="102.67,-892.34 93.21,-897.09 103.57,-899.28 102.67,-892.34"/>
</g>
<!-- Node26 -->
<g id="node27" class="node">
<title>Node26</title>
<g id="a_node27"><a xlink:href="classdss_1_1obj_1_1PVSystem.html" target="_top" xlink:title=" ">
<polygon fill="white" stroke="black" points="143.5,-836.5 143.5,-855.5 247.5,-855.5 247.5,-836.5 143.5,-836.5"/>
<text text-anchor="middle" x="195.5" y="-843.5" font-family="Helvetica" font-size="10.00">dss::obj::PVSystem</text>
</a>
</g>
</g>
<!-- Node0&#45;&gt;Node26 -->
<g id="edge26" class="edge">
<title>Node0&#45;&gt;Node26</title>
<path fill="none" stroke="midnightblue" d="M75.01,-888.88C90.59,-881.21 110.6,-871.91 129,-865 138.2,-861.54 148.32,-858.33 157.8,-855.57"/>
<polygon fill="midnightblue" stroke="midnightblue" points="73.31,-885.82 65.92,-893.41 76.44,-892.08 73.31,-885.82"/>
</g>
<!-- Node27 -->
<g id="node28" class="node">
<title>Node27</title>
<g id="a_node28"><a xlink:href="classdss_1_1obj_1_1PriceShape.html" target="_top" xlink:title=" ">
<polygon fill="white" stroke="black" points="142,-798.5 142,-817.5 249,-817.5 249,-798.5 142,-798.5"/>
<text text-anchor="middle" x="195.5" y="-805.5" font-family="Helvetica" font-size="10.00">dss::obj::PriceShape</text>
</a>
</g>
</g>
<!-- Node0&#45;&gt;Node27 -->
<g id="edge27" class="edge">
<title>Node0&#45;&gt;Node27</title>
<path fill="none" stroke="midnightblue" d="M61.73,-885.63C76.75,-868.38 101.96,-842.35 129,-827 135.69,-823.2 143.21,-820.1 150.7,-817.6"/>
<polygon fill="midnightblue" stroke="midnightblue" points="59.02,-883.42 55.21,-893.31 64.35,-887.95 59.02,-883.42"/>
</g>
<!-- Node28 -->
<g id="node29" class="node">
<title>Node28</title>
<g id="a_node29"><a xlink:href="classdss_1_1obj_1_1Reactor.html" target="_top" xlink:title=" ">
<polygon fill="white" stroke="black" points="150,-760.5 150,-779.5 241,-779.5 241,-760.5 150,-760.5"/>
<text text-anchor="middle" x="195.5" y="-767.5" font-family="Helvetica" font-size="10.00">dss::obj::Reactor</text>
</a>
</g>
</g>
<!-- Node0&#45;&gt;Node28 -->
<g id="edge28" class="edge">
<title>Node0&#45;&gt;Node28</title>
<path fill="none" stroke="midnightblue" d="M56.03,-884.1C68.45,-858.69 93.93,-813.84 129,-789 135.18,-784.62 142.37,-781.24 149.67,-778.64"/>
<polygon fill="midnightblue" stroke="midnightblue" points="52.74,-882.85 51.64,-893.39 59.07,-885.84 52.74,-882.85"/>
</g>
<!-- Node29 -->
<g id="node30" class="node">
<title>Node29</title>
<g id="a_node30"><a xlink:href="classdss_1_1obj_1_1Recloser.html" target="_top" xlink:title=" ">
<polygon fill="white" stroke="black" points="148,-722.5 148,-741.5 243,-741.5 243,-722.5 148,-722.5"/>
<text text-anchor="middle" x="195.5" y="-729.5" font-family="Helvetica" font-size="10.00">dss::obj::Recloser</text>
</a>
</g>
</g>
<!-- Node0&#45;&gt;Node29 -->
<g id="edge29" class="edge">
<title>Node0&#45;&gt;Node29</title>
<path fill="none" stroke="midnightblue" d="M52.59,-883.48C62.06,-851.07 85.49,-786.22 129,-751 134.52,-746.53 141.05,-743.11 147.82,-740.5"/>
<polygon fill="midnightblue" stroke="midnightblue" points="49.12,-882.92 49.81,-893.49 55.86,-884.79 49.12,-882.92"/>
</g>
<!-- Node30 -->
<g id="node31" class="node">
<title>Node30</title>
<g id="a_node31"><a xlink:href="classdss_1_1obj_1_1RegControl.html" target="_top" xlink:title=" ">
<polygon fill="white" stroke="black" points="142.5,-684.5 142.5,-703.5 248.5,-703.5 248.5,-684.5 142.5,-684.5"/>
<text text-anchor="middle" x="195.5" y="-691.5" font-family="Helvetica" font-size="10.00">dss::obj::RegControl</text>
</a>
</g>
</g>
<!-- Node0&#45;&gt;Node30 -->
<g id="edge30" class="edge">
<title>Node0&#45;&gt;Node30</title>
<path fill="none" stroke="midnightblue" d="M50.27,-883.54C56.77,-845.13 76.62,-759.3 129,-713 133.35,-709.16 138.43,-706.09 143.81,-703.64"/>
<polygon fill="midnightblue" stroke="midnightblue" points="46.81,-883.02 48.71,-893.44 53.72,-884.11 46.81,-883.02"/>
</g>
<!-- Node31 -->
<g id="node32" class="node">
<title>Node31</title>
<g id="a_node32"><a xlink:href="classdss_1_1obj_1_1Relay.html" target="_top" xlink:title=" ">
<polygon fill="white" stroke="black" points="154.5,-646.5 154.5,-665.5 236.5,-665.5 236.5,-646.5 154.5,-646.5"/>
<text text-anchor="middle" x="195.5" y="-653.5" font-family="Helvetica" font-size="10.00">dss::obj::Relay</text>
</a>
</g>
</g>
<!-- Node0&#45;&gt;Node31 -->
<g id="edge31" class="edge">
<title>Node0&#45;&gt;Node31</title>
<path fill="none" stroke="midnightblue" d="M48.72,-883.06C52.52,-838.96 67.88,-732.5 129,-675 135.99,-668.43 145.11,-664.11 154.32,-661.28"/>
<polygon fill="midnightblue" stroke="midnightblue" points="45.23,-882.86 47.97,-893.09 52.21,-883.38 45.23,-882.86"/>
</g>
<!-- Node32 -->
<g id="node33" class="node">
<title>Node32</title>
<g id="a_node33"><a xlink:href="classdss_1_1obj_1_1Sensor.html" target="_top" xlink:title=" ">
<polygon fill="white" stroke="black" points="151.5,-608.5 151.5,-627.5 239.5,-627.5 239.5,-608.5 151.5,-608.5"/>
<text text-anchor="middle" x="195.5" y="-615.5" font-family="Helvetica" font-size="10.00">dss::obj::Sensor</text>
</a>
</g>
</g>
<!-- Node0&#45;&gt;Node32 -->
<g id="edge32" class="edge">
<title>Node0&#45;&gt;Node32</title>
<path fill="none" stroke="midnightblue" d="M47.53,-883.19C48.72,-834.17 58.76,-706.19 129,-637 135.16,-630.93 143.13,-626.78 151.38,-623.95"/>
<polygon fill="midnightblue" stroke="midnightblue" points="44.03,-883.34 47.39,-893.38 51.03,-883.43 44.03,-883.34"/>
</g>
<!-- Node33 -->
<g id="node34" class="node">
<title>Node33</title>
<g id="a_node34"><a xlink:href="classdss_1_1obj_1_1Spectrum.html" target="_top" xlink:title=" ">
<polygon fill="white" stroke="black" points="146,-570.5 146,-589.5 245,-589.5 245,-570.5 146,-570.5"/>
<text text-anchor="middle" x="195.5" y="-577.5" font-family="Helvetica" font-size="10.00">dss::obj::Spectrum</text>
</a>
</g>
</g>
<!-- Node0&#45;&gt;Node33 -->
<g id="edge33" class="edge">
<title>Node0&#45;&gt;Node33</title>
<path fill="none" stroke="midnightblue" d="M50.26,-883.08C59.09,-822.24 88.4,-640.43 129,-599 133.72,-594.18 139.59,-590.56 145.86,-587.85"/>
<polygon fill="midnightblue" stroke="midnightblue" points="46.76,-882.88 48.82,-893.27 53.69,-883.86 46.76,-882.88"/>
</g>
<!-- Node34 -->
<g id="node35" class="node">
<title>Node34</title>
<g id="a_node35"><a xlink:href="classdss_1_1obj_1_1Storage.html" target="_top" xlink:title=" ">
<polygon fill="white" stroke="black" points="150,-532.5 150,-551.5 241,-551.5 241,-532.5 150,-532.5"/>
<text text-anchor="middle" x="195.5" y="-539.5" font-family="Helvetica" font-size="10.00">dss::obj::Storage</text>
</a>
</g>
</g>
<!-- Node0&#45;&gt;Node34 -->
<g id="edge34" class="edge">
<title>Node0&#45;&gt;Node34</title>
<path fill="none" stroke="midnightblue" d="M49.61,-883.23C57,-817.61 83.72,-608.52 129,-561 134.64,-555.09 141.99,-550.98 149.73,-548.13"/>
<polygon fill="midnightblue" stroke="midnightblue" points="46.1,-883.11 48.49,-893.43 53.06,-883.87 46.1,-883.11"/>
</g>
<!-- Node35 -->
<g id="node36" class="node">
<title>Node35</title>
<g id="a_node36"><a xlink:href="classdss_1_1obj_1_1StorageController.html" target="_top" xlink:title=" ">
<polygon fill="white" stroke="black" points="129,-494.5 129,-513.5 262,-513.5 262,-494.5 129,-494.5"/>
<text text-anchor="middle" x="195.5" y="-501.5" font-family="Helvetica" font-size="10.00">dss::obj::StorageController</text>
</a>
</g>
</g>
<!-- Node0&#45;&gt;Node35 -->
<g id="edge35" class="edge">
<title>Node0&#45;&gt;Node35</title>
<path fill="none" stroke="midnightblue" d="M49.09,-883.35C55.15,-813.23 79.01,-576.67 129,-523 132.55,-519.19 136.82,-516.12 141.44,-513.67"/>
<polygon fill="midnightblue" stroke="midnightblue" points="45.59,-883.19 48.24,-893.45 52.57,-883.78 45.59,-883.19"/>
</g>
<!-- Node36 -->
<g id="node37" class="node">
<title>Node36</title>
<g id="a_node37"><a xlink:href="classdss_1_1obj_1_1SwtControl.html" target="_top" xlink:title=" ">
<polygon fill="white" stroke="black" points="142.5,-456.5 142.5,-475.5 248.5,-475.5 248.5,-456.5 142.5,-456.5"/>
<text text-anchor="middle" x="195.5" y="-463.5" font-family="Helvetica" font-size="10.00">dss::obj::SwtControl</text>
</a>
</g>
</g>
<!-- Node0&#45;&gt;Node36 -->
<g id="edge36" class="edge">
<title>Node0&#45;&gt;Node36</title>
<path fill="none" stroke="midnightblue" d="M48.71,-882.86C53.61,-807.68 74.43,-544.7 129,-485 132.75,-480.89 137.34,-477.65 142.32,-475.1"/>
<polygon fill="midnightblue" stroke="midnightblue" points="45.19,-883.06 48.05,-893.26 52.17,-883.5 45.19,-883.06"/>
</g>
<!-- Node37 -->
<g id="node38" class="node">
<title>Node37</title>
<g id="a_node38"><a xlink:href="classdss_1_1obj_1_1TCC__Curve.html" target="_top" xlink:title=" ">
<polygon fill="white" stroke="black" points="140.5,-418.5 140.5,-437.5 250.5,-437.5 250.5,-418.5 140.5,-418.5"/>
<text text-anchor="middle" x="195.5" y="-425.5" font-family="Helvetica" font-size="10.00">dss::obj::TCC_Curve</text>
</a>
</g>
</g>
<!-- Node0&#45;&gt;Node37 -->
<g id="edge37" class="edge">
<title>Node0&#45;&gt;Node37</title>
<path fill="none" stroke="midnightblue" d="M48.34,-883.09C52.07,-803.97 69.66,-512.96 129,-447 132.48,-443.13 136.71,-440.02 141.31,-437.54"/>
<polygon fill="midnightblue" stroke="midnightblue" points="44.84,-883.02 47.89,-893.17 51.83,-883.34 44.84,-883.02"/>
</g>
<!-- Node38 -->
<g id="node39" class="node">
<title>Node38</title>
<g id="a_node39"><a xlink:href="classdss_1_1obj_1_1TSData.html" target="_top" xlink:title=" ">
<polygon fill="white" stroke="black" points="150,-380.5 150,-399.5 241,-399.5 241,-380.5 150,-380.5"/>
<text text-anchor="middle" x="195.5" y="-387.5" font-family="Helvetica" font-size="10.00">dss::obj::TSData</text>
</a>
</g>
</g>
<!-- Node0&#45;&gt;Node38 -->
<g id="edge38" class="edge">
<title>Node0&#45;&gt;Node38</title>
<path fill="none" stroke="midnightblue" d="M48.04,-883.05C50.69,-799.82 64.93,-481.17 129,-409 134.5,-402.8 141.89,-398.57 149.73,-395.7"/>
<polygon fill="midnightblue" stroke="midnightblue" points="44.54,-883.09 47.74,-893.19 51.53,-883.29 44.54,-883.09"/>
</g>
<!-- Node39 -->
<g id="node40" class="node">
<title>Node39</title>
<g id="a_node40"><a xlink:href="classdss_1_1obj_1_1TShape.html" target="_top" xlink:title=" ">
<polygon fill="white" stroke="black" points="150,-342.5 150,-361.5 241,-361.5 241,-342.5 150,-342.5"/>
<text text-anchor="middle" x="195.5" y="-349.5" font-family="Helvetica" font-size="10.00">dss::obj::TShape</text>
</a>
</g>
</g>
<!-- Node0&#45;&gt;Node39 -->
<g id="edge39" class="edge">
<title>Node0&#45;&gt;Node39</title>
<path fill="none" stroke="midnightblue" d="M47.78,-883.21C49.4,-796.32 60.14,-449.47 129,-371 134.47,-364.77 141.84,-360.53 149.67,-357.65"/>
<polygon fill="midnightblue" stroke="midnightblue" points="44.28,-883.24 47.61,-893.29 51.28,-883.35 44.28,-883.24"/>
</g>
<!-- Node40 -->
<g id="node41" class="node">
<title>Node40</title>
<g id="a_node41"><a xlink:href="classdss_1_1obj_1_1Transformer.html" target="_top" xlink:title=" ">
<polygon fill="white" stroke="black" points="141,-304.5 141,-323.5 250,-323.5 250,-304.5 141,-304.5"/>
<text text-anchor="middle" x="195.5" y="-311.5" font-family="Helvetica" font-size="10.00">dss::obj::Transformer</text>
</a>
</g>
</g>
<!-- Node0&#45;&gt;Node40 -->
<g id="edge40" class="edge">
<title>Node0&#45;&gt;Node40</title>
<path fill="none" stroke="midnightblue" d="M47.55,-883.27C48.2,-792.71 55.36,-417.77 129,-333 132.34,-329.16 136.4,-326.07 140.86,-323.59"/>
<polygon fill="midnightblue" stroke="midnightblue" points="44.05,-883.47 47.5,-893.49 51.05,-883.5 44.05,-883.47"/>
</g>
<!-- Node41 -->
<g id="node42" class="node">
<title>Node41</title>
<g id="a_node42"><a xlink:href="classdss_1_1obj_1_1UPFC.html" target="_top" xlink:title=" ">
<polygon fill="white" stroke="black" points="153,-266.5 153,-285.5 238,-285.5 238,-266.5 153,-266.5"/>
<text text-anchor="middle" x="195.5" y="-273.5" font-family="Helvetica" font-size="10.00">dss::obj::UPFC</text>
</a>
</g>
</g>
<!-- Node0&#45;&gt;Node41 -->
<g id="edge41" class="edge">
<title>Node0&#45;&gt;Node41</title>
<path fill="none" stroke="midnightblue" d="M47.36,-883.15C47.09,-788.76 50.62,-386.03 129,-295 135.18,-287.82 143.89,-283.27 152.96,-280.41"/>
<polygon fill="midnightblue" stroke="midnightblue" points="43.86,-883.33 47.41,-893.31 50.86,-883.3 43.86,-883.33"/>
</g>
<!-- Node42 -->
<g id="node43" class="node">
<title>Node42</title>
<g id="a_node43"><a xlink:href="classdss_1_1obj_1_1UPFCControl.html" target="_top" xlink:title=" ">
<polygon fill="white" stroke="black" points="137.5,-228.5 137.5,-247.5 253.5,-247.5 253.5,-228.5 137.5,-228.5"/>
<text text-anchor="middle" x="195.5" y="-235.5" font-family="Helvetica" font-size="10.00">dss::obj::UPFCControl</text>
</a>
</g>
</g>
<!-- Node0&#45;&gt;Node42 -->
<g id="edge42" class="edge">
<title>Node0&#45;&gt;Node42</title>
<path fill="none" stroke="midnightblue" d="M47.19,-883.16C46.04,-785.25 45.83,-354.35 129,-257 132.31,-253.13 136.35,-250.02 140.79,-247.53"/>
<polygon fill="midnightblue" stroke="midnightblue" points="43.69,-883.23 47.32,-893.18 50.69,-883.14 43.69,-883.23"/>
</g>
<!-- Node43 -->
<g id="node44" class="node">
<title>Node43</title>
<g id="a_node44"><a xlink:href="classdss_1_1obj_1_1VCCS.html" target="_top" xlink:title=" ">
<polygon fill="white" stroke="black" points="153,-190.5 153,-209.5 238,-209.5 238,-190.5 153,-190.5"/>
<text text-anchor="middle" x="195.5" y="-197.5" font-family="Helvetica" font-size="10.00">dss::obj::VCCS</text>
</a>
</g>
</g>
<!-- Node0&#45;&gt;Node43 -->
<g id="edge43" class="edge">
<title>Node0&#45;&gt;Node43</title>
<path fill="none" stroke="midnightblue" d="M48.58,-883.06C54.53,-775.87 84.77,-271.13 129,-219 135.13,-211.78 143.82,-207.21 152.88,-204.35"/>
<polygon fill="midnightblue" stroke="midnightblue" points="45.08,-882.97 48.02,-893.15 52.07,-883.36 45.08,-882.97"/>
</g>
<!-- Node44 -->
<g id="node45" class="node">
<title>Node44</title>
<g id="a_node45"><a xlink:href="classdss_1_1obj_1_1VSConverter.html" target="_top" xlink:title=" ">
<polygon fill="white" stroke="black" points="139,-152.5 139,-171.5 252,-171.5 252,-152.5 139,-152.5"/>
<text text-anchor="middle" x="195.5" y="-159.5" font-family="Helvetica" font-size="10.00">dss::obj::VSConverter</text>
</a>
</g>
</g>
<!-- Node0&#45;&gt;Node44 -->
<g id="edge44" class="edge">
<title>Node0&#45;&gt;Node44</title>
<path fill="none" stroke="midnightblue" d="M48.43,-883.35C53.81,-773.29 82.33,-236.36 129,-181 132.21,-177.2 136.12,-174.13 140.43,-171.66"/>
<polygon fill="midnightblue" stroke="midnightblue" points="44.93,-883.23 47.95,-893.39 51.92,-883.57 44.93,-883.23"/>
</g>
<!-- Node45 -->
<g id="node46" class="node">
<title>Node45</title>
<g id="a_node46"><a xlink:href="classdss_1_1obj_1_1Vsource.html" target="_top" xlink:title=" ">
<polygon fill="white" stroke="black" points="149,-114.5 149,-133.5 242,-133.5 242,-114.5 149,-114.5"/>
<text text-anchor="middle" x="195.5" y="-121.5" font-family="Helvetica" font-size="10.00">dss::obj::Vsource</text>
</a>
</g>
</g>
<!-- Node0&#45;&gt;Node45 -->
<g id="edge45" class="edge">
<title>Node0&#45;&gt;Node45</title>
<path fill="none" stroke="midnightblue" d="M48.31,-883.39C53.18,-770.02 79.91,-201.56 129,-143 134.17,-136.83 141.22,-132.6 148.78,-129.71"/>
<polygon fill="midnightblue" stroke="midnightblue" points="44.81,-883.28 47.89,-893.42 51.81,-883.58 44.81,-883.28"/>
</g>
<!-- Node46 -->
<g id="node47" class="node">
<title>Node46</title>
<g id="a_node47"><a xlink:href="classdss_1_1obj_1_1WireData.html" target="_top" xlink:title=" ">
<polygon fill="white" stroke="black" points="146.5,-76.5 146.5,-95.5 244.5,-95.5 244.5,-76.5 146.5,-76.5"/>
<text text-anchor="middle" x="195.5" y="-83.5" font-family="Helvetica" font-size="10.00">dss::obj::WireData</text>
</a>
</g>
</g>
<!-- Node0&#45;&gt;Node46 -->
<g id="edge46" class="edge">
<title>Node0&#45;&gt;Node46</title>
<path fill="none" stroke="midnightblue" d="M48.22,-883.15C52.62,-765.89 77.53,-166.72 129,-105 133.63,-99.45 139.77,-95.47 146.44,-92.62"/>
<polygon fill="midnightblue" stroke="midnightblue" points="44.71,-883.37 47.84,-893.49 51.7,-883.62 44.71,-883.37"/>
</g>
<!-- Node47 -->
<g id="node48" class="node">
<title>Node47</title>
<g id="a_node48"><a xlink:href="classdss_1_1obj_1_1XYcurve.html" target="_top" xlink:title=" ">
<polygon fill="white" stroke="black" points="148,-38.5 148,-57.5 243,-57.5 243,-38.5 148,-38.5"/>
<text text-anchor="middle" x="195.5" y="-45.5" font-family="Helvetica" font-size="10.00">dss::obj::XYcurve</text>
</a>
</g>
</g>
<!-- Node0&#45;&gt;Node47 -->
<g id="edge47" class="edge">
<title>Node0&#45;&gt;Node47</title>
<path fill="none" stroke="midnightblue" d="M48.13,-882.96C52.08,-761.97 75.14,-131.88 129,-67 133.92,-61.08 140.56,-56.94 147.73,-54.06"/>
<polygon fill="midnightblue" stroke="midnightblue" points="44.62,-883.21 47.79,-893.32 51.61,-883.43 44.62,-883.21"/>
</g>
<!-- Node48 -->
<g id="node49" class="node">
<title>Node48</title>
<g id="a_node49"><a xlink:href="classdss_1_1obj_1_1XfmrCode.html" target="_top" xlink:title=" ">
<polygon fill="white" stroke="black" points="145,-0.5 145,-19.5 246,-19.5 246,-0.5 145,-0.5"/>
<text text-anchor="middle" x="195.5" y="-7.5" font-family="Helvetica" font-size="10.00">dss::obj::XfmrCode</text>
</a>
</g>
</g>
<!-- Node0&#45;&gt;Node48 -->
<g id="edge48" class="edge">
<title>Node0&#45;&gt;Node48</title>
<path fill="none" stroke="midnightblue" d="M48.03,-883.22C51.5,-759.67 72.68,-97.13 129,-29 133.22,-23.89 138.73,-20.11 144.77,-17.31"/>
<polygon fill="midnightblue" stroke="midnightblue" points="44.52,-883.36 47.75,-893.45 51.52,-883.55 44.52,-883.36"/>
</g>
</g>
</svg>
