<?xml version="1.0" encoding="UTF-8" standalone="no"?>
<!DOCTYPE svg PUBLIC "-//W3C//DTD SVG 1.1//EN"
 "http://www.w3.org/Graphics/SVG/1.1/DTD/svg11.dtd">
<!-- Generated by graphviz version 2.47.2 (20210527.1257)
 -->
<!-- Title: Graphical Class Hierarchy Pages: 1 -->
<svg width="286pt" height="1902pt"
 viewBox="0.00 0.00 286.00 1902.00" xmlns="http://www.w3.org/2000/svg" xmlns:xlink="http://www.w3.org/1999/xlink">
<g id="graph0" class="graph" transform="scale(1 1) rotate(0) translate(4 1898)">
<title>Graphical Class Hierarchy</title>
<polygon fill="white" stroke="transparent" points="-4,4 -4,-1898 282,-1898 282,4 -4,4"/>
<!-- Node0 -->
<g id="node1" class="node">
<title>Node0</title>
<g id="a_node1"><a xlink:href="classdss_1_1ContextState.html" target="_top" xlink:title="Wraps common DSSContext state data.">
<polygon fill="white" stroke="black" points="0,-931.5 0,-950.5 96,-950.5 96,-931.5 0,-931.5"/>
<text text-anchor="middle" x="48" y="-938.5" font-family="Helvetica" font-size="10.00">dss::ContextState</text>
</a>
</g>
</g>
<!-- Node1 -->
<g id="node2" class="node">
<title>Node1</title>
<g id="a_node2"><a xlink:href="classdss_1_1classic_1_1IActiveClass.html" target="_top" xlink:title=" ">
<polygon fill="white" stroke="black" points="139.5,-1874.5 139.5,-1893.5 270.5,-1893.5 270.5,-1874.5 139.5,-1874.5"/>
<text text-anchor="middle" x="205" y="-1881.5" font-family="Helvetica" font-size="10.00">dss::classic::IActiveClass</text>
</a>
</g>
</g>
<!-- Node0&#45;&gt;Node1 -->
<g id="edge1" class="edge">
<title>Node0&#45;&gt;Node1</title>
<path fill="none" stroke="midnightblue" d="M49.43,-960.73C52.41,-1088.3 71.54,-1793.4 132,-1865 135.25,-1868.85 139.19,-1871.97 143.52,-1874.49"/>
<polygon fill="midnightblue" stroke="midnightblue" points="52.93,-960.43 49.2,-950.51 45.93,-960.59 52.93,-960.43"/>
</g>
<!-- Node2 -->
<g id="node3" class="node">
<title>Node2</title>
<g id="a_node3"><a xlink:href="classdss_1_1classic_1_1IBus.html" target="_top" xlink:title=" ">
<polygon fill="white" stroke="black" points="157.5,-1836.5 157.5,-1855.5 252.5,-1855.5 252.5,-1836.5 157.5,-1836.5"/>
<text text-anchor="middle" x="205" y="-1843.5" font-family="Helvetica" font-size="10.00">dss::classic::IBus</text>
</a>
</g>
</g>
<!-- Node0&#45;&gt;Node2 -->
<g id="edge2" class="edge">
<title>Node0&#45;&gt;Node2</title>
<path fill="none" stroke="midnightblue" d="M49.51,-960.7C52.92,-1085.07 74,-1758.57 132,-1827 138.52,-1834.69 147.75,-1839.46 157.44,-1842.37"/>
<polygon fill="midnightblue" stroke="midnightblue" points="53.01,-960.59 49.24,-950.69 46.01,-960.78 53.01,-960.59"/>
</g>
<!-- Node3 -->
<g id="node4" class="node">
<title>Node3</title>
<g id="a_node4"><a xlink:href="classdss_1_1classic_1_1ICNData.html" target="_top" xlink:title=" ">
<polygon fill="white" stroke="black" points="148,-1798.5 148,-1817.5 262,-1817.5 262,-1798.5 148,-1798.5"/>
<text text-anchor="middle" x="205" y="-1805.5" font-family="Helvetica" font-size="10.00">dss::classic::ICNData</text>
</a>
</g>
</g>
<!-- Node0&#45;&gt;Node3 -->
<g id="edge3" class="edge">
<title>Node0&#45;&gt;Node3</title>
<path fill="none" stroke="midnightblue" d="M49.6,-960.59C53.45,-1081.55 76.44,-1723.73 132,-1789 136.27,-1794.02 141.7,-1797.8 147.66,-1800.62"/>
<polygon fill="midnightblue" stroke="midnightblue" points="53.09,-960.44 49.28,-950.55 46.1,-960.66 53.09,-960.44"/>
</g>
<!-- Node4 -->
<g id="node5" class="node">
<title>Node4</title>
<g id="a_node5"><a xlink:href="classdss_1_1classic_1_1ICapControls.html" target="_top" xlink:title=" ">
<polygon fill="white" stroke="black" points="138.5,-1760.5 138.5,-1779.5 271.5,-1779.5 271.5,-1760.5 138.5,-1760.5"/>
<text text-anchor="middle" x="205" y="-1767.5" font-family="Helvetica" font-size="10.00">dss::classic::ICapControls</text>
</a>
</g>
</g>
<!-- Node0&#45;&gt;Node4 -->
<g id="edge4" class="edge">
<title>Node0&#45;&gt;Node4</title>
<path fill="none" stroke="midnightblue" d="M49.7,-960.8C54.04,-1079.07 78.93,-1688.94 132,-1751 135.28,-1754.83 139.23,-1757.94 143.57,-1760.45"/>
<polygon fill="midnightblue" stroke="midnightblue" points="53.19,-960.53 49.33,-950.66 46.2,-960.78 53.19,-960.53"/>
</g>
<!-- Node5 -->
<g id="node6" class="node">
<title>Node5</title>
<g id="a_node6"><a xlink:href="classdss_1_1classic_1_1ICapacitors.html" target="_top" xlink:title=" ">
<polygon fill="white" stroke="black" points="142,-1722.5 142,-1741.5 268,-1741.5 268,-1722.5 142,-1722.5"/>
<text text-anchor="middle" x="205" y="-1729.5" font-family="Helvetica" font-size="10.00">dss::classic::ICapacitors</text>
</a>
</g>
</g>
<!-- Node0&#45;&gt;Node5 -->
<g id="edge5" class="edge">
<title>Node0&#45;&gt;Node5</title>
<path fill="none" stroke="midnightblue" d="M49.81,-960.94C54.66,-1076.21 81.4,-1654.13 132,-1713 135.29,-1716.82 139.24,-1719.92 143.59,-1722.43"/>
<polygon fill="midnightblue" stroke="midnightblue" points="53.3,-960.59 49.39,-950.74 46.3,-960.88 53.3,-960.59"/>
</g>
<!-- Node6 -->
<g id="node7" class="node">
<title>Node6</title>
<g id="a_node7"><a xlink:href="classdss_1_1classic_1_1ICircuit.html" target="_top" xlink:title=" ">
<polygon fill="white" stroke="black" points="151.5,-1684.5 151.5,-1703.5 258.5,-1703.5 258.5,-1684.5 151.5,-1684.5"/>
<text text-anchor="middle" x="205" y="-1691.5" font-family="Helvetica" font-size="10.00">dss::classic::ICircuit</text>
</a>
</g>
</g>
<!-- Node0&#45;&gt;Node6 -->
<g id="edge6" class="edge">
<title>Node0&#45;&gt;Node6</title>
<path fill="none" stroke="midnightblue" d="M49.91,-960.64C55.24,-1071.83 83.81,-1619.24 132,-1675 137.16,-1680.97 143.94,-1685.17 151.29,-1688.11"/>
<polygon fill="midnightblue" stroke="midnightblue" points="53.4,-960.34 49.43,-950.52 46.41,-960.67 53.4,-960.34"/>
</g>
<!-- Node7 -->
<g id="node8" class="node">
<title>Node7</title>
<g id="a_node8"><a xlink:href="classdss_1_1classic_1_1ICktElement.html" target="_top" xlink:title=" ">
<polygon fill="white" stroke="black" points="140,-1646.5 140,-1665.5 270,-1665.5 270,-1646.5 140,-1646.5"/>
<text text-anchor="middle" x="205" y="-1653.5" font-family="Helvetica" font-size="10.00">dss::classic::ICktElement</text>
</a>
</g>
</g>
<!-- Node0&#45;&gt;Node7 -->
<g id="edge7" class="edge">
<title>Node0&#45;&gt;Node7</title>
<path fill="none" stroke="midnightblue" d="M50.04,-960.63C55.9,-1068.3 86.26,-1584.39 132,-1637 135.31,-1640.8 139.28,-1643.89 143.64,-1646.39"/>
<polygon fill="midnightblue" stroke="midnightblue" points="53.53,-960.32 49.49,-950.52 46.54,-960.7 53.53,-960.32"/>
</g>
<!-- Node8 -->
<g id="node9" class="node">
<title>Node8</title>
<g id="a_node9"><a xlink:href="classdss_1_1classic_1_1ICtrlQueue.html" target="_top" xlink:title=" ">
<polygon fill="white" stroke="black" points="144,-1608.5 144,-1627.5 266,-1627.5 266,-1608.5 144,-1608.5"/>
<text text-anchor="middle" x="205" y="-1615.5" font-family="Helvetica" font-size="10.00">dss::classic::ICtrlQueue</text>
</a>
</g>
</g>
<!-- Node0&#45;&gt;Node8 -->
<g id="edge8" class="edge">
<title>Node0&#45;&gt;Node8</title>
<path fill="none" stroke="midnightblue" d="M48.64,-960.62C47.24,-1059.31 45.91,-1500.67 132,-1599 135.41,-1602.89 139.51,-1606.03 144,-1608.56"/>
<polygon fill="midnightblue" stroke="midnightblue" points="52.14,-960.6 48.8,-950.55 45.14,-960.49 52.14,-960.6"/>
</g>
<!-- Node9 -->
<g id="node10" class="node">
<title>Node9</title>
<g id="a_node10"><a xlink:href="classdss_1_1classic_1_1IDSS.html" target="_top" xlink:title=" ">
<polygon fill="white" stroke="black" points="155.5,-1570.5 155.5,-1589.5 254.5,-1589.5 254.5,-1570.5 155.5,-1570.5"/>
<text text-anchor="middle" x="205" y="-1577.5" font-family="Helvetica" font-size="10.00">dss::classic::IDSS</text>
</a>
</g>
</g>
<!-- Node0&#45;&gt;Node9 -->
<g id="edge9" class="edge">
<title>Node0&#45;&gt;Node9</title>
<path fill="none" stroke="midnightblue" d="M48.81,-960.98C48.29,-1056.89 50.88,-1469.05 132,-1561 138.16,-1567.98 146.55,-1572.54 155.43,-1575.48"/>
<polygon fill="midnightblue" stroke="midnightblue" points="52.31,-960.93 48.88,-950.9 45.31,-960.87 52.31,-960.93"/>
</g>
<!-- Node10 -->
<g id="node11" class="node">
<title>Node10</title>
<g id="a_node11"><a xlink:href="classdss_1_1classic_1_1IDSSElement.html" target="_top" xlink:title=" ">
<polygon fill="white" stroke="black" points="137.5,-1532.5 137.5,-1551.5 272.5,-1551.5 272.5,-1532.5 137.5,-1532.5"/>
<text text-anchor="middle" x="205" y="-1539.5" font-family="Helvetica" font-size="10.00">dss::classic::IDSSElement</text>
</a>
</g>
</g>
<!-- Node0&#45;&gt;Node10 -->
<g id="edge10" class="edge">
<title>Node0&#45;&gt;Node10</title>
<path fill="none" stroke="midnightblue" d="M49,-960.91C49.4,-1053.05 55.71,-1437.27 132,-1523 135.44,-1526.86 139.56,-1529.98 144.07,-1532.5"/>
<polygon fill="midnightblue" stroke="midnightblue" points="52.5,-960.73 48.97,-950.73 45.5,-960.74 52.5,-960.73"/>
</g>
<!-- Node11 -->
<g id="node12" class="node">
<title>Node11</title>
<g id="a_node12"><a xlink:href="classdss_1_1classic_1_1IDSSProgress.html" target="_top" xlink:title=" ">
<polygon fill="white" stroke="black" points="136,-1494.5 136,-1513.5 274,-1513.5 274,-1494.5 136,-1494.5"/>
<text text-anchor="middle" x="205" y="-1501.5" font-family="Helvetica" font-size="10.00">dss::classic::IDSSProgress</text>
</a>
</g>
</g>
<!-- Node0&#45;&gt;Node11 -->
<g id="edge11" class="edge">
<title>Node0&#45;&gt;Node11</title>
<path fill="none" stroke="midnightblue" d="M49.21,-960.71C50.58,-1048.78 60.49,-1405.43 132,-1485 135.46,-1488.85 139.59,-1491.95 144.11,-1494.46"/>
<polygon fill="midnightblue" stroke="midnightblue" points="52.71,-960.47 49.08,-950.52 45.71,-960.57 52.71,-960.47"/>
</g>
<!-- Node12 -->
<g id="node13" class="node">
<title>Node12</title>
<g id="a_node13"><a xlink:href="classdss_1_1classic_1_1IDSSProperty.html" target="_top" xlink:title=" ">
<polygon fill="white" stroke="black" points="136.5,-1456.5 136.5,-1475.5 273.5,-1475.5 273.5,-1456.5 136.5,-1456.5"/>
<text text-anchor="middle" x="205" y="-1463.5" font-family="Helvetica" font-size="10.00">dss::classic::IDSSProperty</text>
</a>
</g>
</g>
<!-- Node0&#45;&gt;Node12 -->
<g id="edge12" class="edge">
<title>Node0&#45;&gt;Node12</title>
<path fill="none" stroke="midnightblue" d="M49.46,-960.67C51.84,-1044.81 65.31,-1373.62 132,-1447 135.48,-1450.83 139.63,-1453.92 144.15,-1456.42"/>
<polygon fill="midnightblue" stroke="midnightblue" points="52.96,-960.57 49.2,-950.66 45.96,-960.75 52.96,-960.57"/>
</g>
<!-- Node13 -->
<g id="node14" class="node">
<title>Node13</title>
<g id="a_node14"><a xlink:href="classdss_1_1classic_1_1IDSS__Executive.html" target="_top" xlink:title=" ">
<polygon fill="white" stroke="black" points="155.5,-1407 155.5,-1437 254.5,-1437 254.5,-1407 155.5,-1407"/>
<text text-anchor="start" x="163.5" y="-1425" font-family="Helvetica" font-size="10.00">dss::classic::IDSS</text>
<text text-anchor="middle" x="205" y="-1414" font-family="Helvetica" font-size="10.00">_Executive</text>
</a>
</g>
</g>
<!-- Node0&#45;&gt;Node13 -->
<g id="edge13" class="edge">
<title>Node0&#45;&gt;Node13</title>
<path fill="none" stroke="midnightblue" d="M50.01,-960.83C54.39,-1039.62 74.25,-1329.58 132,-1397 138.2,-1404.24 146.6,-1409.38 155.49,-1413.03"/>
<polygon fill="midnightblue" stroke="midnightblue" points="53.5,-960.59 49.47,-950.79 46.51,-960.96 53.5,-960.59"/>
</g>
<!-- Node14 -->
<g id="node15" class="node">
<title>Node14</title>
<g id="a_node15"><a xlink:href="classdss_1_1classic_1_1IDSSimComs.html" target="_top" xlink:title=" ">
<polygon fill="white" stroke="black" points="137,-1368.5 137,-1387.5 273,-1387.5 273,-1368.5 137,-1368.5"/>
<text text-anchor="middle" x="205" y="-1375.5" font-family="Helvetica" font-size="10.00">dss::classic::IDSSimComs</text>
</a>
</g>
</g>
<!-- Node0&#45;&gt;Node14 -->
<g id="edge14" class="edge">
<title>Node0&#45;&gt;Node14</title>
<path fill="none" stroke="midnightblue" d="M50.24,-961.18C55.26,-1036.53 76.57,-1300.02 132,-1359 135.63,-1362.86 139.94,-1365.97 144.63,-1368.48"/>
<polygon fill="midnightblue" stroke="midnightblue" points="53.7,-960.52 49.57,-950.77 46.72,-960.97 53.7,-960.52"/>
</g>
<!-- Node15 -->
<g id="node16" class="node">
<title>Node15</title>
<g id="a_node16"><a xlink:href="classdss_1_1classic_1_1IError.html" target="_top" xlink:title=" ">
<polygon fill="white" stroke="black" points="155.5,-1330.5 155.5,-1349.5 254.5,-1349.5 254.5,-1330.5 155.5,-1330.5"/>
<text text-anchor="middle" x="205" y="-1337.5" font-family="Helvetica" font-size="10.00">dss::classic::IError</text>
</a>
</g>
</g>
<!-- Node0&#45;&gt;Node15 -->
<g id="edge15" class="edge">
<title>Node0&#45;&gt;Node15</title>
<path fill="none" stroke="midnightblue" d="M50.63,-960.7C56.83,-1030.98 81.22,-1267.99 132,-1321 138.35,-1327.63 146.72,-1332.04 155.49,-1334.96"/>
<polygon fill="midnightblue" stroke="midnightblue" points="54.1,-960.24 49.76,-950.57 47.13,-960.84 54.1,-960.24"/>
</g>
<!-- Node16 -->
<g id="node17" class="node">
<title>Node16</title>
<g id="a_node17"><a xlink:href="classdss_1_1classic_1_1IFuses.html" target="_top" xlink:title=" ">
<polygon fill="white" stroke="black" points="152.5,-1292.5 152.5,-1311.5 257.5,-1311.5 257.5,-1292.5 152.5,-1292.5"/>
<text text-anchor="middle" x="205" y="-1299.5" font-family="Helvetica" font-size="10.00">dss::classic::IFuses</text>
</a>
</g>
</g>
<!-- Node0&#45;&gt;Node16 -->
<g id="edge16" class="edge">
<title>Node0&#45;&gt;Node16</title>
<path fill="none" stroke="midnightblue" d="M51.16,-960.82C58.71,-1026.58 86,-1236.08 132,-1283 137.61,-1288.72 144.73,-1292.79 152.29,-1295.66"/>
<polygon fill="midnightblue" stroke="midnightblue" points="54.6,-960.14 50.01,-950.59 47.65,-960.92 54.6,-960.14"/>
</g>
<!-- Node17 -->
<g id="node18" class="node">
<title>Node17</title>
<g id="a_node18"><a xlink:href="classdss_1_1classic_1_1IGICSources.html" target="_top" xlink:title=" ">
<polygon fill="white" stroke="black" points="139,-1254.5 139,-1273.5 271,-1273.5 271,-1254.5 139,-1254.5"/>
<text text-anchor="middle" x="205" y="-1261.5" font-family="Helvetica" font-size="10.00">dss::classic::IGICSources</text>
</a>
</g>
</g>
<!-- Node0&#45;&gt;Node17 -->
<g id="edge17" class="edge">
<title>Node0&#45;&gt;Node17</title>
<path fill="none" stroke="midnightblue" d="M51.82,-960.96C60.83,-1021.94 90.76,-1204.11 132,-1245 135.86,-1248.82 140.38,-1251.9 145.26,-1254.38"/>
<polygon fill="midnightblue" stroke="midnightblue" points="55.24,-960.15 50.34,-950.75 48.31,-961.15 55.24,-960.15"/>
</g>
<!-- Node18 -->
<g id="node19" class="node">
<title>Node18</title>
<g id="a_node19"><a xlink:href="classdss_1_1classic_1_1IGenerators.html" target="_top" xlink:title=" ">
<polygon fill="white" stroke="black" points="141.5,-1216.5 141.5,-1235.5 268.5,-1235.5 268.5,-1216.5 141.5,-1216.5"/>
<text text-anchor="middle" x="205" y="-1223.5" font-family="Helvetica" font-size="10.00">dss::classic::IGenerators</text>
</a>
</g>
</g>
<!-- Node0&#45;&gt;Node18 -->
<g id="edge18" class="edge">
<title>Node0&#45;&gt;Node18</title>
<path fill="none" stroke="midnightblue" d="M49.05,-960.93C50.31,-1010.21 60.64,-1138.74 132,-1207 136.02,-1210.84 140.72,-1213.93 145.75,-1216.41"/>
<polygon fill="midnightblue" stroke="midnightblue" points="52.55,-960.62 48.9,-950.67 45.55,-960.72 52.55,-960.62"/>
</g>
<!-- Node19 -->
<g id="node20" class="node">
<title>Node19</title>
<g id="a_node20"><a xlink:href="classdss_1_1classic_1_1IISources.html" target="_top" xlink:title=" ">
<polygon fill="white" stroke="black" points="146.5,-1178.5 146.5,-1197.5 263.5,-1197.5 263.5,-1178.5 146.5,-1178.5"/>
<text text-anchor="middle" x="205" y="-1185.5" font-family="Helvetica" font-size="10.00">dss::classic::IISources</text>
</a>
</g>
</g>
<!-- Node0&#45;&gt;Node19 -->
<g id="edge19" class="edge">
<title>Node0&#45;&gt;Node19</title>
<path fill="none" stroke="midnightblue" d="M50.27,-961.05C54.18,-1005.39 69.89,-1112.31 132,-1169 136.2,-1172.83 141.09,-1175.91 146.29,-1178.38"/>
<polygon fill="midnightblue" stroke="midnightblue" points="53.75,-960.67 49.49,-950.97 46.77,-961.21 53.75,-960.67"/>
</g>
<!-- Node20 -->
<g id="node21" class="node">
<title>Node20</title>
<g id="a_node21"><a xlink:href="classdss_1_1classic_1_1ILineCodes.html" target="_top" xlink:title=" ">
<polygon fill="white" stroke="black" points="142.5,-1140.5 142.5,-1159.5 267.5,-1159.5 267.5,-1140.5 142.5,-1140.5"/>
<text text-anchor="middle" x="205" y="-1147.5" font-family="Helvetica" font-size="10.00">dss::classic::ILineCodes</text>
</a>
</g>
</g>
<!-- Node0&#45;&gt;Node20 -->
<g id="edge20" class="edge">
<title>Node0&#45;&gt;Node20</title>
<path fill="none" stroke="midnightblue" d="M51.84,-960.58C58.49,-999.19 78.76,-1085.38 132,-1131 136.52,-1134.87 141.73,-1137.96 147.25,-1140.43"/>
<polygon fill="midnightblue" stroke="midnightblue" points="55.28,-959.94 50.25,-950.62 48.37,-961.04 55.28,-959.94"/>
</g>
<!-- Node21 -->
<g id="node22" class="node">
<title>Node21</title>
<g id="a_node22"><a xlink:href="classdss_1_1classic_1_1ILineGeometries.html" target="_top" xlink:title=" ">
<polygon fill="white" stroke="black" points="132,-1102.5 132,-1121.5 278,-1121.5 278,-1102.5 132,-1102.5"/>
<text text-anchor="middle" x="205" y="-1109.5" font-family="Helvetica" font-size="10.00">dss::classic::ILineGeometries</text>
</a>
</g>
</g>
<!-- Node0&#45;&gt;Node21 -->
<g id="edge21" class="edge">
<title>Node0&#45;&gt;Node21</title>
<path fill="none" stroke="midnightblue" d="M54.07,-960.22C63.66,-992.67 87.56,-1058.18 132,-1093 136.99,-1096.91 142.7,-1100.01 148.69,-1102.48"/>
<polygon fill="midnightblue" stroke="midnightblue" points="57.44,-959.25 51.36,-950.57 50.7,-961.14 57.44,-959.25"/>
</g>
<!-- Node22 -->
<g id="node23" class="node">
<title>Node22</title>
<g id="a_node23"><a xlink:href="classdss_1_1classic_1_1ILineSpacings.html" target="_top" xlink:title=" ">
<polygon fill="white" stroke="black" points="136.5,-1064.5 136.5,-1083.5 273.5,-1083.5 273.5,-1064.5 136.5,-1064.5"/>
<text text-anchor="middle" x="205" y="-1071.5" font-family="Helvetica" font-size="10.00">dss::classic::ILineSpacings</text>
</a>
</g>
</g>
<!-- Node0&#45;&gt;Node22 -->
<g id="edge22" class="edge">
<title>Node0&#45;&gt;Node22</title>
<path fill="none" stroke="midnightblue" d="M57.69,-960.03C70.35,-985.58 96.3,-1030.59 132,-1055 137.66,-1058.87 144.06,-1061.95 150.65,-1064.4"/>
<polygon fill="midnightblue" stroke="midnightblue" points="60.69,-958.19 53.22,-950.68 54.37,-961.21 60.69,-958.19"/>
</g>
<!-- Node23 -->
<g id="node24" class="node">
<title>Node23</title>
<g id="a_node24"><a xlink:href="classdss_1_1classic_1_1ILines.html" target="_top" xlink:title=" ">
<polygon fill="white" stroke="black" points="154.5,-1026.5 154.5,-1045.5 255.5,-1045.5 255.5,-1026.5 154.5,-1026.5"/>
<text text-anchor="middle" x="205" y="-1033.5" font-family="Helvetica" font-size="10.00">dss::classic::ILines</text>
</a>
</g>
</g>
<!-- Node0&#45;&gt;Node23 -->
<g id="edge23" class="edge">
<title>Node0&#45;&gt;Node23</title>
<path fill="none" stroke="midnightblue" d="M63.24,-958.22C78.5,-975.57 104.29,-1001.87 132,-1017 139.04,-1020.84 146.89,-1023.94 154.74,-1026.42"/>
<polygon fill="midnightblue" stroke="midnightblue" points="65.8,-955.83 56.63,-950.51 60.48,-960.38 65.8,-955.83"/>
</g>
<!-- Node24 -->
<g id="node25" class="node">
<title>Node24</title>
<g id="a_node25"><a xlink:href="classdss_1_1classic_1_1ILoadShapes.html" target="_top" xlink:title=" ">
<polygon fill="white" stroke="black" points="139,-988.5 139,-1007.5 271,-1007.5 271,-988.5 139,-988.5"/>
<text text-anchor="middle" x="205" y="-995.5" font-family="Helvetica" font-size="10.00">dss::classic::ILoadShapes</text>
</a>
</g>
</g>
<!-- Node0&#45;&gt;Node24 -->
<g id="edge24" class="edge">
<title>Node0&#45;&gt;Node24</title>
<path fill="none" stroke="midnightblue" d="M76.66,-955.11C92.57,-962.86 113.09,-972.23 132,-979 141.86,-982.53 152.69,-985.73 162.88,-988.45"/>
<polygon fill="midnightblue" stroke="midnightblue" points="77.92,-951.83 67.41,-950.54 74.82,-958.11 77.92,-951.83"/>
</g>
<!-- Node25 -->
<g id="node26" class="node">
<title>Node25</title>
<g id="a_node26"><a xlink:href="classdss_1_1classic_1_1ILoads.html" target="_top" xlink:title=" ">
<polygon fill="white" stroke="black" points="153,-950.5 153,-969.5 257,-969.5 257,-950.5 153,-950.5"/>
<text text-anchor="middle" x="205" y="-957.5" font-family="Helvetica" font-size="10.00">dss::classic::ILoads</text>
</a>
</g>
</g>
<!-- Node0&#45;&gt;Node25 -->
<g id="edge25" class="edge">
<title>Node0&#45;&gt;Node25</title>
<path fill="none" stroke="midnightblue" d="M106.65,-948.07C121.83,-949.93 138.09,-951.92 152.9,-953.74"/>
<polygon fill="midnightblue" stroke="midnightblue" points="106.7,-944.55 96.35,-946.8 105.85,-951.49 106.7,-944.55"/>
</g>
<!-- Node26 -->
<g id="node27" class="node">
<title>Node26</title>
<g id="a_node27"><a xlink:href="classdss_1_1classic_1_1IMeters.html" target="_top" xlink:title=" ">
<polygon fill="white" stroke="black" points="150.5,-912.5 150.5,-931.5 259.5,-931.5 259.5,-912.5 150.5,-912.5"/>
<text text-anchor="middle" x="205" y="-919.5" font-family="Helvetica" font-size="10.00">dss::classic::IMeters</text>
</a>
</g>
</g>
<!-- Node0&#45;&gt;Node26 -->
<g id="edge26" class="edge">
<title>Node0&#45;&gt;Node26</title>
<path fill="none" stroke="midnightblue" d="M106.6,-933.94C120.95,-932.18 136.29,-930.3 150.44,-928.57"/>
<polygon fill="midnightblue" stroke="midnightblue" points="105.85,-930.51 96.35,-935.2 106.7,-937.45 105.85,-930.51"/>
</g>
<!-- Node27 -->
<g id="node28" class="node">
<title>Node27</title>
<g id="a_node28"><a xlink:href="classdss_1_1classic_1_1IMonitors.html" target="_top" xlink:title=" ">
<polygon fill="white" stroke="black" points="147,-874.5 147,-893.5 263,-893.5 263,-874.5 147,-874.5"/>
<text text-anchor="middle" x="205" y="-881.5" font-family="Helvetica" font-size="10.00">dss::classic::IMonitors</text>
</a>
</g>
</g>
<!-- Node0&#45;&gt;Node27 -->
<g id="edge27" class="edge">
<title>Node0&#45;&gt;Node27</title>
<path fill="none" stroke="midnightblue" d="M76.66,-926.89C92.57,-919.14 113.09,-909.77 132,-903 141.86,-899.47 152.69,-896.27 162.88,-893.55"/>
<polygon fill="midnightblue" stroke="midnightblue" points="74.82,-923.89 67.41,-931.46 77.92,-930.17 74.82,-923.89"/>
</g>
<!-- Node28 -->
<g id="node29" class="node">
<title>Node28</title>
<g id="a_node29"><a xlink:href="classdss_1_1classic_1_1IPDElements.html" target="_top" xlink:title=" ">
<polygon fill="white" stroke="black" points="138,-836.5 138,-855.5 272,-855.5 272,-836.5 138,-836.5"/>
<text text-anchor="middle" x="205" y="-843.5" font-family="Helvetica" font-size="10.00">dss::classic::IPDElements</text>
</a>
</g>
</g>
<!-- Node0&#45;&gt;Node28 -->
<g id="edge28" class="edge">
<title>Node0&#45;&gt;Node28</title>
<path fill="none" stroke="midnightblue" d="M63.24,-923.78C78.5,-906.43 104.29,-880.13 132,-865 139.04,-861.16 146.89,-858.06 154.74,-855.58"/>
<polygon fill="midnightblue" stroke="midnightblue" points="60.48,-921.62 56.63,-931.49 65.8,-926.17 60.48,-921.62"/>
</g>
<!-- Node29 -->
<g id="node30" class="node">
<title>Node29</title>
<g id="a_node30"><a xlink:href="classdss_1_1classic_1_1IPVSystems.html" target="_top" xlink:title=" ">
<polygon fill="white" stroke="black" points="140,-798.5 140,-817.5 270,-817.5 270,-798.5 140,-798.5"/>
<text text-anchor="middle" x="205" y="-805.5" font-family="Helvetica" font-size="10.00">dss::classic::IPVSystems</text>
</a>
</g>
</g>
<!-- Node0&#45;&gt;Node29 -->
<g id="edge29" class="edge">
<title>Node0&#45;&gt;Node29</title>
<path fill="none" stroke="midnightblue" d="M57.69,-921.97C70.35,-896.42 96.3,-851.41 132,-827 137.66,-823.13 144.06,-820.05 150.65,-817.6"/>
<polygon fill="midnightblue" stroke="midnightblue" points="54.37,-920.79 53.22,-931.32 60.69,-923.81 54.37,-920.79"/>
</g>
<!-- Node30 -->
<g id="node31" class="node">
<title>Node30</title>
<g id="a_node31"><a xlink:href="classdss_1_1classic_1_1IParallel.html" target="_top" xlink:title=" ">
<polygon fill="white" stroke="black" points="150,-760.5 150,-779.5 260,-779.5 260,-760.5 150,-760.5"/>
<text text-anchor="middle" x="205" y="-767.5" font-family="Helvetica" font-size="10.00">dss::classic::IParallel</text>
</a>
</g>
</g>
<!-- Node0&#45;&gt;Node30 -->
<g id="edge30" class="edge">
<title>Node0&#45;&gt;Node30</title>
<path fill="none" stroke="midnightblue" d="M54.07,-921.78C63.66,-889.33 87.56,-823.82 132,-789 137.29,-784.85 143.41,-781.61 149.79,-779.07"/>
<polygon fill="midnightblue" stroke="midnightblue" points="50.7,-920.86 51.36,-931.43 57.44,-922.75 50.7,-920.86"/>
</g>
<!-- Node31 -->
<g id="node32" class="node">
<title>Node31</title>
<g id="a_node32"><a xlink:href="classdss_1_1classic_1_1IParser.html" target="_top" xlink:title=" ">
<polygon fill="white" stroke="black" points="151.5,-722.5 151.5,-741.5 258.5,-741.5 258.5,-722.5 151.5,-722.5"/>
<text text-anchor="middle" x="205" y="-729.5" font-family="Helvetica" font-size="10.00">dss::classic::IParser</text>
</a>
</g>
</g>
<!-- Node0&#45;&gt;Node31 -->
<g id="edge31" class="edge">
<title>Node0&#45;&gt;Node31</title>
<path fill="none" stroke="midnightblue" d="M51.84,-921.42C58.49,-882.81 78.76,-796.62 132,-751 137.6,-746.21 144.27,-742.6 151.26,-739.9"/>
<polygon fill="midnightblue" stroke="midnightblue" points="48.37,-920.96 50.25,-931.38 55.28,-922.06 48.37,-920.96"/>
</g>
<!-- Node32 -->
<g id="node33" class="node">
<title>Node32</title>
<g id="a_node33"><a xlink:href="classdss_1_1classic_1_1IReactors.html" target="_top" xlink:title=" ">
<polygon fill="white" stroke="black" points="146,-684.5 146,-703.5 264,-703.5 264,-684.5 146,-684.5"/>
<text text-anchor="middle" x="205" y="-691.5" font-family="Helvetica" font-size="10.00">dss::classic::IReactors</text>
</a>
</g>
</g>
<!-- Node0&#45;&gt;Node32 -->
<g id="edge32" class="edge">
<title>Node0&#45;&gt;Node32</title>
<path fill="none" stroke="midnightblue" d="M50.27,-920.95C54.18,-876.61 69.89,-769.69 132,-713 136.2,-709.17 141.09,-706.09 146.29,-703.62"/>
<polygon fill="midnightblue" stroke="midnightblue" points="46.77,-920.79 49.49,-931.03 53.75,-921.33 46.77,-920.79"/>
</g>
<!-- Node33 -->
<g id="node34" class="node">
<title>Node33</title>
<g id="a_node34"><a xlink:href="classdss_1_1classic_1_1IReclosers.html" target="_top" xlink:title=" ">
<polygon fill="white" stroke="black" points="144,-646.5 144,-665.5 266,-665.5 266,-646.5 144,-646.5"/>
<text text-anchor="middle" x="205" y="-653.5" font-family="Helvetica" font-size="10.00">dss::classic::IReclosers</text>
</a>
</g>
</g>
<!-- Node0&#45;&gt;Node33 -->
<g id="edge33" class="edge">
<title>Node0&#45;&gt;Node33</title>
<path fill="none" stroke="midnightblue" d="M49.05,-921.07C50.31,-871.79 60.64,-743.26 132,-675 136.02,-671.16 140.72,-668.07 145.75,-665.59"/>
<polygon fill="midnightblue" stroke="midnightblue" points="45.55,-921.28 48.9,-931.33 52.55,-921.38 45.55,-921.28"/>
</g>
<!-- Node34 -->
<g id="node35" class="node">
<title>Node34</title>
<g id="a_node35"><a xlink:href="classdss_1_1classic_1_1IReduceCkt.html" target="_top" xlink:title=" ">
<polygon fill="white" stroke="black" points="141.5,-608.5 141.5,-627.5 268.5,-627.5 268.5,-608.5 141.5,-608.5"/>
<text text-anchor="middle" x="205" y="-615.5" font-family="Helvetica" font-size="10.00">dss::classic::IReduceCkt</text>
</a>
</g>
</g>
<!-- Node0&#45;&gt;Node34 -->
<g id="edge34" class="edge">
<title>Node0&#45;&gt;Node34</title>
<path fill="none" stroke="midnightblue" d="M51.82,-921.04C60.83,-860.06 90.76,-677.89 132,-637 135.86,-633.18 140.38,-630.1 145.26,-627.62"/>
<polygon fill="midnightblue" stroke="midnightblue" points="48.31,-920.85 50.34,-931.25 55.24,-921.85 48.31,-920.85"/>
</g>
<!-- Node35 -->
<g id="node36" class="node">
<title>Node35</title>
<g id="a_node36"><a xlink:href="classdss_1_1classic_1_1IRegControls.html" target="_top" xlink:title=" ">
<polygon fill="white" stroke="black" points="139,-570.5 139,-589.5 271,-589.5 271,-570.5 139,-570.5"/>
<text text-anchor="middle" x="205" y="-577.5" font-family="Helvetica" font-size="10.00">dss::classic::IRegControls</text>
</a>
</g>
</g>
<!-- Node0&#45;&gt;Node35 -->
<g id="edge35" class="edge">
<title>Node0&#45;&gt;Node35</title>
<path fill="none" stroke="midnightblue" d="M51.16,-921.18C58.71,-855.42 86,-645.92 132,-599 135.8,-595.12 140.29,-592.01 145.15,-589.5"/>
<polygon fill="midnightblue" stroke="midnightblue" points="47.65,-921.08 50.01,-931.41 54.6,-921.86 47.65,-921.08"/>
</g>
<!-- Node36 -->
<g id="node37" class="node">
<title>Node36</title>
<g id="a_node37"><a xlink:href="classdss_1_1classic_1_1IRelays.html" target="_top" xlink:title=" ">
<polygon fill="white" stroke="black" points="151,-532.5 151,-551.5 259,-551.5 259,-532.5 151,-532.5"/>
<text text-anchor="middle" x="205" y="-539.5" font-family="Helvetica" font-size="10.00">dss::classic::IRelays</text>
</a>
</g>
</g>
<!-- Node0&#45;&gt;Node36 -->
<g id="edge36" class="edge">
<title>Node0&#45;&gt;Node36</title>
<path fill="none" stroke="midnightblue" d="M50.63,-921.3C56.83,-851.02 81.22,-614.01 132,-561 137.19,-555.59 143.72,-551.65 150.72,-548.8"/>
<polygon fill="midnightblue" stroke="midnightblue" points="47.13,-921.16 49.76,-931.43 54.1,-921.76 47.13,-921.16"/>
</g>
<!-- Node37 -->
<g id="node38" class="node">
<title>Node37</title>
<g id="a_node38"><a xlink:href="classdss_1_1classic_1_1ISensors.html" target="_top" xlink:title=" ">
<polygon fill="white" stroke="black" points="147.5,-494.5 147.5,-513.5 262.5,-513.5 262.5,-494.5 147.5,-494.5"/>
<text text-anchor="middle" x="205" y="-501.5" font-family="Helvetica" font-size="10.00">dss::classic::ISensors</text>
</a>
</g>
</g>
<!-- Node0&#45;&gt;Node37 -->
<g id="edge37" class="edge">
<title>Node0&#45;&gt;Node37</title>
<path fill="none" stroke="midnightblue" d="M50.24,-920.82C55.26,-845.47 76.57,-581.98 132,-523 136.34,-518.38 141.65,-514.84 147.41,-512.12"/>
<polygon fill="midnightblue" stroke="midnightblue" points="46.72,-921.03 49.57,-931.23 53.7,-921.48 46.72,-921.03"/>
</g>
<!-- Node38 -->
<g id="node39" class="node">
<title>Node38</title>
<g id="a_node39"><a xlink:href="classdss_1_1classic_1_1ISettings.html" target="_top" xlink:title=" ">
<polygon fill="white" stroke="black" points="148,-456.5 148,-475.5 262,-475.5 262,-456.5 148,-456.5"/>
<text text-anchor="middle" x="205" y="-463.5" font-family="Helvetica" font-size="10.00">dss::classic::ISettings</text>
</a>
</g>
</g>
<!-- Node0&#45;&gt;Node38 -->
<g id="edge38" class="edge">
<title>Node0&#45;&gt;Node38</title>
<path fill="none" stroke="midnightblue" d="M49.86,-921.04C53.69,-841.76 71.72,-550.17 132,-485 136.39,-480.25 141.81,-476.64 147.69,-473.89"/>
<polygon fill="midnightblue" stroke="midnightblue" points="46.36,-921 49.4,-931.15 53.35,-921.32 46.36,-921"/>
</g>
<!-- Node39 -->
<g id="node40" class="node">
<title>Node39</title>
<g id="a_node40"><a xlink:href="classdss_1_1classic_1_1ISolution.html" target="_top" xlink:title=" ">
<polygon fill="white" stroke="black" points="148.5,-418.5 148.5,-437.5 261.5,-437.5 261.5,-418.5 148.5,-418.5"/>
<text text-anchor="middle" x="205" y="-425.5" font-family="Helvetica" font-size="10.00">dss::classic::ISolution</text>
</a>
</g>
</g>
<!-- Node0&#45;&gt;Node39 -->
<g id="edge39" class="edge">
<title>Node0&#45;&gt;Node39</title>
<path fill="none" stroke="midnightblue" d="M49.56,-921.01C52.29,-837.6 66.92,-518.33 132,-447 136.53,-442.03 142.19,-438.3 148.34,-435.51"/>
<polygon fill="midnightblue" stroke="midnightblue" points="46.06,-921.06 49.25,-931.16 53.05,-921.28 46.06,-921.06"/>
</g>
<!-- Node40 -->
<g id="node41" class="node">
<title>Node40</title>
<g id="a_node41"><a xlink:href="classdss_1_1classic_1_1IStorages.html" target="_top" xlink:title=" ">
<polygon fill="white" stroke="black" points="146.5,-380.5 146.5,-399.5 263.5,-399.5 263.5,-380.5 146.5,-380.5"/>
<text text-anchor="middle" x="205" y="-387.5" font-family="Helvetica" font-size="10.00">dss::classic::IStorages</text>
</a>
</g>
</g>
<!-- Node0&#45;&gt;Node40 -->
<g id="edge40" class="edge">
<title>Node0&#45;&gt;Node40</title>
<path fill="none" stroke="midnightblue" d="M49.29,-921.17C50.98,-834.09 62.05,-486.57 132,-409 135.98,-404.58 140.86,-401.14 146.18,-398.46"/>
<polygon fill="midnightblue" stroke="midnightblue" points="45.79,-921.21 49.12,-931.27 52.79,-921.33 45.79,-921.21"/>
</g>
<!-- Node41 -->
<g id="node42" class="node">
<title>Node41</title>
<g id="a_node42"><a xlink:href="classdss_1_1classic_1_1ISwtControls.html" target="_top" xlink:title=" ">
<polygon fill="white" stroke="black" points="139,-342.5 139,-361.5 271,-361.5 271,-342.5 139,-342.5"/>
<text text-anchor="middle" x="205" y="-349.5" font-family="Helvetica" font-size="10.00">dss::classic::ISwtControls</text>
</a>
</g>
</g>
<!-- Node0&#45;&gt;Node41 -->
<g id="edge41" class="edge">
<title>Node0&#45;&gt;Node41</title>
<path fill="none" stroke="midnightblue" d="M49.06,-921.22C49.76,-830.48 57.2,-454.8 132,-371 135.44,-367.14 139.57,-364.03 144.08,-361.51"/>
<polygon fill="midnightblue" stroke="midnightblue" points="45.56,-921.45 49.01,-931.47 52.56,-921.49 45.56,-921.45"/>
</g>
<!-- Node42 -->
<g id="node43" class="node">
<title>Node42</title>
<g id="a_node43"><a xlink:href="classdss_1_1classic_1_1ITSData.html" target="_top" xlink:title=" ">
<polygon fill="white" stroke="black" points="149,-304.5 149,-323.5 261,-323.5 261,-304.5 149,-304.5"/>
<text text-anchor="middle" x="205" y="-311.5" font-family="Helvetica" font-size="10.00">dss::classic::ITSData</text>
</a>
</g>
</g>
<!-- Node0&#45;&gt;Node42 -->
<g id="edge42" class="edge">
<title>Node0&#45;&gt;Node42</title>
<path fill="none" stroke="midnightblue" d="M48.86,-921.11C48.63,-826.52 52.38,-423.01 132,-333 136.63,-327.77 142.5,-323.9 148.9,-321.05"/>
<polygon fill="midnightblue" stroke="midnightblue" points="45.37,-921.31 48.91,-931.29 52.37,-921.27 45.37,-921.31"/>
</g>
<!-- Node43 -->
<g id="node44" class="node">
<title>Node43</title>
<g id="a_node44"><a xlink:href="classdss_1_1classic_1_1IText.html" target="_top" xlink:title=" ">
<polygon fill="white" stroke="black" points="156.5,-266.5 156.5,-285.5 253.5,-285.5 253.5,-266.5 156.5,-266.5"/>
<text text-anchor="middle" x="205" y="-273.5" font-family="Helvetica" font-size="10.00">dss::classic::IText</text>
</a>
</g>
</g>
<!-- Node0&#45;&gt;Node43 -->
<g id="edge43" class="edge">
<title>Node0&#45;&gt;Node43</title>
<path fill="none" stroke="midnightblue" d="M48.69,-921.12C47.56,-823 47.52,-391.26 132,-295 138.31,-287.81 146.99,-283.19 156.14,-280.25"/>
<polygon fill="midnightblue" stroke="midnightblue" points="45.19,-921.21 48.82,-931.16 52.19,-921.12 45.19,-921.21"/>
</g>
<!-- Node44 -->
<g id="node45" class="node">
<title>Node44</title>
<g id="a_node45"><a xlink:href="classdss_1_1classic_1_1ITopology.html" target="_top" xlink:title=" ">
<polygon fill="white" stroke="black" points="146.5,-228.5 146.5,-247.5 263.5,-247.5 263.5,-228.5 146.5,-228.5"/>
<text text-anchor="middle" x="205" y="-235.5" font-family="Helvetica" font-size="10.00">dss::classic::ITopology</text>
</a>
</g>
</g>
<!-- Node0&#45;&gt;Node44 -->
<g id="edge44" class="edge">
<title>Node0&#45;&gt;Node44</title>
<path fill="none" stroke="midnightblue" d="M50.1,-921.04C56.18,-813.75 87.07,-308.56 132,-257 135.99,-252.42 140.94,-248.88 146.37,-246.15"/>
<polygon fill="midnightblue" stroke="midnightblue" points="46.6,-920.96 49.53,-931.14 53.59,-921.35 46.6,-920.96"/>
</g>
<!-- Node45 -->
<g id="node46" class="node">
<title>Node45</title>
<g id="a_node46"><a xlink:href="classdss_1_1classic_1_1ITransformers.html" target="_top" xlink:title=" ">
<polygon fill="white" stroke="black" points="137,-190.5 137,-209.5 273,-209.5 273,-190.5 137,-190.5"/>
<text text-anchor="middle" x="205" y="-197.5" font-family="Helvetica" font-size="10.00">dss::classic::ITransformers</text>
</a>
</g>
</g>
<!-- Node0&#45;&gt;Node45 -->
<g id="edge45" class="edge">
<title>Node0&#45;&gt;Node45</title>
<path fill="none" stroke="midnightblue" d="M49.95,-921.33C55.45,-811.17 84.59,-273.76 132,-219 135.3,-215.19 139.27,-212.1 143.62,-209.6"/>
<polygon fill="midnightblue" stroke="midnightblue" points="46.45,-921.22 49.46,-931.38 53.44,-921.56 46.45,-921.22"/>
</g>
<!-- Node46 -->
<g id="node47" class="node">
<title>Node46</title>
<g id="a_node47"><a xlink:href="classdss_1_1classic_1_1IVsources.html" target="_top" xlink:title=" ">
<polygon fill="white" stroke="black" points="145.5,-152.5 145.5,-171.5 264.5,-171.5 264.5,-152.5 145.5,-152.5"/>
<text text-anchor="middle" x="205" y="-159.5" font-family="Helvetica" font-size="10.00">dss::classic::IVsources</text>
</a>
</g>
</g>
<!-- Node0&#45;&gt;Node46 -->
<g id="edge46" class="edge">
<title>Node0&#45;&gt;Node46</title>
<path fill="none" stroke="midnightblue" d="M49.83,-921.37C54.81,-807.89 82.13,-238.92 132,-181 135.71,-176.69 140.27,-173.3 145.29,-170.64"/>
<polygon fill="midnightblue" stroke="midnightblue" points="46.33,-921.27 49.4,-931.41 53.33,-921.57 46.33,-921.27"/>
</g>
<!-- Node47 -->
<g id="node48" class="node">
<title>Node47</title>
<g id="a_node48"><a xlink:href="classdss_1_1classic_1_1IWireData.html" target="_top" xlink:title=" ">
<polygon fill="white" stroke="black" points="145.5,-114.5 145.5,-133.5 264.5,-133.5 264.5,-114.5 145.5,-114.5"/>
<text text-anchor="middle" x="205" y="-121.5" font-family="Helvetica" font-size="10.00">dss::classic::IWireData</text>
</a>
</g>
</g>
<!-- Node0&#45;&gt;Node47 -->
<g id="edge47" class="edge">
<title>Node0&#45;&gt;Node47</title>
<path fill="none" stroke="midnightblue" d="M49.73,-921.13C54.24,-803.76 79.72,-204.05 132,-143 135.7,-138.68 140.26,-135.28 145.26,-132.62"/>
<polygon fill="midnightblue" stroke="midnightblue" points="46.22,-921.35 49.34,-931.48 53.22,-921.62 46.22,-921.35"/>
</g>
<!-- Node48 -->
<g id="node49" class="node">
<title>Node48</title>
<g id="a_node49"><a xlink:href="classdss_1_1classic_1_1IXYCurves.html" target="_top" xlink:title=" ">
<polygon fill="white" stroke="black" points="144,-76.5 144,-95.5 266,-95.5 266,-76.5 144,-76.5"/>
<text text-anchor="middle" x="205" y="-83.5" font-family="Helvetica" font-size="10.00">dss::classic::IXYCurves</text>
</a>
</g>
</g>
<!-- Node0&#45;&gt;Node48 -->
<g id="edge48" class="edge">
<title>Node0&#45;&gt;Node48</title>
<path fill="none" stroke="midnightblue" d="M49.63,-921.31C53.64,-801.11 77.23,-169.25 132,-105 135.35,-101.06 139.42,-97.89 143.89,-95.35"/>
<polygon fill="midnightblue" stroke="midnightblue" points="46.13,-921.2 49.3,-931.31 53.13,-921.43 46.13,-921.2"/>
</g>
<!-- Node49 -->
<g id="node50" class="node">
<title>Node49</title>
<g id="a_node50"><a xlink:href="classdss_1_1classic_1_1IYMatrix.html" target="_top" xlink:title=" ">
<polygon fill="white" stroke="black" points="149,-38.5 149,-57.5 261,-57.5 261,-38.5 149,-38.5"/>
<text text-anchor="middle" x="205" y="-45.5" font-family="Helvetica" font-size="10.00">dss::classic::IYMatrix</text>
</a>
</g>
</g>
<!-- Node0&#45;&gt;Node49 -->
<g id="edge49" class="edge">
<title>Node0&#45;&gt;Node49</title>
<path fill="none" stroke="midnightblue" d="M49.54,-921.2C53.1,-797.53 74.79,-134.41 132,-67 136.52,-61.68 142.33,-57.75 148.7,-54.88"/>
<polygon fill="midnightblue" stroke="midnightblue" points="46.04,-921.35 49.25,-931.44 53.03,-921.55 46.04,-921.35"/>
</g>
<!-- Node50 -->
<g id="node51" class="node">
<title>Node50</title>
<g id="a_node51"><a xlink:href="classdss_1_1classic_1_1IZIP.html" target="_top" xlink:title=" ">
<polygon fill="white" stroke="black" points="158,-0.5 158,-19.5 252,-19.5 252,-0.5 158,-0.5"/>
<text text-anchor="middle" x="205" y="-7.5" font-family="Helvetica" font-size="10.00">dss::classic::IZIP</text>
</a>
</g>
</g>
<!-- Node0&#45;&gt;Node50 -->
<g id="edge50" class="edge">
<title>Node0&#45;&gt;Node50</title>
<path fill="none" stroke="midnightblue" d="M49.46,-921.13C52.59,-794.16 72.34,-99.57 132,-29 138.59,-21.2 147.97,-16.41 157.79,-13.5"/>
<polygon fill="midnightblue" stroke="midnightblue" points="45.96,-921.24 49.22,-931.32 52.96,-921.41 45.96,-921.24"/>
</g>
</g>
</svg>
