<?xml version="1.0" encoding="UTF-8" standalone="no"?>
<!DOCTYPE svg PUBLIC "-//W3C//DTD SVG 1.1//EN"
 "http://www.w3.org/Graphics/SVG/1.1/DTD/svg11.dtd">
<!-- Generated by graphviz version 2.47.2 (20210527.1257)
 -->
<!-- Title: dss::APIUtil::ErrorChecker Pages: 1 -->
<svg width="158pt" height="217pt"
 viewBox="0.00 0.00 157.50 217.00" xmlns="http://www.w3.org/2000/svg" xmlns:xlink="http://www.w3.org/1999/xlink">
<g id="graph0" class="graph" transform="scale(1 1) rotate(0) translate(4 213)">
<title>dss::APIUtil::ErrorChecker</title>
<polygon fill="white" stroke="transparent" points="-4,4 -4,-213 153.5,-213 153.5,4 -4,4"/>
<!-- Node1 -->
<g id="node1" class="node">
<title>Node1</title>
<g id="a_node1"><a xlink:title=" ">
<polygon fill="#bfbfbf" stroke="black" points="0,-0.5 0,-19.5 133,-19.5 133,-0.5 0,-0.5"/>
<text text-anchor="middle" x="66.5" y="-7.5" font-family="Helvetica" font-size="10.00">dss::APIUtil::ErrorChecker</text>
</a>
</g>
</g>
<!-- Node2 -->
<g id="node2" class="node">
<title>Node2</title>
<g id="a_node2"><a xlink:href="structdss_1_1APIUtil.html" target="_top" xlink:title=" ">
<polygon fill="white" stroke="#bfbfbf" points="31.5,-67.5 31.5,-86.5 101.5,-86.5 101.5,-67.5 31.5,-67.5"/>
<text text-anchor="middle" x="66.5" y="-74.5" font-family="Helvetica" font-size="10.00">dss::APIUtil</text>
</a>
</g>
</g>
<!-- Node2&#45;&gt;Node1 -->
<g id="edge1" class="edge">
<title>Node2&#45;&gt;Node1</title>
<path fill="none" stroke="#9a32cd" stroke-dasharray="5,2" d="M66.5,-57.04C66.5,-44.67 66.5,-29.12 66.5,-19.63"/>
<polygon fill="#9a32cd" stroke="#9a32cd" points="63,-57.23 66.5,-67.23 70,-57.23 63,-57.23"/>
<text text-anchor="middle" x="83.5" y="-41" font-family="Helvetica" font-size="10.00"> api_util</text>
</g>
<!-- Node3 -->
<g id="node3" class="node">
<title>Node3</title>
<g id="a_node3"><a xlink:title=" ">
<polygon fill="white" stroke="#bfbfbf" points="43.5,-189.5 43.5,-208.5 89.5,-208.5 89.5,-189.5 43.5,-189.5"/>
<text text-anchor="middle" x="66.5" y="-196.5" font-family="Helvetica" font-size="10.00">int32_t</text>
</a>
</g>
</g>
<!-- Node3&#45;&gt;Node2 -->
<g id="edge2" class="edge">
<title>Node3&#45;&gt;Node2</title>
<path fill="none" stroke="#9a32cd" stroke-dasharray="5,2" d="M66.5,-179.15C66.5,-152.72 66.5,-105.76 66.5,-86.55"/>
<polygon fill="#9a32cd" stroke="#9a32cd" points="63,-179.37 66.5,-189.37 70,-179.37 63,-179.37"/>
<text text-anchor="middle" x="108" y="-163" font-family="Helvetica" font-size="10.00"> count_PByte</text>
<text text-anchor="middle" x="108" y="-152" font-family="Helvetica" font-size="10.00">count_PDouble</text>
<text text-anchor="middle" x="108" y="-141" font-family="Helvetica" font-size="10.00">count_PInteger</text>
<text text-anchor="middle" x="108" y="-130" font-family="Helvetica" font-size="10.00">count_PPAnsiChar</text>
<text text-anchor="middle" x="108" y="-119" font-family="Helvetica" font-size="10.00">data_PInteger</text>
<text text-anchor="middle" x="108" y="-108" font-family="Helvetica" font-size="10.00">error_ptr</text>
</g>
</g>
</svg>
