<?xml version="1.0" encoding="UTF-8" standalone="no"?>
<!DOCTYPE svg PUBLIC "-//W3C//DTD SVG 1.1//EN"
 "http://www.w3.org/Graphics/SVG/1.1/DTD/svg11.dtd">
<!-- Generated by graphviz version 2.47.2 (20210527.1257)
 -->
<!-- Title: dss::APIUtil Pages: 1 -->
<svg width="126pt" height="150pt"
 viewBox="0.00 0.00 126.00 150.00" xmlns="http://www.w3.org/2000/svg" xmlns:xlink="http://www.w3.org/1999/xlink">
<g id="graph0" class="graph" transform="scale(1 1) rotate(0) translate(4 146)">
<title>dss::APIUtil</title>
<polygon fill="white" stroke="transparent" points="-4,4 -4,-146 122,-146 122,4 -4,4"/>
<!-- Node1 -->
<g id="node1" class="node">
<title>Node1</title>
<g id="a_node1"><a xlink:title=" ">
<polygon fill="#bfbfbf" stroke="black" points="0,-0.5 0,-19.5 70,-19.5 70,-0.5 0,-0.5"/>
<text text-anchor="middle" x="35" y="-7.5" font-family="Helvetica" font-size="10.00">dss::APIUtil</text>
</a>
</g>
</g>
<!-- Node2 -->
<g id="node2" class="node">
<title>Node2</title>
<g id="a_node2"><a xlink:title=" ">
<polygon fill="white" stroke="#bfbfbf" points="12,-122.5 12,-141.5 58,-141.5 58,-122.5 12,-122.5"/>
<text text-anchor="middle" x="35" y="-129.5" font-family="Helvetica" font-size="10.00">int32_t</text>
</a>
</g>
</g>
<!-- Node2&#45;&gt;Node1 -->
<g id="edge1" class="edge">
<title>Node2&#45;&gt;Node1</title>
<path fill="none" stroke="#9a32cd" stroke-dasharray="5,2" d="M35,-112.15C35,-85.72 35,-38.76 35,-19.55"/>
<polygon fill="#9a32cd" stroke="#9a32cd" points="31.5,-112.37 35,-122.37 38.5,-112.37 31.5,-112.37"/>
<text text-anchor="middle" x="76.5" y="-96" font-family="Helvetica" font-size="10.00"> count_PByte</text>
<text text-anchor="middle" x="76.5" y="-85" font-family="Helvetica" font-size="10.00">count_PDouble</text>
<text text-anchor="middle" x="76.5" y="-74" font-family="Helvetica" font-size="10.00">count_PInteger</text>
<text text-anchor="middle" x="76.5" y="-63" font-family="Helvetica" font-size="10.00">count_PPAnsiChar</text>
<text text-anchor="middle" x="76.5" y="-52" font-family="Helvetica" font-size="10.00">data_PInteger</text>
<text text-anchor="middle" x="76.5" y="-41" font-family="Helvetica" font-size="10.00">error_ptr</text>
</g>
</g>
</svg>
